<svg xmlns="http://www.w3.org/2000/svg" xmlns:xlink="http://www.w3.org/1999/xlink" width="1096" height="1163" viewBox="0 0 1096 1163">
  <defs>
    <filter id="Rectangle_8898" x="0" y="0" width="1096" height="1163" filterUnits="userSpaceOnUse">
      <feOffset dy="3" input="SourceAlpha"/>
      <feGaussianBlur stdDeviation="3" result="blur"/>
      <feFlood flood-opacity="0.161"/>
      <feComposite operator="in" in2="blur"/>
      <feComposite in="SourceGraphic"/>
    </filter>
    <clipPath id="clip-path">
      <rect width="877" height="207" fill="none"/>
    </clipPath>
    <filter id="Rectangle_8897" x="110" y="758" width="292" height="99" filterUnits="userSpaceOnUse">
      <feOffset dy="3" input="SourceAlpha"/>
      <feGaussianBlur stdDeviation="3" result="blur-2"/>
      <feFlood flood-opacity="0.161"/>
      <feComposite operator="in" in2="blur-2"/>
      <feComposite in="SourceGraphic"/>
    </filter>
    <filter id="Rectangle_8897-2" x="402" y="758" width="292" height="99" filterUnits="userSpaceOnUse">
      <feOffset dy="3" input="SourceAlpha"/>
      <feGaussianBlur stdDeviation="3" result="blur-3"/>
      <feFlood flood-opacity="0.161"/>
      <feComposite operator="in" in2="blur-3"/>
      <feComposite in="SourceGraphic"/>
    </filter>
    <filter id="Rectangle_8897-3" x="694" y="758" width="292" height="99" filterUnits="userSpaceOnUse">
      <feOffset dy="3" input="SourceAlpha"/>
      <feGaussianBlur stdDeviation="3" result="blur-4"/>
      <feFlood flood-opacity="0.161"/>
      <feComposite operator="in" in2="blur-4"/>
      <feComposite in="SourceGraphic"/>
    </filter>
    <filter id="Rectangle_8897-4" x="110" y="862" width="292" height="99" filterUnits="userSpaceOnUse">
      <feOffset dy="3" input="SourceAlpha"/>
      <feGaussianBlur stdDeviation="3" result="blur-5"/>
      <feFlood flood-opacity="0.161"/>
      <feComposite operator="in" in2="blur-5"/>
      <feComposite in="SourceGraphic"/>
    </filter>
    <filter id="Rectangle_8897-5" x="402" y="862" width="292" height="99" filterUnits="userSpaceOnUse">
      <feOffset dy="3" input="SourceAlpha"/>
      <feGaussianBlur stdDeviation="3" result="blur-6"/>
      <feFlood flood-opacity="0.161"/>
      <feComposite operator="in" in2="blur-6"/>
      <feComposite in="SourceGraphic"/>
    </filter>
    <filter id="Rectangle_8897-6" x="694" y="862" width="292" height="99" filterUnits="userSpaceOnUse">
      <feOffset dy="3" input="SourceAlpha"/>
      <feGaussianBlur stdDeviation="3" result="blur-7"/>
      <feFlood flood-opacity="0.161"/>
      <feComposite operator="in" in2="blur-7"/>
      <feComposite in="SourceGraphic"/>
    </filter>
    <filter id="Path_13191" x="92.5" y="291.5" width="444" height="287" filterUnits="userSpaceOnUse">
      <feOffset dy="3" input="SourceAlpha"/>
      <feGaussianBlur stdDeviation="1.5" result="blur-8"/>
      <feFlood flood-opacity="0.161"/>
      <feComposite operator="in" in2="blur-8"/>
      <feComposite in="SourceGraphic"/>
    </filter>
    <clipPath id="clip-path-2">
      <rect id="Rectangle_8901" data-name="Rectangle 8901" width="153.097" height="77" fill="none"/>
    </clipPath>
    <filter id="Path_13191-2" x="559.5" y="291.5" width="444" height="287" filterUnits="userSpaceOnUse">
      <feOffset dy="3" input="SourceAlpha"/>
      <feGaussianBlur stdDeviation="1.5" result="blur-9"/>
      <feFlood flood-opacity="0.161"/>
      <feComposite operator="in" in2="blur-9"/>
      <feComposite in="SourceGraphic"/>
    </filter>
  </defs>
  <g id="Motivation" transform="translate(15257 -1814)">
    <g transform="matrix(1, 0, 0, 1, -15257, 1814)" filter="url(#Rectangle_8898)">
      <rect id="Rectangle_8898-2" data-name="Rectangle 8898" width="1078" height="1145" rx="24" transform="translate(9 6)" fill="#fefefe"/>
    </g>
    <text id="Motivation_at_a_Glance_" data-name="Motivation at a Glance
" transform="translate(-14709 1973)" fill="#3e2967" font-size="63" font-family="SegoeUI, Segoe UI" letter-spacing="-0.05em"><tspan x="-280.402" y="0">Motivation at a Glance</tspan><tspan font-family="Bilo-Medium, Bilo" font-weight="500"><tspan x="0" y="84"></tspan></tspan></text>
    <text id="The_top_right_arrow_in_Variable" data-name="The top right arrow in Variable" transform="translate(-14946 2003)" fill="#594383" font-size="35" font-family="SegoeUI, Segoe UI"><tspan x="0" y="38">The top right arrow in Variable</tspan></text>
    <text id="Motivation_describes_how_mind_is_motivated_to_think_correctly_in_terms_of_Outer_Authority_expression._" data-name="Motivation describes how mind is motivated to 
think correctly in terms of Outer Authority expression.
" transform="translate(-14709 2467)" fill="#3e2967" font-size="30" font-family="SegoeUI, Segoe UI"><tspan x="-315.256" y="0">Motivation describes how mind is motivated to </tspan><tspan x="-354.99" y="40">think correctly in terms of Outer Authority expression.</tspan><tspan font-family="Bilo"><tspan x="0" y="80"></tspan></tspan></text>
    <g id="Repeat_Grid_10" data-name="Repeat Grid 10" transform="translate(-15147 2572)" clip-path="url(#clip-path)">
      <g id="Group_16359" data-name="Group 16359" transform="translate(15161 -2531)">
        <g transform="matrix(1, 0, 0, 1, -15271, 1773)" filter="url(#Rectangle_8897)">
          <rect id="Rectangle_8897-7" data-name="Rectangle 8897" width="274" height="81" rx="21" transform="translate(119 764)" fill="#faf7ff"/>
        </g>
        <text id="Survival_" data-name="Survival  " transform="translate(-15015 2589)" fill="#3e2967" font-size="35" font-family="SegoeUI, Segoe UI"><tspan x="-69.017" y="0">Survival  </tspan></text>
      </g>
      <g id="Group_16359-2" data-name="Group 16359" transform="translate(15453 -2531)">
        <g transform="matrix(1, 0, 0, 1, -15563, 1773)" filter="url(#Rectangle_8897-2)">
          <rect id="Rectangle_8897-8" data-name="Rectangle 8897" width="274" height="81" rx="21" transform="translate(411 764)" fill="#faf7ff"/>
        </g>
        <text id="Possibility" transform="translate(-15015 2589)" fill="#3e2967" font-size="35" font-family="SegoeUI, Segoe UI"><tspan x="-75.896" y="0">Possibility</tspan></text>
      </g>
      <g id="Group_16359-3" data-name="Group 16359" transform="translate(15745 -2531)">
        <g transform="matrix(1, 0, 0, 1, -15855, 1773)" filter="url(#Rectangle_8897-3)">
          <rect id="Rectangle_8897-9" data-name="Rectangle 8897" width="274" height="81" rx="21" transform="translate(703 764)" fill="#faf7ff"/>
        </g>
        <text id="Power" transform="translate(-15015 2589)" fill="#3e2967" font-size="35" font-family="SegoeUI, Segoe UI"><tspan x="-47.288" y="0">Power</tspan></text>
      </g>
      <g id="Group_16359-4" data-name="Group 16359" transform="translate(15161 -2427)">
        <g transform="matrix(1, 0, 0, 1, -15271, 1669)" filter="url(#Rectangle_8897-4)">
          <rect id="Rectangle_8897-10" data-name="Rectangle 8897" width="274" height="81" rx="21" transform="translate(119 868)" fill="#faf7ff"/>
        </g>
        <text id="Wanting" transform="translate(-15015 2589)" fill="#3e2967" font-size="35" font-family="SegoeUI, Segoe UI"><tspan x="-64.847" y="0">Wanting</tspan></text>
      </g>
      <g id="Group_16359-5" data-name="Group 16359" transform="translate(15453 -2427)">
        <g transform="matrix(1, 0, 0, 1, -15563, 1669)" filter="url(#Rectangle_8897-5)">
          <rect id="Rectangle_8897-11" data-name="Rectangle 8897" width="274" height="81" rx="21" transform="translate(411 868)" fill="#faf7ff"/>
        </g>
        <text id="Probability" transform="translate(-15015 2589)" fill="#3e2967" font-size="35" font-family="SegoeUI, Segoe UI"><tspan x="-82.732" y="0">Probability</tspan></text>
      </g>
      <g id="Group_16359-6" data-name="Group 16359" transform="translate(15745 -2427)">
        <g transform="matrix(1, 0, 0, 1, -15855, 1669)" filter="url(#Rectangle_8897-6)">
          <rect id="Rectangle_8897-12" data-name="Rectangle 8897" width="274" height="81" rx="21" transform="translate(703 868)" fill="#faf7ff"/>
        </g>
        <text id="Personal" transform="translate(-15015 2589)" fill="#3e2967" font-size="35" font-family="SegoeUI, Segoe UI"><tspan x="-65.112" y="0">Personal</tspan></text>
      </g>
    </g>
    <g id="Group_16365" data-name="Group 16365" transform="translate(9 29)">
      <g id="Group_16363" data-name="Group 16363">
        <g id="Group_16358" data-name="Group 16358" transform="translate(-3 -34)">
          <g transform="matrix(1, 0, 0, 1, -15263, 1819)" filter="url(#Path_13191)">
            <path id="Path_13191-3" data-name="Path 13191" d="M18,0H417c9.941,0,18,7.493,18,16.736V261.264c0,9.243-8.059,16.736-18,16.736H18c-9.941,0-18-7.493-18-16.736V16.736C0,7.493,8.059,0,18,0Z" transform="translate(97 293)" fill="#f7f3fd"/>
          </g>
          <path id="Rectangle_8896" data-name="Rectangle 8896" d="M18,0H417a18,18,0,0,1,18,18v91a0,0,0,0,1,0,0H0a0,0,0,0,1,0,0V18A18,18,0,0,1,18,0Z" transform="translate(-14731 2390) rotate(180)" fill="#fefefe"/>
        </g>
        <text id="Strategic" transform="translate(-15011 2279)" fill="#3e2967" font-size="31" font-family="SegoeUI, Segoe UI"><tspan x="0" y="33">Strategic</tspan></text>
        <g id="Group_16373" data-name="Group 16373" transform="translate(18)">
          <g id="Group_16362" data-name="Group 16362" transform="translate(0.809 1)">
            <text id="Left" transform="translate(-14925 2187)" fill="#3e2967" font-size="50" font-family="SegoeUI-Bold, Segoe UI" font-weight="700"><tspan x="0" y="0">Left</tspan></text>
          </g>
          <g id="Group_16372" data-name="Group 16372" transform="translate(-15106 2129)">
            <g id="Group_16367" data-name="Group 16367" transform="translate(0 0)" clip-path="url(#clip-path-2)">
              <g id="Group_16369" data-name="Group 16369">
                <path id="Path_13196" data-name="Path 13196" d="M109,.429A35.29,35.29,0,0,0,74.884,26.72H39.048V13.654l-19.1,11.019L.857,35.7l19.1,11.019,19.1,11.027V44.68H74.884A35.276,35.276,0,1,0,109,.429Z" transform="translate(5.594 2.804)" fill="none" stroke="#000" stroke-miterlimit="10" stroke-width="4"/>
                <path id="Path_13197" data-name="Path 13197" d="M14.248,32.561V2.762h6.067V27.5H35.4v5.058Z" transform="translate(92.997 18.03)"/>
              </g>
            </g>
          </g>
        </g>
      </g>
      <g id="Group_16364" data-name="Group 16364" transform="translate(467)">
        <g id="Group_16358-2" data-name="Group 16358" transform="translate(-3 -34)">
          <g transform="matrix(1, 0, 0, 1, -15730, 1819)" filter="url(#Path_13191-2)">
            <path id="Path_13191-4" data-name="Path 13191" d="M18,0H417c9.941,0,18,7.493,18,16.736V261.264c0,9.243-8.059,16.736-18,16.736H18c-9.941,0-18-7.493-18-16.736V16.736C0,7.493,8.059,0,18,0Z" transform="translate(564 293)" fill="#f7f3fd"/>
          </g>
          <path id="Rectangle_8896-2" data-name="Rectangle 8896" d="M18,0H417a18,18,0,0,1,18,18v91a0,0,0,0,1,0,0H0a0,0,0,0,1,0,0V18A18,18,0,0,1,18,0Z" transform="translate(-14731 2390) rotate(180)" fill="#fefefe"/>
          <g id="Group_16377" data-name="Group 16377" transform="translate(-490 -3926)">
            <g id="Group_16362-2" data-name="Group 16362" transform="translate(498.809 3959.738)">
              <text id="Right" transform="translate(-14925 2187)" fill="#3e2967" font-size="50" font-family="SegoeUI-Bold, Segoe UI" font-weight="700"><tspan x="0" y="0">Right</tspan></text>
            </g>
            <g id="Group_16371" data-name="Group 16371" transform="translate(-14623 6095)">
              <g id="Group_16370" data-name="Group 16370" transform="translate(6 -6)" clip-path="url(#clip-path-2)">
                <path id="Path_13198" data-name="Path 13198" d="M35.7.429A35.29,35.29,0,0,1,69.819,26.72h35.835V13.661l19.1,11.019,19.1,11.019-19.1,11.027-19.1,11.019V44.687H69.819A35.276,35.276,0,1,1,35.7.429Z" transform="translate(2.8 2.799)" fill="none" stroke="#000" stroke-miterlimit="10" stroke-width="4"/>
                <path id="Path_13199" data-name="Path 13199" d="M9.706,15.773h4.486a22.825,22.825,0,0,0,5.449-.376,3.193,3.193,0,0,0,1.7-1.272,3.908,3.908,0,0,0,.617-2.251,3.582,3.582,0,0,0-.813-2.446,3.7,3.7,0,0,0-2.281-1.182c-.489-.06-1.965-.1-4.426-.1H9.706ZM3.639,33.107V3.06H16.4a21.785,21.785,0,0,1,7,.813A6.89,6.89,0,0,1,26.9,6.748a8.7,8.7,0,0,1,1.317,4.734,8.05,8.05,0,0,1-1.987,5.585,9.553,9.553,0,0,1-5.946,2.777,14.349,14.349,0,0,1,3.252,2.522,35.236,35.236,0,0,1,3.455,4.877l3.666,5.863H23.4l-4.381-6.541a42.033,42.033,0,0,0-3.2-4.411A4.714,4.714,0,0,0,14,20.9a10.028,10.028,0,0,0-3.056-.339H9.706V33.107Z" transform="translate(23.751 19.971)"/>
              </g>
            </g>
          </g>
        </g>
        <text id="Receptive" transform="translate(-15022 2279)" fill="#3e2967" font-size="31" font-family="SegoeUI, Segoe UI"><tspan x="0" y="33">Receptive</tspan></text>
      </g>
    </g>
    <text id="Motivation_is_steered_by_each_of_the_12_Trajectories._" data-name="Motivation is steered by each of the 12 Trajectories.
" transform="translate(-15051 2838)" fill="#3e2967" font-size="30" font-family="SegoeUI, Segoe UI"><tspan x="2.288" y="32">Motivation is steered by each of the 12 Trajectories.</tspan></text>
  </g>
</svg>
