<svg id="Icon_Calendar" data-name="Icon Calendar" xmlns="http://www.w3.org/2000/svg" width="40" height="40" viewBox="0 0 40 40">
  <g id="Icon_feather-calendar" data-name="Icon feather-calendar" transform="translate(7.158 5.047)">
    <path id="Path_616" data-name="Path 616" d="M7.405,6H27.744a2.905,2.905,0,0,1,2.905,2.905V29.244a2.905,2.905,0,0,1-2.905,2.905H7.405A2.905,2.905,0,0,1,4.5,29.244V8.905A2.905,2.905,0,0,1,7.405,6Z" transform="translate(-4.5 -3.095)" fill="none" stroke="#707070" stroke-linecap="round" stroke-linejoin="round" stroke-width="2"/>
    <path id="Path_617" data-name="Path 617" d="M24,3V8.811" transform="translate(-5.114 -3)" fill="none" stroke="#707070" stroke-linecap="round" stroke-linejoin="round" stroke-width="2"/>
    <path id="Path_618" data-name="Path 618" d="M12,3V8.811" transform="translate(-4.736 -3)" fill="none" stroke="#707070" stroke-linecap="round" stroke-linejoin="round" stroke-width="2"/>
    <path id="Path_619" data-name="Path 619" d="M4.5,15H30.649" transform="translate(-4.5 -3.378)" fill="none" stroke="#707070" stroke-linecap="round" stroke-linejoin="round" stroke-width="2"/>
  </g>
  <g id="Group_2026" data-name="Group 2026" transform="translate(-1194 -24)">
    <g id="Rectangle_2776" data-name="Rectangle 2776" transform="translate(1194 24)" fill="none" stroke="#707070" stroke-width="1.8">
      <rect width="40" height="40" rx="7" stroke="none"/>
      <rect x="0.9" y="0.9" width="38.2" height="38.2" rx="6.1" fill="none"/>
    </g>
  </g>
</svg>
