<svg xmlns="http://www.w3.org/2000/svg" width="92.202" height="92.198" viewBox="0 0 92.202 92.198"><g transform="translate(5.18 5.179)"><path d="M40.247,32.324l-11.764-5.9a1.537,1.537,0,0,0-2.052,2.052l5.9,11.764" transform="translate(-26.277 -26.273)" fill="#e3e7f2"/><path d="M415.216,40.243l5.9-11.764a1.537,1.537,0,0,0-2.052-2.052l-11.764,5.9" transform="translate(-339.429 -26.273)" fill="#e3e7f2"/><path d="M40.247,415.212l-11.764,5.9a1.537,1.537,0,0,1-2.052-2.052l5.9-11.764" transform="translate(-26.277 -339.425)" fill="#e3e7f2"/><path d="M415.216,407.293l5.9,11.765a1.537,1.537,0,0,1-2.052,2.052l-11.764-5.9" transform="translate(-339.429 -339.425)" fill="#e3e7f2"/></g><path d="M96.693,52.61A44.079,44.079,0,1,1,52.614,8.531,44.079,44.079,0,0,1,96.693,52.61Zm0,0" transform="translate(-6.515 -6.512)" fill="#f7f8f9"/><path d="M101.706,135.141a33.44,33.44,0,1,1,33.44-33.44A33.439,33.439,0,0,1,101.706,135.141Zm0-63.839a30.4,30.4,0,1,0,30.4,30.4A30.4,30.4,0,0,0,101.706,71.3Zm0,0" transform="translate(-55.607 -55.604)" fill="#7f8c8d"/><path d="M17.486,94.657l-5.639,11.248a1.537,1.537,0,0,0,2.052,2.052l2.373-1.188a1.49,1.49,0,0,1,.135-.863l5.639-11.248a46.608,46.608,0,0,1,0-54.932L16.407,28.478a1.49,1.49,0,0,1-.135-.863L13.9,26.426a1.537,1.537,0,0,0-2.052,2.052l5.639,11.247A46.61,46.61,0,0,0,17.486,94.657Zm0,0" transform="translate(-6.514 -21.094)" fill="#fff"/><path d="M3.631,272.48A43.9,43.9,0,0,0,9.1,290.594a47.352,47.352,0,0,0,6.764,8.9,46.411,46.411,0,0,0,8.841,6.84,45.191,45.191,0,0,0,10.31,4.3,47.033,47.033,0,0,0,11.071,1.47v3.04a49.986,49.986,0,0,1-11.869-1.576,48.232,48.232,0,0,1-11.051-4.61,49.392,49.392,0,0,1-9.469-7.325A50.472,50.472,0,0,1,6.454,292.1,46.989,46.989,0,0,1,.6,272.687Zm0,0" transform="translate(0.008 -223.446)" fill="#fff"/><path d="M16.1,334.174a1.492,1.492,0,0,0,.584-.1,1.632,1.632,0,0,0,.841-.8,1.494,1.494,0,0,0,.015-1.123,1.528,1.528,0,0,0-.728-.856l-.269-.1a1.177,1.177,0,0,0-.3-.046,1.044,1.044,0,0,0-.287,0,2.536,2.536,0,0,0-.3.064,1.581,1.581,0,0,0-.893.76,1.633,1.633,0,0,0-.152.594,1.487,1.487,0,0,0,1.5,1.6Zm0,0" transform="translate(-11.5 -271.66)" fill="#a89dbd"/><path d="M.107,48.745c.212,1.57.321,3.158.588,4.721v.05a.773.773,0,0,0,.028.074c.08.456.17.912.287,1.368a1.486,1.486,0,0,0,1.8,1.175,1.559,1.559,0,0,0,1.172-1.657l2.958-.515a1.52,1.52,0,0,0-.527-2.995l-2.935.517c-.118-.979-.205-1.964-.341-2.941-.067-.965-.1-1.952-.1-2.941a42.62,42.62,0,0,1,.417-5.887l2.959.522a1.619,1.619,0,0,0,.266.022,1.52,1.52,0,0,0,.262-3.017L3.98,36.719A42.322,42.322,0,0,1,8.017,25.658l2.6,1.5a1.52,1.52,0,1,0,1.52-2.633L9.55,23.03a42.84,42.84,0,0,1,7.567-9.015l1.921,2.291a1.52,1.52,0,0,0,2.324-1.954l-1.918-2.28a42.544,42.544,0,0,1,10.184-5.9l1.028,2.821a1.52,1.52,0,0,0,1.427,1A1.473,1.473,0,0,0,32.6,9.9a1.52,1.52,0,0,0,.912-1.947L32.482,5.12a42.364,42.364,0,0,1,11.6-2.039v3a1.52,1.52,0,1,0,3.041,0v-3a42.365,42.365,0,0,1,11.6,2.039L57.688,7.946A1.52,1.52,0,0,0,58.6,9.893a1.473,1.473,0,0,0,.52.093,1.521,1.521,0,0,0,1.428-1l1.027-2.821a42.535,42.535,0,0,1,10.184,5.9l-1.918,2.28a1.521,1.521,0,0,0,2.33,1.955l1.921-2.291a42.858,42.858,0,0,1,7.567,9.015l-2.584,1.5a1.52,1.52,0,1,0,1.52,2.633l2.6-1.5a42.281,42.281,0,0,1,4.037,11.061l-2.964.523a1.52,1.52,0,0,0,.262,3.018,1.547,1.547,0,0,0,.266-.023l2.959-.521a41.766,41.766,0,0,1,0,11.773l-2.959-.521A1.52,1.52,0,0,0,83.1,52.979c.186.511,1.165.977,1.165.977l1.668.294,1.3.229a42.277,42.277,0,0,1-4.037,11.06l-2.6-1.5a1.52,1.52,0,1,0-1.52,2.633l2.584,1.5a42.854,42.854,0,0,1-7.567,9.015l-1.921-2.291a1.521,1.521,0,0,0-2.33,1.954l1.918,2.28a42.488,42.488,0,0,1-10.184,5.9l-1.027-2.821a1.52,1.52,0,0,0-2.856,1.04l1.029,2.826a42.337,42.337,0,0,1-11.6,2.052v-3a1.52,1.52,0,0,0-3.041,0V88.09a45.276,45.276,0,0,1-9.559-1.4c-.681-.194-1.354-.416-2.026-.638l1.017-2.794a1.52,1.52,0,0,0-2.856-1.04L29.64,85.012a41.549,41.549,0,0,1-5.429-2.627,48.132,48.132,0,0,1-4.754-3.258l1.911-2.28a1.521,1.521,0,1,0-2.33-1.954l-1.913,2.28c-.594-.529-1.183-1.064-1.75-1.63a47.514,47.514,0,0,1-5.812-7.382l2.583-1.49a1.52,1.52,0,1,0-1.52-2.633L8.041,65.53l-.1-.188A1.555,1.555,0,0,0,5.9,64.7a1.5,1.5,0,0,0-.649,2.058l.72,1.4c.045.076.1.152.14.222V68.4c.009.015.023.028.032.042a50.478,50.478,0,0,0,2.823,4.235l-5.5,10.975a3.064,3.064,0,0,0,2.736,4.4,3.11,3.11,0,0,0,1.368-.321l10.964-5.493c1.339.989,2.716,1.931,4.146,2.786a45.342,45.342,0,0,0,7.1,3.3,1.476,1.476,0,0,0,.224.137,1.434,1.434,0,0,0,.261.047c1.145.41,2.3.8,3.466,1.128A49.984,49.984,0,0,0,45.6,91.2a45.356,45.356,0,0,0,27.1-8.954l10.944,5.486a3.059,3.059,0,0,0,4.087-4.1L82.262,72.7a45.451,45.451,0,0,0,2.746-4.175,1.25,1.25,0,0,0,.081-.126c.02-.033.02-.072.037-.105a45.307,45.307,0,0,0,5.362-14.727c0-.018.015-.032.018-.05a.247.247,0,0,0,0-.045,44.958,44.958,0,0,0,0-15.744v-.045c0-.015-.014-.029-.017-.045a45.3,45.3,0,0,0-5.37-14.733c-.017-.033-.017-.072-.037-.105s-.05-.05-.071-.081A45.491,45.491,0,0,0,82.239,18.5L87.726,7.557a3.057,3.057,0,0,0-4.1-4.078L72.693,8.958a45.494,45.494,0,0,0-54.206,0L7.555,3.471a3.057,3.057,0,0,0-4.079,4.1L8.955,18.5A45.756,45.756,0,0,0,6.182,22.72c-.021.032-.053.049-.071.082s-.02.072-.037.105A45.292,45.292,0,0,0,.71,37.64c0,.015-.013.028-.017.045a.246.246,0,0,0,0,.045A45.591,45.591,0,0,0,0,45.6c0,1.064.035,2.117.106,3.144ZM6.187,85,11.051,75.3c.7.818,1.412,1.616,2.16,2.388.861.857,1.766,1.672,2.69,2.455Zm78.8.012L75.3,80.153a45.959,45.959,0,0,0,4.841-4.841ZM85,6.207,80.147,15.9a46.253,46.253,0,0,0-4.836-4.842ZM6.2,6.2l9.687,4.864a46.013,46.013,0,0,0-4.841,4.834Zm0,0" transform="translate(0.5 0.496)" fill="#6e5898"/><path d="M45.645,91.7h-.051a50.535,50.535,0,0,1-11.988-1.588l-.012,0c-1.055-.3-2.15-.656-3.441-1.118a1.917,1.917,0,0,1-.283-.056l-.045-.013-.042-.021a1.984,1.984,0,0,1-.236-.138,45.973,45.973,0,0,1-7.115-3.312l-.008,0c-1.264-.756-2.555-1.618-3.939-2.631L7.794,88.173a3.635,3.635,0,0,1-1.59.374H6.2a3.564,3.564,0,0,1-3.182-5.117l0-.006,5.365-10.7c-.944-1.29-1.836-2.635-2.652-4a.621.621,0,0,1-.049-.071l-.069-.118v-.011c-.023-.036-.048-.075-.071-.115l-.013-.024-.717-1.392a2,2,0,0,1,.869-2.74,2.054,2.054,0,0,1,2.537.6l2.157-1.245a2.02,2.02,0,1,1,2.016,3.5l-2.125,1.225a47.126,47.126,0,0,0,5.463,6.861c.448.447.9.868,1.342,1.264l1.582-1.885a2.021,2.021,0,0,1,3.1,2.6l-1.575,1.88a47.849,47.849,0,0,0,4.29,2.906,41.192,41.192,0,0,0,4.882,2.4l.842-2.316a2.02,2.02,0,0,1,3.8,1.382l0,.009-.84,2.309c.5.163,1,.325,1.511.469a44.865,44.865,0,0,0,8.928,1.36V85.121a2.02,2.02,0,1,1,4.041,0V87.6a41.825,41.825,0,0,0,10.452-1.849l-.854-2.346a2.02,2.02,0,0,1,3.8-1.382l0,.009.848,2.33a41.983,41.983,0,0,0,9.175-5.316l-1.583-1.881a2.021,2.021,0,1,1,3.1-2.6l1.586,1.891a42.355,42.355,0,0,0,6.817-8.122L78.824,67.1a2.02,2.02,0,1,1,2.023-3.5l2.144,1.238a41.762,41.762,0,0,0,3.637-9.965l-2.517-.444-.061-.029c-.194-.093-1.176-.588-1.42-1.257a2.019,2.019,0,0,1,2.249-2.68l2.447.431a41.247,41.247,0,0,0,0-10.608l-2.447.431a2.053,2.053,0,0,1-.353.031,2.02,2.02,0,0,1-.348-4.01l2.45-.432a41.771,41.771,0,0,0-3.637-9.966l-2.147,1.24a2.02,2.02,0,1,1-2.018-3.5l2.13-1.232a42.361,42.361,0,0,0-6.817-8.122l-1.586,1.891a2.021,2.021,0,0,1-3.1-2.6l1.583-1.882a42.027,42.027,0,0,0-9.175-5.316l-.848,2.331a2.028,2.028,0,0,1-1.9,1.329h-.006a1.966,1.966,0,0,1-.688-.124,2.02,2.02,0,0,1-1.207-2.587l.851-2.336A41.857,41.857,0,0,0,47.62,3.6V6.082a2.02,2.02,0,1,1-4.041,0V3.6A41.855,41.855,0,0,0,33.13,5.439l.854,2.342a2.02,2.02,0,0,1-1.212,2.588,1.96,1.96,0,0,1-.684.123h-.008a2.026,2.026,0,0,1-1.895-1.33l-.849-2.33a42.036,42.036,0,0,0-9.174,5.316l1.6,1.9a2.02,2.02,0,0,1-3.088,2.6l-.015-.018-1.586-1.891a42.341,42.341,0,0,0-6.817,8.123l2.133,1.234a2.02,2.02,0,1,1-2.023,3.5L8.217,26.352A41.807,41.807,0,0,0,4.58,36.317l2.45.432a2.02,2.02,0,0,1-.348,4.009,2.123,2.123,0,0,1-.348-.029L3.883,40.3a42.292,42.292,0,0,0-.343,5.3c0,.973.033,1.945.1,2.889.083.6.149,1.215.213,1.806.021.2.043.4.066.6l2.412-.425a2.02,2.02,0,0,1,.7,3.979L4.475,54.9a2.045,2.045,0,0,1-1.539,1.72l-.007,0A1.986,1.986,0,0,1,.522,55.068c-.1-.391-.188-.806-.282-1.337a.554.554,0,0,1-.045-.215v-.008c-.161-.949-.265-1.915-.367-2.85-.066-.607-.134-1.235-.217-1.847l0-.032C-.463,47.756-.5,46.687-.5,45.6a46.228,46.228,0,0,1,.692-7.909A.583.583,0,0,1,.2,37.6l0-.02A.546.546,0,0,1,.226,37.5,45.656,45.656,0,0,1,5.616,22.7a.69.69,0,0,1,.056-.137.637.637,0,0,1,.106-.142,46.474,46.474,0,0,1,2.593-3.97L3.028,7.8A3.556,3.556,0,0,1,7.774,3.022l0,0,10.659,5.35A45.93,45.93,0,0,1,45.591-.5h0a45.928,45.928,0,0,1,27.152,8.87L83.4,3.032a3.575,3.575,0,0,1,1.579-.37,3.557,3.557,0,0,1,3.2,5.115l0,.005-5.35,10.671a46.2,46.2,0,0,1,2.593,3.97.648.648,0,0,1,.164.283A45.661,45.661,0,0,1,90.972,37.5a.534.534,0,0,1,.034.188h0a45.319,45.319,0,0,1,0,15.826.6.6,0,0,1-.007.083l0,.019a.548.548,0,0,1-.025.088,45.67,45.67,0,0,1-5.387,14.8.662.662,0,0,1-.063.151,1.713,1.713,0,0,1-.094.149,46.175,46.175,0,0,1-2.583,3.954L88.18,83.411A3.567,3.567,0,0,1,85,88.55a3.6,3.6,0,0,1-1.575-.369l-10.673-5.35A45.855,45.855,0,0,1,45.645,91.7Zm-.043-1h.043A45.153,45.153,0,0,0,72.4,81.846l.247-.184L83.87,87.286A2.585,2.585,0,0,0,85,87.55a2.567,2.567,0,0,0,2.285-3.7l-5.607-11.2.183-.247a45.126,45.126,0,0,0,2.716-4.13l.027-.042c.011-.016.021-.031.031-.045a.668.668,0,0,1,.045-.116l.014-.026a44.678,44.678,0,0,0,5.3-14.548.544.544,0,0,1,.013-.068h0l.008-.043a44.322,44.322,0,0,0,0-15.569l-.008-.049c0-.012-.006-.025-.009-.039a44.673,44.673,0,0,0-5.311-14.573l-.014-.026A.3.3,0,0,0,84.6,23l-.019-.031A45.172,45.172,0,0,0,81.837,18.8l-.183-.247L87.277,7.335a2.556,2.556,0,0,0-3.434-3.408l-11.2,5.616L72.4,9.36a44.994,44.994,0,0,0-53.61,0l-.247.183L7.333,3.919a2.557,2.557,0,0,0-3.41,3.433l5.616,11.2-.183.247a45.434,45.434,0,0,0-2.742,4.173l-.013.022a.642.642,0,0,1-.048.065.668.668,0,0,1-.031.073l-.014.026a44.66,44.66,0,0,0-5.3,14.554.534.534,0,0,1-.012.061v0l-.008.043A45.22,45.22,0,0,0,.5,45.6c0,1.056.035,2.1.1,3.092.083.619.151,1.247.217,1.855.1.934.206,1.9.366,2.832l.007.043c0,.015.01.03.014.047l.007.032c.094.537.18.947.279,1.329l.008.034a.988.988,0,0,0,1.194.78,1.053,1.053,0,0,0,.792-1.125l-.043-.46,3.413-.594a1.02,1.02,0,0,0-.355-2.01l-3.455.609-.063-.524c-.046-.38-.087-.765-.128-1.138-.064-.59-.13-1.2-.212-1.794l0-.034c-.067-.972-.1-1.973-.1-2.976a43.275,43.275,0,0,1,.422-5.957l.072-.513,3.469.612a1.109,1.109,0,0,0,.179.015,1.02,1.02,0,0,0,.175-2.024l-3.475-.613.108-.507A42.812,42.812,0,0,1,7.575,25.423l.243-.457,3.046,1.759a1.02,1.02,0,1,0,1.022-1.765L8.851,23.2l.276-.439a43.337,43.337,0,0,1,7.655-9.121l.385-.348,2.246,2.678a1.02,1.02,0,0,0,1.558-1.311L18.728,12l.408-.319a43.037,43.037,0,0,1,10.3-5.97l.481-.2L31.125,8.82a1.024,1.024,0,0,0,.958.672l.005.5v-.5a.971.971,0,0,0,.34-.062,1.02,1.02,0,0,0,.616-1.308L31.835,4.8l.493-.16A42.856,42.856,0,0,1,44.062,2.581l.517-.018V6.082a1.02,1.02,0,1,0,2.041,0V2.563l.517.018A42.856,42.856,0,0,1,58.872,4.644l.493.16L58.158,8.117a1.02,1.02,0,0,0,.612,1.306.977.977,0,0,0,.344.063h.005a1.024,1.024,0,0,0,.958-.671l1.2-3.309.481.2a43.029,43.029,0,0,1,10.3,5.97l.408.319-2.252,2.677a1.021,1.021,0,0,0,1.565,1.312l2.254-2.689.385.348a43.359,43.359,0,0,1,7.655,9.121l.276.439-3.033,1.755a1.02,1.02,0,1,0,1.017,1.769L83.39,24.96l.243.457a42.775,42.775,0,0,1,4.085,11.192l.108.507-3.474.613a1.02,1.02,0,0,0,.175,2.025,1.045,1.045,0,0,0,.179-.016l3.467-.611.073.512a42.252,42.252,0,0,1,0,11.914l-.073.512-3.468-.611a1.02,1.02,0,0,0-1.136,1.354,2.2,2.2,0,0,0,.852.668l3.4.6-.108.507a42.765,42.765,0,0,1-4.085,11.191l-.243.457-3.045-1.759a1.02,1.02,0,1,0-1.023,1.765l3.036,1.758-.276.439a43.351,43.351,0,0,1-7.655,9.12l-.385.348-2.254-2.688a1.021,1.021,0,0,0-1.564,1.312L72.475,79.2l-.408.319a42.983,42.983,0,0,1-10.3,5.97l-.481.2-1.2-3.3a1.027,1.027,0,0,0-.95-.649,1.021,1.021,0,0,0-.966,1.346l1.2,3.307-.492.16a42.827,42.827,0,0,1-11.737,2.076l-.518.018v-3.52a1.02,1.02,0,1,0-2.041,0v3.488l-.519-.02A45.861,45.861,0,0,1,34.4,87.174l-.012,0c-.7-.2-1.382-.425-2.046-.644l-.489-.162,1.191-3.273a1.02,1.02,0,0,0-1.916-.7l-1.19,3.273-.479-.19a42.193,42.193,0,0,1-5.495-2.658l-.008,0a48.819,48.819,0,0,1-4.8-3.292l-.41-.318,2.244-2.678a1.021,1.021,0,1,0-1.564-1.312l-2.244,2.674-.385-.342c-.539-.479-1.17-1.05-1.771-1.649l-.007-.007A48.12,48.12,0,0,1,9.14,68.43l-.281-.441,3.036-1.751a1.02,1.02,0,1,0-1.017-1.768l-3.04,1.754L7.5,65.579a1.057,1.057,0,0,0-.921-.539,1.043,1.043,0,0,0-.46.107,1,1,0,0,0-.43,1.368l.006.011.713,1.384c.021.036.046.073.071.113l.055.086.076.121v.015c.846,1.414,1.773,2.8,2.756,4.129l.183.247L3.915,83.869A2.564,2.564,0,0,0,6.2,87.547a2.626,2.626,0,0,0,1.146-.269l11.235-5.629.247.182c1.451,1.072,2.793,1.974,4.1,2.757a44.973,44.973,0,0,0,7.018,3.26l.069.025.059.044a.3.3,0,0,0,.23.087l.065.006.061.022c1.292.463,2.381.818,3.428,1.116A49.534,49.534,0,0,0,45.6,90.7Zm40.506-4.572-11.7-5.865.569-.49a45.6,45.6,0,0,0,4.789-4.789l.49-.569Zm-9.916-6.09,7.679,3.85L80.03,76.2A46.672,46.672,0,0,1,76.192,80.039ZM5.066,86.115,10.943,74.4l.489.575c.738.867,1.436,1.639,2.135,2.361.79.786,1.659,1.579,2.657,2.424l.578.49Zm6.1-9.919L7.307,83.878,15,80.034c-.785-.683-1.491-1.338-2.146-1.989l-.006-.007C12.294,77.462,11.737,76.856,11.162,76.2Zm69.1-59.407-.49-.569a45.907,45.907,0,0,0-4.784-4.79l-.568-.49L86.124,5.088ZM76.2,11.168a46.973,46.973,0,0,1,3.834,3.838l3.85-7.68Zm-65.26,5.62L5.085,5.074l11.7,5.875-.569.489a45.658,45.658,0,0,0-4.788,4.781ZM7.324,7.317,11.165,15A46.721,46.721,0,0,1,15,11.172Z" transform="translate(0.5 0.496)" fill="#6e5898"/><path d="M101.706,135.141a33.44,33.44,0,1,0-33.44-33.44A33.439,33.439,0,0,0,101.706,135.141Zm0-63.839a30.4,30.4,0,1,1-30.4,30.4A30.4,30.4,0,0,1,101.706,71.3Zm0,0" transform="translate(-55.607 -55.604)" fill="#6e5898"/><path d="M134.614,173.244a1.52,1.52,0,0,0-.035-2.149c-2.512-2.432-4.537-6.688-3.04-10.281a5.776,5.776,0,0,1,4.482-3.648,11.782,11.782,0,0,1,9.907,3.375,12.736,12.736,0,0,1,3.331,8.988V193.46a1.52,1.52,0,1,0,3.041,0V169.528a12.734,12.734,0,0,1,3.344-8.994,11.775,11.775,0,0,1,9.907-3.375,5.777,5.777,0,0,1,4.482,3.648c1.493,3.592-.532,7.848-3.04,10.281a1.52,1.52,0,1,0,2.115,2.183c3.344-3.231,5.787-8.7,3.739-13.631a8.88,8.88,0,0,0-6.724-5.472,14.81,14.81,0,0,0-12.656,4.246,14.216,14.216,0,0,0-2.687,3.918,14.2,14.2,0,0,0-2.675-3.914,14.817,14.817,0,0,0-12.655-4.245,8.878,8.878,0,0,0-6.725,5.472c-2.047,4.932.4,10.4,3.739,13.631a1.52,1.52,0,0,0,2.149-.032Zm0,0" transform="translate(-104.681 -126.082)" fill="#6e5898"/><path d="M150.78,195.48a2.023,2.023,0,0,1-2.02-2.02V169.513a12.172,12.172,0,0,0-3.194-8.627,11.28,11.28,0,0,0-9.473-3.225,5.291,5.291,0,0,0-4.088,3.331l-.006.014c-1.407,3.377.53,7.411,2.926,9.729a2.019,2.019,0,1,1-2.81,2.9c-3.457-3.348-5.989-9.03-3.854-14.178a9.378,9.378,0,0,1,7.1-5.776l.014,0a15.317,15.317,0,0,1,13.082,4.388l0,0a14.671,14.671,0,0,1,2.316,3.15,14.677,14.677,0,0,1,2.327-3.155l0,0a15.306,15.306,0,0,1,13.083-4.389l.014,0a9.38,9.38,0,0,1,7.1,5.776c2.138,5.153-.392,10.83-3.85,14.174a2.02,2.02,0,1,1-2.81-2.9c2.391-2.322,4.324-6.354,2.922-9.726l-.006-.014a5.29,5.29,0,0,0-4.088-3.331,11.274,11.274,0,0,0-9.472,3.225,12.168,12.168,0,0,0-3.206,8.633V193.46A2.023,2.023,0,0,1,150.78,195.48Zm-1.02-25.944V193.46a1.02,1.02,0,1,0,2.041,0V169.536a13.234,13.234,0,0,1,3.475-9.339l.014-.014a12.274,12.274,0,0,1,10.327-3.518l.013,0a6.293,6.293,0,0,1,4.868,3.957c1.577,3.8-.53,8.277-3.156,10.825l-.01.009a1.02,1.02,0,1,0,1.418,1.466l.011-.01c3.217-3.108,5.585-8.358,3.625-13.079l0-.007a8.434,8.434,0,0,0-6.339-5.163,14.306,14.306,0,0,0-12.219,4.1,13.682,13.682,0,0,0-2.591,3.779l-.455.983-.453-.984a13.67,13.67,0,0,0-2.579-3.774,14.314,14.314,0,0,0-12.219-4.1,8.432,8.432,0,0,0-6.339,5.162l0,.007c-1.957,4.715.411,9.967,3.625,13.08a1.019,1.019,0,1,0,1.419-1.463c-2.63-2.546-4.739-7.018-3.157-10.825a6.294,6.294,0,0,1,4.867-3.957l.014,0a12.282,12.282,0,0,1,10.328,3.518l.014.015a13.236,13.236,0,0,1,3.462,9.333Z" transform="translate(-104.681 -126.082)" fill="#6e5898"/></svg>