<svg xmlns="http://www.w3.org/2000/svg" xmlns:xlink="http://www.w3.org/1999/xlink" width="104.8" height="104.8" viewBox="0 0 104.8 104.8"><defs><clipPath id="a"><path d="M0-682.665H104.8v104.8H0Z" transform="translate(0 682.665)" fill="#6e5898"/></clipPath></defs><g clip-path="url(#a)"><g transform="translate(76.917 -0.003)"><path d="M-97.739-70.224l4.344,9.62,9.62,4.344-9.62,4.344-4.344,9.62-4.344-9.62-9.62-4.344,9.62-4.344Zm6.5,13.964-4.481-2.023-2.024-4.481-2.023,4.481-4.481,2.023,4.481,2.024,2.023,4.481,2.024-4.481Z" transform="translate(111.704 70.224)" fill="#6e5898"/></g><g transform="translate(-0.002 76.934)"><path d="M-97.739-70.224l4.344,9.62,9.62,4.344-9.62,4.344-4.344,9.62-4.344-9.62-9.62-4.344,9.62-4.344Zm6.5,13.964-4.481-2.023-2.024-4.481-2.023,4.481-4.481,2.023,4.481,2.024,2.023,4.481,2.024-4.481Z" transform="translate(111.704 70.224)" fill="#6e5898"/></g></g><g transform="translate(92.318 89.24)"><path d="M-6.93,9.211H-10V0h3.07Z" transform="translate(10 0)" fill="#6e5898"/></g><g transform="translate(89.248 92.31)"><path d="M-50.789-6.93H-60V-10h9.211Z" transform="translate(60 10)" fill="#6e5898"/></g><g clip-path="url(#a)"><g transform="translate(101.81 101.73)"><path d="M-6.93,3.07H-10V0h3.07Z" transform="translate(10 0)" fill="#6e5898"/></g><g transform="translate(101.81 83.109)"><path d="M-6.93,3.07H-10V0h3.07Z" transform="translate(10 0)" fill="#6e5898"/></g><g transform="translate(9.496 6.13)"><path d="M-6.93,9.211H-10V0h3.07Z" transform="translate(10 0)" fill="#6e5898"/></g></g><g transform="translate(6.427 9.2)"><path d="M9.211-6.93H0V-10H9.211Z" transform="translate(0 10)" fill="#6e5898"/></g><g clip-path="url(#a)"><g transform="translate(0.004 18.62)"><path d="M-6.93,3.07H-10V0h3.07Z" transform="translate(10 0)" fill="#6e5898"/></g><g transform="translate(0.004 0)"><path d="M-6.93,3.07H-10V0h3.07Z" transform="translate(10 0)" fill="#6e5898"/></g><g transform="translate(15.124 18.797)"><path d="M-115.54-173.31A21.517,21.517,0,0,1-137.032-194.8v-20.919a12.333,12.333,0,0,0-6,6.846l-.362,1.024h-9.419l.446-1.888a21.544,21.544,0,0,1,15.338-15.8v-14.569h9.211v14.143a21.46,21.46,0,0,1,16.865,14.715,9.489,9.489,0,0,0,1.166,2.512,12.338,12.338,0,0,0,6.531,4.839v-26.981h3.07v30.692l-1.766-.269a15.393,15.393,0,0,1-10.375-6.556,12.5,12.5,0,0,1-1.555-3.314A18.391,18.391,0,0,0-129.516-223.1l-1.376-.144v-13.794h-3.07v13.963l-1.226.252a18.468,18.468,0,0,0-13.639,11.9h3.3a15.417,15.417,0,0,1,9.581-8.539l1.984-.607V-194.8a18.443,18.443,0,0,0,18.422,18.422A18.443,18.443,0,0,0-97.118-194.8v-2.536l1.226-.252a18.468,18.468,0,0,0,13.639-11.9h-3.3a15.417,15.417,0,0,1-9.581,8.539l-1.984.606v-36.692h-3.07v3.087h-3.07v-6.157h9.211v35.416a12.333,12.333,0,0,0,6-6.846l.362-1.024h9.419l-.446,1.888a21.544,21.544,0,0,1-15.338,15.8v.072A21.517,21.517,0,0,1-115.54-173.31Zm0-6.141A15.369,15.369,0,0,1-130.891-194.8v-25.422l1.766.269a15.392,15.392,0,0,1,10.375,6.555,12.491,12.491,0,0,1,1.555,3.314,18.391,18.391,0,0,0,15.632,12.773l1.376.144v2.367A15.369,15.369,0,0,1-115.54-179.451Zm-12.281-37.063V-194.8a12.3,12.3,0,0,0,12.281,12.281,12.3,12.3,0,0,0,12.276-11.928,21.46,21.46,0,0,1-16.86-14.714,9.484,9.484,0,0,0-1.166-2.511A12.338,12.338,0,0,0-127.821-216.514Z" transform="translate(152.816 240.106)" fill="#6e5898"/></g></g></svg>