<svg xmlns="http://www.w3.org/2000/svg" width="89.599" height="89.58" viewBox="0 0 89.599 89.58"><g transform="translate(27.089 22.344)"><path d="M73.5,12.29a3.225,3.225,0,0,1-3.125,3.29H11V9H70.378A3.225,3.225,0,0,1,73.5,12.29Z" transform="translate(-11 -9)" fill="#6e5898"/></g><path d="M29.573,2.261a3.3,3.3,0,0,0-3.586.691L2.96,25.979a3.316,3.316,0,0,0,0,4.671L25.987,53.677a3.312,3.312,0,0,0,2.336.954,2.758,2.758,0,0,0,1.25-.263,3.248,3.248,0,0,0,2.04-3.026V5.287A3.248,3.248,0,0,0,29.573,2.261Zm-4.54,41.153-15.1-15.1,15.1-15.1Z" transform="translate(-1.997 -2.001)" fill="#6e5898"/><g transform="translate(0.009 60.653)"><path d="M64.5,21v6.579H5.125a3.294,3.294,0,0,1,0-6.579Z" transform="translate(-2 -21)" fill="#6e5898"/></g><g transform="translate(59.984 36.949)"><path d="M49.653,37.979,26.625,14.951a3.3,3.3,0,0,0-3.586-.691A3.248,3.248,0,0,0,21,17.287V63.342a3.248,3.248,0,0,0,2.04,3.026,2.758,2.758,0,0,0,1.25.263,3.312,3.312,0,0,0,2.336-.954L49.653,42.65a3.316,3.316,0,0,0,0-4.671ZM27.579,55.414v-30.2l15.1,15.1Z" transform="translate(-21 -14.001)" fill="#6e5898"/></g></svg>