<svg xmlns="http://www.w3.org/2000/svg" width="92" height="92" viewBox="0 0 92 92"><path d="M44.716,0A44.716,44.716,0,1,1,0,44.716,44.716,44.716,0,0,1,44.716,0Z" transform="translate(1.329 1.24)" fill="none"/><circle cx="32.093" cy="32.093" r="32.093" transform="translate(13.951 13.863)" fill="#ebeef6"/><circle cx="16.443" cy="16.443" r="16.443" transform="translate(29.628 29.487)" fill="none"/><path d="M46.667,34l-5.833,3.5,2.333,5.833-5.833-1.167L33.833,48l-3.5-5.833L24.5,43.333,26.833,37.5,21,34l5.833-3.5L24.5,24.667l5.833,1.167L33.833,20l3.5,5.833,5.833-1.167L40.833,30.5Z" transform="translate(12.167 12)" fill="#fff"/><path d="M4.65,0A4.65,4.65,0,1,1,0,4.65,4.65,4.65,0,0,1,4.65,0Z" transform="translate(41.184 41.516)" fill="#ebeef6"/><path d="M31,3h2.333V20.5H31Z" transform="translate(13.833 -1.833)" fill="#6d5797"/><path d="M3,31H20.5v2.333H3Z" transform="translate(-1.833 13.833)" fill="#6d5797"/><path d="M0,0H2.333V18.261H0Z" transform="translate(24.096 5.192) rotate(-26.565)" fill="#6d5797"/><path d="M0,0H2.333V18.261H0Z" transform="translate(4.135 26.202) rotate(-63.435)" fill="#6d5797"/><path d="M46,31H63.5v2.333H46Z" transform="translate(27.333 13.833)" fill="#6d5797"/><path d="M0,0H18.261V2.333H0Z" transform="translate(57.613 20.492) rotate(-63.435)" fill="#6d5797"/><path d="M0,0H18.261V2.333H0Z" transform="translate(70.452 32.281) rotate(-26.565)" fill="#6d5797"/><path d="M31,46h2.333V63.5H31Z" transform="translate(13.833 27.333)" fill="#6d5797"/><path d="M0,0H18.261V2.333H0Z" transform="translate(24.073 86.805) rotate(-63.435)" fill="#6d5797"/><path d="M0,0H18.261V2.333H0Z" transform="translate(4.132 65.775) rotate(-26.565)" fill="#6d5797"/><path d="M0,0H2.333V18.261H0Z" transform="translate(57.59 71.511) rotate(-26.565)" fill="#6d5797"/><path d="M0,0H2.333V18.261H0Z" transform="translate(70.449 59.742) rotate(-63.435)" fill="#6d5797"/><path d="M37.408,12.982a1.167,1.167,0,0,1-1.167-1.167V9.036L34.553,8.2,35.6,6.11l2.333,1.167a1.167,1.167,0,0,1,.645,1.038v1.32L40.26,8.511a1.174,1.174,0,0,1,.647-.2h2.333v2.333H41.258l-3.206,2.137a1.167,1.167,0,0,1-.644.2Z" transform="translate(17.053 -1.315)" fill="#6d5797"/><path d="M49.5,20A3.5,3.5,0,1,1,53,16.5,3.5,3.5,0,0,1,49.5,20Zm0-4.667A1.167,1.167,0,1,0,50.667,16.5,1.167,1.167,0,0,0,49.5,15.333Z" transform="translate(23.259 4.315)" fill="#6d5797"/><path d="M0,0H2.332V4.81H0Z" transform="translate(79.206 36.091) rotate(-14.064)" fill="#6d5797"/><path d="M0,0H2.332V4.81H0Z" transform="translate(83.872 34.526) rotate(-14.064)" fill="#6d5797"/><path d="M0,0H5.949V2.333H0Z" transform="matrix(0.981, -0.196, 0.196, 0.981, 80.122, 36.945)" fill="#6d5797"/><path d="M0,0H5.949V2.333H0Z" transform="matrix(0.196, -0.981, 0.981, 0.196, 83.856, 58.833)" fill="#6d5797"/><path d="M0,0H4.81V2.332H0Z" transform="translate(79.212 57.448) rotate(-75.936)" fill="#6d5797"/><path d="M49.784,53.284a.984.984,0,0,1-.117,0,1.167,1.167,0,0,1-.855-.513L47.27,50.449l-1.328,1.326-1.65-1.65,2.333-2.333a1.167,1.167,0,0,1,1.8.177l1.543,2.316,1.67-1.668L48.96,45.943l1.65-1.65,3.5,3.5a1.167,1.167,0,0,1,0,1.65l-3.5,3.5A1.167,1.167,0,0,1,49.784,53.284Z" transform="translate(23.189 22.842)" fill="#6d5797"/><path d="M37.328,59.074a1.167,1.167,0,0,1-1.131-.883l-1.167-4.667,2.263-.567.884,3.535,2.123-.531L38.611,52.6,40.7,51.553l2.333,4.667a1.167,1.167,0,0,1-.762,1.653L37.6,59.039a1.13,1.13,0,0,1-.277.035Z" transform="translate(17.207 28.259)" fill="#6d5797"/><path d="M0,0H2.333V4.81H0Z" transform="translate(35.576 81.497) rotate(-75.936)" fill="#6d5797"/><path d="M0,0H2.333V7.379H0Z" transform="matrix(0.316, -0.949, 0.949, 0.316, 32.676, 84.917)" fill="#6d5797"/><path d="M17.3,53.825l-1.65-1.65,2.494-2.494-1.346-.9-1.686,2.529-1.941-1.295,2.333-3.5a1.167,1.167,0,0,1,1.618-.323l3.5,2.333a1.167,1.167,0,0,1,.177,1.8Z" transform="translate(4.482 23.497)" fill="#6d5797"/><path d="M11.943,49.491l-1.65-1.65,3.5-3.5a1.167,1.167,0,0,1,1.65,0l2.333,2.333-1.65,1.65-1.509-1.508Z" transform="translate(-0.618 21.711)" fill="#6d5797"/><path d="M8.333,40.833H6V36.167A1.167,1.167,0,0,1,7.167,35h4.667v2.333h-3.5Z" transform="translate(-1.333 16.7)" fill="#6d5797"/><path d="M0,0H2.333V6.6H0Z" transform="translate(5.003 53.906) rotate(-45)" fill="#6d5797"/><path d="M8.333,30.251,6,30.185a3.15,3.15,0,0,1,1.483-2.45,2.664,2.664,0,0,1-.574-.722A3.082,3.082,0,0,1,7.363,23.7a3.347,3.347,0,0,1,3-1.815C12.452,22.019,13.8,24.5,14.044,25L11.956,26.04c-.365-.722-1.2-1.79-1.741-1.822-.258-.012-.575.278-.911.782-.315.467-.4.8-.337.912.233.432,1.73.77,2.869.773a1.167,1.167,0,0,1,.029,2.333h-.031c-2.64,0-3.445.8-3.5,1.232Z" transform="translate(-1.333 9.597)" fill="#6d5797"/><path d="M14.333,20.167H12v-3.5A1.167,1.167,0,0,1,13.167,15.5H15.5V13.167A1.167,1.167,0,0,1,16.667,12h3.5v2.333H17.833v2.333a1.167,1.167,0,0,1-1.167,1.167H14.333Z" transform="translate(3.818 3.818)" fill="#6d5797"/><path d="M26.577,12.816H24.243a3.96,3.96,0,0,0-1.7-3.631L23.6,7.1a6.2,6.2,0,0,1,2.979,5.711Z" transform="translate(9.417 -1.149)" fill="#6d5797"/><path d="M28.551,12.566a5.257,5.257,0,0,1-1.386-6.013L29.253,7.6l-1.044-.521,1.05.506a2.968,2.968,0,0,0,.94,3.336Z" transform="translate(11.669 -1.241)" fill="#6d5797"/><path d="M0,0H4.81V2.333H0Z" transform="translate(33.994 8.204) rotate(-14.008)" fill="#6d5797"/><path d="M48,2A46,46,0,1,0,94,48,46,46,0,0,0,48,2Zm1.533,3.105A42.647,42.647,0,0,1,67.05,9.539L60.868,21.9a28.859,28.859,0,0,0-11.334-2.958ZM68.619,58.12a22.778,22.778,0,0,0,2.3-8.587h3.067a25.859,25.859,0,0,1-2.63,9.967Zm1.227,4.043a26.235,26.235,0,0,1-7.676,7.676l-1.38-2.748a23.168,23.168,0,0,0,6.3-6.3Zm1.076-15.7a22.777,22.777,0,0,0-2.3-8.587l2.74-1.371a25.86,25.86,0,0,1,2.627,9.957ZM67.1,35.2a23.167,23.167,0,0,0-6.3-6.3l1.38-2.748a26.236,26.236,0,0,1,7.676,7.676ZM49.533,22.012a25.86,25.86,0,0,1,9.967,2.63l-1.38,2.74a22.778,22.778,0,0,0-8.587-2.3ZM46.467,5.105v13.84A28.859,28.859,0,0,0,35.132,21.9L28.95,9.539A42.647,42.647,0,0,1,46.467,5.105Zm0,16.907v3.067a22.778,22.778,0,0,0-8.587,2.3L36.5,24.641a25.86,25.86,0,0,1,9.967-2.63ZM28.9,60.8a23.167,23.167,0,0,0,6.3,6.3l-1.38,2.748a26.235,26.235,0,0,1-7.676-7.676Zm-4.26-1.3a25.86,25.86,0,0,1-2.63-9.967h3.067a22.778,22.778,0,0,0,2.3,8.587Zm.437-13.033H22.012a25.86,25.86,0,0,1,2.63-9.967l2.74,1.371a22.777,22.777,0,0,0-2.3,8.6Zm1.073-12.638a26.235,26.235,0,0,1,7.676-7.676l1.38,2.748a23.167,23.167,0,0,0-6.3,6.3ZM26.253,11l6.2,12.4a29.328,29.328,0,0,0-9.047,9.047L11,26.254A43.24,43.24,0,0,1,26.254,11ZM9.539,28.944,21.9,35.126a28.859,28.859,0,0,0-2.958,11.341H5.1A42.647,42.647,0,0,1,9.539,28.95ZM5.1,49.533h13.84A28.859,28.859,0,0,0,21.9,60.868L9.539,67.05A42.647,42.647,0,0,1,5.1,49.533ZM11,69.746l12.4-6.2a29.328,29.328,0,0,0,9.047,9.047l-6.2,12.4A43.24,43.24,0,0,1,11,69.746ZM46.467,90.9A42.647,42.647,0,0,1,28.95,86.461L35.132,74.1a28.859,28.859,0,0,0,11.334,2.958Zm0-16.907a25.859,25.859,0,0,1-9.967-2.63l1.371-2.74a22.778,22.778,0,0,0,8.6,2.3ZM28.067,48A19.933,19.933,0,1,1,48,67.933,19.933,19.933,0,0,1,28.067,48ZM59.5,71.359a25.86,25.86,0,0,1-9.967,2.63V70.922a22.778,22.778,0,0,0,8.587-2.3ZM49.533,90.9V77.055A28.859,28.859,0,0,0,60.868,74.1L67.05,86.461a42.647,42.647,0,0,1-17.517,4.434ZM69.746,85l-6.2-12.4a29.328,29.328,0,0,0,9.047-9.047l12.4,6.2A43.24,43.24,0,0,1,69.746,85Zm16.713-17.94L74.1,60.868a28.859,28.859,0,0,0,2.958-11.334h13.84A42.647,42.647,0,0,1,86.461,67.05Zm4.436-20.59H77.055A28.859,28.859,0,0,0,74.1,35.132L86.461,28.95a42.646,42.646,0,0,1,4.434,17.517ZM72.6,32.454a29.328,29.328,0,0,0-9.047-9.047l6.2-12.4A43.24,43.24,0,0,1,85,26.257Z" transform="translate(-2 -2)" fill="#6d5797"/><path d="M38.667,32.833a5.833,5.833,0,1,0-5.833,5.833,5.833,5.833,0,0,0,5.833-5.833Zm-5.833,3.5a3.5,3.5,0,1,1,3.5-3.5A3.5,3.5,0,0,1,32.833,36.333Z" transform="translate(13.167 13.167)" fill="#6d5797"/><path d="M35,48.763l3.078-5.133,5.027,1a1.167,1.167,0,0,0,1.313-1.577l-1.965-4.91,4.982-2.989a1.167,1.167,0,0,0,0-2l-4.982-2.989,1.965-4.91A1.167,1.167,0,0,0,43.1,23.685l-5.027,1-3.078-5.133a1.212,1.212,0,0,0-2,0L29.917,24.69l-5.018-1a1.166,1.166,0,0,0-1.312,1.577l1.965,4.91L20.57,33.162a1.167,1.167,0,0,0,0,2l4.982,2.989-1.965,4.911A1.167,1.167,0,0,0,24.9,44.638l5.027-1L33,48.767a1.167,1.167,0,0,0,2,0Zm-3.5-7.035a1.167,1.167,0,0,0-1-.566,1.094,1.094,0,0,0-.233.023l-3.722.743L28.078,38.1a1.167,1.167,0,0,0-.483-1.434l-4.163-2.5,4.167-2.5a1.167,1.167,0,0,0,.483-1.434L26.549,26.4l3.722.743A1.167,1.167,0,0,0,31.5,26.6L34,22.43,36.5,26.6a1.167,1.167,0,0,0,1.228.543L41.45,26.4l-1.534,3.832a1.167,1.167,0,0,0,.483,1.434l4.167,2.5-4.167,2.5a1.167,1.167,0,0,0-.483,1.434l1.534,3.832-3.717-.743a1.167,1.167,0,0,0-1.229.542L34,45.894Z" transform="translate(12.002 11.849)" fill="#6d5797"/><path d="M43.241,8.316H40.908a1.174,1.174,0,0,0-.647.2L38.574,9.635V8.316a1.167,1.167,0,0,0-.645-1.044L35.6,6.105,34.553,8.2l1.688.838v2.779a1.167,1.167,0,0,0,1.814.971l3.2-2.137h1.983Z" transform="translate(17.053 -1.316)" fill="#6d5797"/><path d="M49.5,13A3.5,3.5,0,1,0,53,16.5,3.5,3.5,0,0,0,49.5,13Zm0,4.667A1.167,1.167,0,1,1,50.667,16.5,1.167,1.167,0,0,1,49.5,17.667Z" transform="translate(23.259 4.315)" fill="#6d5797"/><path d="M54.46,29.59l-.315-1.257,2.432-.486.286,1.143,2.263-.567L57.96,23.757l-2.263.567.315,1.256-2.433.487-.286-1.143-2.263.567L52.2,30.157Z" transform="translate(28.172 10.407)" fill="#6d5797"/><path d="M0,0H5.949V2.333H0Z" transform="matrix(0.196, -0.981, 0.981, 0.196, 83.856, 58.833)" fill="#6d5797"/><path d="M0,0H4.81V2.332H0Z" transform="translate(79.212 57.448) rotate(-75.936)" fill="#6d5797"/><path d="M49.965,50.286,48.422,47.97a1.167,1.167,0,0,0-1.8-.177l-2.333,2.333,1.65,1.65,1.328-1.326,1.543,2.316a1.167,1.167,0,0,0,.854.519.984.984,0,0,0,.117,0,1.167,1.167,0,0,0,.825-.342l3.5-3.5a1.167,1.167,0,0,0,0-1.65l-3.5-3.5-1.65,1.65,2.675,2.675Z" transform="translate(23.189 22.842)" fill="#6d5797"/><path d="M38.612,52.6,40.3,55.962l-2.123.531-.884-3.535-2.263.567,1.167,4.667a1.167,1.167,0,0,0,1.137.883,1.13,1.13,0,0,0,.284-.035l4.667-1.167a1.167,1.167,0,0,0,.762-1.653l-2.333-4.667Z" transform="translate(17.207 28.259)" fill="#6d5797"/><path d="M0,0H2.333V4.81H0Z" transform="translate(35.576 81.497) rotate(-75.936)" fill="#6d5797"/><path d="M0,0H2.333V7.379H0Z" transform="matrix(0.316, -0.949, 0.949, 0.316, 32.676, 84.917)" fill="#6d5797"/><path d="M21.1,48.863l-3.4-2.269-2.252-2.252a1.167,1.167,0,0,0-1.65,0l-3.5,3.5,1.65,1.65,2.675-2.675.832.832-1.8,2.7,1.941,1.295,1.686-2.529,1.346.9-2.494,2.494,1.65,1.65,3.5-3.5a1.167,1.167,0,0,0-.177-1.8Z" transform="translate(-0.618 23.014)" fill="#6d5797"/><path d="M11.833,37.333V35H7.167A1.167,1.167,0,0,0,6,36.167v4.667H8.333v-1.85l2.675,2.675,1.65-1.65L9.983,37.333Z" transform="translate(-1.333 16.872)" fill="#6d5797"/><path d="M10.215,24.218c.544.033,1.375,1.1,1.741,1.822L14.044,25c-.249-.5-1.592-2.978-3.683-3.108a3.347,3.347,0,0,0-3,1.815,3.082,3.082,0,0,0-.454,3.309,2.664,2.664,0,0,0,.574.722A3.15,3.15,0,0,0,6,30.185l2.333.065c.055-.427.86-1.232,3.5-1.232h.031a1.167,1.167,0,0,0-.031-2.333c-1.139,0-2.639-.342-2.869-.773-.058-.109.022-.441.337-.912.338-.5.656-.793.913-.782Z" transform="translate(-1.333 9.597)" fill="#6d5797"/><path d="M17.833,16.667V14.333h2.333V12h-3.5A1.167,1.167,0,0,0,15.5,13.167V15.5H13.167A1.167,1.167,0,0,0,12,16.667v3.5h2.333V17.833h2.333A1.167,1.167,0,0,0,17.833,16.667Z" transform="translate(3.818 3.818)" fill="#6d5797"/><path d="M26.577,12.908a7.933,7.933,0,0,0-.175-1.671l1.593-.4a6.5,6.5,0,0,0,1.258,1.727l1.65-1.65a2.968,2.968,0,0,1-.941-3.335l-1.05-.506-1.044-.521a4.836,4.836,0,0,0-.414,2.017l-1.932.488A5.468,5.468,0,0,0,23.6,7.2L22.54,9.277a3.96,3.96,0,0,1,1.7,3.631Z" transform="translate(9.976 -1.241)" fill="#6d5797"/></svg>