<svg xmlns="http://www.w3.org/2000/svg" width="92" height="88.085" viewBox="0 0 92 88.085"><g transform="translate(-1438.499 -10213.507)" opacity="0.9"><path d="M90.767,43.9A5.09,5.09,0,0,0,86.31,40.4l-25-2.124a.594.594,0,0,1-.544-.388L50.3,14.1a5.091,5.091,0,0,0-4.721-3.081H45.54a5.09,5.09,0,0,0-4.714,3.156L31.082,37.292a.594.594,0,0,1-.538.4L4.689,40.295A5.16,5.16,0,0,0,1.832,49.33L20.806,65.742a.594.594,0,0,1,.212.634L15.506,91.769a5.159,5.159,0,0,0,7.71,5.51L44.688,84.3a.6.6,0,0,1,.669-.005L67.8,97.387a5.16,5.16,0,0,0,7.624-5.63L69.723,67.329a.594.594,0,0,1,.2-.637L89.31,49.386A5.09,5.09,0,0,0,90.767,43.9ZM86.31,46.026l-19.385,17.3a5.09,5.09,0,0,0-1.589,5.022l5.705,24.43a.655.655,0,0,1-.967.714L47.625,80.408a5.092,5.092,0,0,0-5.267.041L20.887,93.424a.654.654,0,0,1-.978-.7L25.42,67.33a5.091,5.091,0,0,0-1.667-5L4.778,45.924a.655.655,0,0,1,.363-1.146L31,42.172a5.091,5.091,0,0,0,4.237-3.129l9.744-23.118a.608.608,0,0,1,.6-.4h.007a.608.608,0,0,1,.6.391L56.647,39.7a5.091,5.091,0,0,0,4.285,3.063l25,2.124a.655.655,0,0,1,.381,1.141Z" transform="translate(1438.953 10202.988)" fill="#6e5898"/><path d="M45.624,10.519a5.59,5.59,0,0,1,5.141,3.386L61.243,37.711a.088.088,0,0,0,.081.058l.031,0,24.993,2.124a5.665,5.665,0,0,1,3.29,9.873l-19.4,17.321a.088.088,0,0,0-.03.095l.008.03,5.7,24.425a5.651,5.651,0,0,1-8.374,6.179l-22.467-13.1a.089.089,0,0,0-.1,0l-.026.017L23.481,97.706a5.664,5.664,0,0,1-8.465-6.049l5.518-25.42a.088.088,0,0,0-.032-.095l-.024-.02L1.506,49.713a5.664,5.664,0,0,1,3.137-9.92l25.883-2.608a.088.088,0,0,0,.08-.059l.011-.029,9.743-23.114a5.575,5.575,0,0,1,5.173-3.465ZM60.3,38.078,49.838,14.308a4.582,4.582,0,0,0-4.214-2.779h-.09a4.569,4.569,0,0,0-4.24,2.842l-9.74,23.106a1.093,1.093,0,0,1-.971.717L4.745,40.8a4.653,4.653,0,0,0-2.577,8.15l18.962,16.4a1.093,1.093,0,0,1,.382,1.145L16,91.872a4.653,4.653,0,0,0,6.954,4.969L44.415,83.875a1.1,1.1,0,0,1,1.207-.01L68.056,96.945a4.585,4.585,0,0,0,5.106-.274l.007-.005a4.568,4.568,0,0,0,1.764-4.794l-5.7-24.417a1.093,1.093,0,0,1,.364-1.151L88.968,49.01a4.57,4.57,0,0,0,1.316-4.94l0-.009A4.568,4.568,0,0,0,86.267,40.9L61.282,38.779A1.092,1.092,0,0,1,60.3,38.078ZM45.611,15.023a1.12,1.12,0,0,1,1.035.7L57.108,39.5a4.574,4.574,0,0,0,3.861,2.762l25,2.124a1.16,1.16,0,0,1,.856,1.816l0,.041-.184.165-19.382,17.3a4.573,4.573,0,0,0-1.434,4.526L71.53,92.663a1.16,1.16,0,0,1-1.714,1.266L47.37,80.841a4.586,4.586,0,0,0-4.747.035L21.151,93.852a1.16,1.16,0,0,1-1.733-1.238l5.51-25.392a4.575,4.575,0,0,0-1.5-4.5L4.452,46.307A1.16,1.16,0,0,1,5.1,44.276L30.947,41.67a4.574,4.574,0,0,0,3.82-2.819l9.74-23.108a1.117,1.117,0,0,1,1.07-.72Zm40.277,30.7.079-.071a.149.149,0,0,0-.087-.26L60.887,43.267A5.579,5.579,0,0,1,56.181,39.9L45.707,16.1a.1.1,0,0,0-.1-.066h-.058a.1.1,0,0,0-.1.067l-.01.024L35.7,39.241a5.579,5.579,0,0,1-4.655,3.436L5.2,45.282a.149.149,0,0,0-.083.261L24.086,61.951a5.58,5.58,0,0,1,1.829,5.489L20.406,92.828a.149.149,0,0,0,.222.159L42.1,80.013a5.6,5.6,0,0,1,5.786-.043L70.325,93.055a.149.149,0,0,0,.22-.162l-5.7-24.427a5.578,5.578,0,0,1,1.748-5.517Z" transform="translate(1438.953 10202.988)" fill="#6e5898"/></g></svg>