<svg xmlns="http://www.w3.org/2000/svg" xmlns:xlink="http://www.w3.org/1999/xlink" width="87.4" height="87.4" viewBox="0 0 87.4 87.4"><defs><clipPath id="a"><path d="M0-682.665H87.4v87.4H0Z" transform="translate(0 682.665)" fill="#f7f8f9"/></clipPath></defs><g clip-path="url(#a)"><g transform="translate(11.949 36.531)"><path d="M-11.626,0A1.708,1.708,0,0,1-9.919,1.707a1.708,1.708,0,0,1-1.707,1.707,1.708,1.708,0,0,1-1.707-1.707A1.708,1.708,0,0,1-11.626,0" transform="translate(13.333 0)" fill="#f7f8f9"/></g><g transform="translate(0 2.767)"><path d="M-261.543-458.386a5.077,5.077,0,0,1-2.383-.6L-284-469.542a1.731,1.731,0,0,0-1.588,0l-20.076,10.557a5.075,5.075,0,0,1-2.385.6,5.133,5.133,0,0,1-3.928-1.84,5.091,5.091,0,0,1-1.118-4.155l3.834-22.358a1.707,1.707,0,0,0-.49-1.51l-17.1-15.805a5.1,5.1,0,0,1-1.328-5.281,5.089,5.089,0,0,1,4.135-3.485l23.341-3.262a1.7,1.7,0,0,0,1.278-.933l10.035-20.342a5.087,5.087,0,0,1,4.592-2.856,5.09,5.09,0,0,1,4.593,2.855l10.041,20.343a1.7,1.7,0,0,0,1.284.934l23.447,3.259a5.093,5.093,0,0,1,4.145,3.486,5.089,5.089,0,0,1-1.3,5.25l-17.29,15.87a1.681,1.681,0,0,0-.454,1.474l3.834,22.366a5.093,5.093,0,0,1-1.119,4.154A5.134,5.134,0,0,1-261.543-458.386ZM-284.8-473.153a5.138,5.138,0,0,1,2.385.59L-262.338-462a1.7,1.7,0,0,0,.795.2,1.751,1.751,0,0,0,1.318-.626,1.641,1.641,0,0,0,.364-1.377l-3.834-22.364a5.11,5.11,0,0,1,1.474-4.534l17.289-15.868a1.658,1.658,0,0,0,.394-1.714,1.675,1.675,0,0,0-1.378-1.161l-23.446-3.259a5.117,5.117,0,0,1-3.867-2.8l-10.04-20.341a1.676,1.676,0,0,0-1.531-.952,1.673,1.673,0,0,0-1.53.951l-10.036,20.343a5.12,5.12,0,0,1-3.86,2.8l-23.339,3.261a1.671,1.671,0,0,0-1.37,1.16,1.675,1.675,0,0,0,.432,1.75l17.1,15.8a5.14,5.14,0,0,1,1.505,4.563l-3.834,22.359a1.64,1.64,0,0,0,.363,1.377,1.75,1.75,0,0,0,1.318.626,1.7,1.7,0,0,0,.8-.2l20.075-10.557A5.137,5.137,0,0,1-284.8-473.153Z" transform="translate(328.436 540.215)" fill="#fff"/></g><g transform="translate(16.49 41.628)"><path d="M-55.517-45.891a1.7,1.7,0,0,1-1.081-.387l-6.444-5.282a1.707,1.707,0,0,1-.238-2.4,1.707,1.707,0,0,1,2.4-.238l6.444,5.282a1.707,1.707,0,0,1,.238,2.4A1.7,1.7,0,0,1-55.517-45.891Z" transform="translate(63.667 54.587)" fill="#fff"/></g><g transform="translate(35.165 26.288)"><path d="M-111.465-66.667a8.545,8.545,0,0,1,8.535,8.535,8.545,8.545,0,0,1-8.535,8.535A8.545,8.545,0,0,1-120-58.131,8.545,8.545,0,0,1-111.465-66.667Zm0,13.656a5.127,5.127,0,0,0,5.121-5.121,5.127,5.127,0,0,0-5.121-5.121,5.127,5.127,0,0,0-5.121,5.121A5.127,5.127,0,0,0-111.465-53.01Z" transform="translate(120 66.667)" fill="#fff"/></g><g transform="translate(28.337 43.359)"><path d="M-197.647-126.182h-27.313a1.707,1.707,0,0,1-1.707-1.707V-131.3A15.381,15.381,0,0,1-211.3-146.666a15.269,15.269,0,0,1,10.863,4.5,15.27,15.27,0,0,1,4.5,10.864v3.414A1.707,1.707,0,0,1-197.647-126.182Zm-25.605-3.414h23.9V-131.3a11.877,11.877,0,0,0-3.5-8.45,11.876,11.876,0,0,0-8.449-3.5A11.963,11.963,0,0,0-223.252-131.3Z" transform="translate(226.666 146.666)" fill="#fff"/></g></g></svg>