<svg xmlns="http://www.w3.org/2000/svg" width="92" height="91.797" viewBox="0 0 92 91.797"><g transform="translate(1 0.454)"><g transform="translate(-1 -0.455)"><path d="M86.455,36.8,53.6,3.989a12.464,12.464,0,0,0-17.2,0L3.585,36.8a12.066,12.066,0,0,0-.04,17.124L36.359,86.82a12.265,12.265,0,0,0,17.2,0L86.376,53.927A12.018,12.018,0,0,0,86.455,36.8ZM83.628,51.139,50.814,84.033a8.442,8.442,0,0,1-11.549,0L6.372,51.1a8.075,8.075,0,0,1,0-11.469L39.186,6.817a8.522,8.522,0,0,1,11.588,0L83.588,39.631a8.077,8.077,0,0,1,.04,11.509Z" transform="translate(1 0.455)" fill="#6e5898"/><path d="M45-.455a13.51,13.51,0,0,1,9.363,3.749l.019.018,32.749,32.71a13.1,13.1,0,0,1-.084,18.691L54.336,87.5a13.369,13.369,0,0,1-18.752,0l-.008-.008L2.87,54.709A13.051,13.051,0,0,1-1,45.45a13.117,13.117,0,0,1,3.912-9.432L35.637,3.294A13.51,13.51,0,0,1,45-.455Zm7.776,5.394a11.282,11.282,0,0,0-15.552,0L4.516,37.647a10.819,10.819,0,0,0-3.23,7.787v.009A10.836,10.836,0,0,0,4.48,53.087l.005.005L37.192,85.878a11.084,11.084,0,0,0,15.537,0l32.719-32.8a10.836,10.836,0,0,0,.072-15.437Zm-7.8-1.408A9.609,9.609,0,0,1,51.533,6.1l.031.03,32.7,32.7a9.194,9.194,0,0,1,.042,13.1L51.577,84.744a9.526,9.526,0,0,1-6.538,2.585h0A9.525,9.525,0,0,1,38.5,84.744l-.027-.026L5.691,51.893a9.192,9.192,0,0,1,0-13.056L38.427,6.1A9.609,9.609,0,0,1,44.98,3.531Zm4.983,4.232a7.352,7.352,0,0,0-9.966,0l-32.7,32.7a6.826,6.826,0,0,0-2.039,4.961v.013a6.839,6.839,0,0,0,2.039,4.825l.009.009L40.079,83.089a7.273,7.273,0,0,0,9.922,0L82.705,50.3a6.835,6.835,0,0,0,2.039-4.859v-.014a6.823,6.823,0,0,0-2.073-4.961l-.014-.014Z" transform="translate(1 0.455)" fill="#67528e"/></g></g></svg>