<svg xmlns="http://www.w3.org/2000/svg" width="92" height="91.992" viewBox="0 0 92 91.992"><path d="M91.443,45.11,62.534,39.575l11.546-17a1.917,1.917,0,0,0-2.663-2.663L54.4,31.475,48.877,2.557a1.917,1.917,0,0,0-3.766,0L39.585,31.489,22.557,19.911a1.917,1.917,0,0,0-2.663,2.661L31.451,39.595,2.555,45.11a1.917,1.917,0,0,0,0,3.766l28.917,5.514L19.894,71.434A1.916,1.916,0,0,0,22.555,74.1L39.589,62.526l5.523,28.91a1.917,1.917,0,0,0,3.766,0l5.52-28.9L71.419,74.1a1.917,1.917,0,0,0,2.661-2.663L62.506,54.409l28.935-5.534a1.917,1.917,0,0,0,0-3.766ZM65.261,28.729,57.749,39.8c-.024.034-.047.066-.069.1l-1.3,1.92-1.192-6.24Zm-36.556,0,10.1,6.865-.515,2.7-2.734.522ZM13.141,46.991l24.371-4.65-.821,4.3c0,.023,0,.046,0,.069l-2.872,4.228Zm15.56,18.3,8.91-13.113,1.194,6.251ZM46.994,80.861,42.816,58.986c-.007-.041-.014-.08-.023-.122L40.526,47l1.267-6.634c.006-.026.009-.05.015-.076l5.187-27.154L53.463,47,51.181,58.941a.013.013,0,0,1,0,0ZM55.18,58.44,56.372,52.2l1.264,1.859,0,.007,7.623,11.214Zm4.977-7.485L57.48,47.018l2.708-3.988,20.7,3.961Z" transform="translate(-0.998 -1)" fill="#6e5898"/></svg>