<svg xmlns="http://www.w3.org/2000/svg" width="64" height="64" viewBox="0 0 64 64" fill="none">
  <!-- House wheel with center nodes -->
  <!-- Outer house wheel -->
  <circle cx="32" cy="32" r="27" stroke="#6E5898" stroke-width="2.5" fill="none"/>
  <!-- House division lines (12 houses) -->
  <line x1="32" y1="5" x2="32" y2="14" stroke="#6E5898" stroke-width="1.5"/>
  <line x1="45.5" y1="8.5" x2="41" y2="16" stroke="#6E5898" stroke-width="1.5"/>
  <line x1="55.5" y1="18.5" x2="48" y2="23" stroke="#6E5898" stroke-width="1.5"/>
  <line x1="59" y1="32" x2="50" y2="32" stroke="#6E5898" stroke-width="1.5"/>
  <line x1="55.5" y1="45.5" x2="48" y2="41" stroke="#6E5898" stroke-width="1.5"/>
  <line x1="45.5" y1="55.5" x2="41" y2="48" stroke="#6E5898" stroke-width="1.5"/>
  <line x1="32" y1="59" x2="32" y2="50" stroke="#6E5898" stroke-width="1.5"/>
  <line x1="18.5" y1="55.5" x2="23" y2="48" stroke="#6E5898" stroke-width="1.5"/>
  <line x1="8.5" y1="45.5" x2="16" y2="41" stroke="#6E5898" stroke-width="1.5"/>
  <line x1="5" y1="32" x2="14" y2="32" stroke="#6E5898" stroke-width="1.5"/>
  <line x1="8.5" y1="18.5" x2="16" y2="23" stroke="#6E5898" stroke-width="1.5"/>
  <line x1="18.5" y1="8.5" x2="23" y2="16" stroke="#6E5898" stroke-width="1.5"/>
  <!-- Center geometric nodes (bodygraph centers) -->
  <rect x="27" y="18" width="10" height="7" rx="2" fill="#F4F0FC" stroke="#6E5898" stroke-width="1.8"/>
  <rect x="22" y="29" width="8" height="6" rx="2" fill="#F4F0FC" stroke="#6E5898" stroke-width="1.8"/>
  <rect x="34" y="29" width="8" height="6" rx="2" fill="#F4F0FC" stroke="#6E5898" stroke-width="1.8"/>
  <rect x="27" y="39" width="10" height="7" rx="2" fill="#F4F0FC" stroke="#6E5898" stroke-width="1.8"/>
  <!-- Center dots -->
  <circle cx="32" cy="21.5" r="1.5" fill="#6E5898"/>
  <circle cx="26" cy="32" r="1.5" fill="#6E5898"/>
  <circle cx="38" cy="32" r="1.5" fill="#6E5898"/>
  <circle cx="32" cy="42.5" r="1.5" fill="#6E5898"/>
</svg>