<svg xmlns="http://www.w3.org/2000/svg" width="64" height="64" viewBox="0 0 64 64" fill="none">
  <!-- Circular arrows representing cycles -->
  <path d="M32 10 A22 22 0 0 1 54 32" stroke="#6E5898" stroke-width="2.5" fill="none" stroke-linecap="round"/>
  <path d="M54 32 A22 22 0 0 1 32 54" stroke="#6E5898" stroke-width="2.5" fill="none" stroke-linecap="round"/>
  <path d="M32 54 A22 22 0 0 1 10 32" stroke="#6E5898" stroke-width="2.5" fill="none" stroke-linecap="round"/>
  <path d="M10 32 A22 22 0 0 1 32 10" stroke="#6E5898" stroke-width="2.5" fill="none" stroke-linecap="round"/>
  <!-- Arrow heads -->
  <polygon points="32,6 36,14 28,14" fill="#6E5898"/>
  <polygon points="58,32 50,36 50,28" fill="#6E5898"/>
  <polygon points="32,58 28,50 36,50" fill="#6E5898"/>
  <polygon points="6,32 14,28 14,36" fill="#6E5898"/>
  <!-- Center dot -->
  <circle cx="32" cy="32" r="4" fill="#F4F0FC" stroke="#6E5898" stroke-width="2"/>
</svg>