<svg xmlns="http://www.w3.org/2000/svg" width="100.311" height="78.408" viewBox="0 0 100.311 78.408"><path d="M28.871,96.694c-2.209.579-5.522-1.6-6.774-5.643a8.642,8.642,0,0,1,.068-5.632,3.973,3.973,0,0,1,2.463-2.459c2.2-.581,5.522,1.594,6.764,5.641S31.07,96.114,28.871,96.694ZM37.8,86.916a15.3,15.3,0,0,0-5.611-7.934A11.3,11.3,0,0,0,22.8,77.043a10.266,10.266,0,0,0-6.871,6.22,14.205,14.205,0,0,0-.235,9.476,15.192,15.192,0,0,0,5.611,7.933,11.774,11.774,0,0,0,6.8,2.269,10.114,10.114,0,0,0,2.58-.33,10.266,10.266,0,0,0,6.871-6.22A14.2,14.2,0,0,0,37.8,86.916Zm70.4,4.136c-1.251,4.047-4.565,6.221-6.774,5.643s-3.773-4.045-2.522-8.092c1.114-3.614,3.88-5.735,6.021-5.735a2.831,2.831,0,0,1,.743.094,3.973,3.973,0,0,1,2.463,2.459A8.643,8.643,0,0,1,108.209,91.052Zm6.168-7.789a10.287,10.287,0,0,0-6.871-6.22,11.3,11.3,0,0,0-9.393,1.939,15.3,15.3,0,0,0-5.61,7.933,14.2,14.2,0,0,0,.244,9.477,10.045,10.045,0,0,0,9.452,6.55,11.773,11.773,0,0,0,6.8-2.269,15.193,15.193,0,0,0,5.61-7.933A14.205,14.205,0,0,0,114.377,83.263ZM49.26,58.237c3.03,0,6.4,4.134,6.4,10.067s-3.372,10.064-6.4,10.064S42.848,74.235,42.848,68.3,46.23,58.237,49.26,58.237Zm0,26.284a12.079,12.079,0,0,1-9.637-5.187,19.448,19.448,0,0,1,0-22.061,12.081,12.081,0,0,1,9.637-5.187,12.076,12.076,0,0,1,9.628,5.187,19.4,19.4,0,0,1,0,22.061A12.075,12.075,0,0,1,49.26,84.52ZM81.046,58.237c3.03,0,6.412,4.134,6.412,10.067s-3.382,10.064-6.412,10.064-6.4-4.134-6.4-10.064S78.016,58.237,81.046,58.237Zm0,26.284a12.075,12.075,0,0,1-9.628-5.187,19.4,19.4,0,0,1,0-22.061,11.538,11.538,0,0,1,19.265,0,19.448,19.448,0,0,1,0,22.061,12.079,12.079,0,0,1-9.637,5.187Zm4.3,37.99a6.543,6.543,0,0,1-6.715,1.453,43.519,43.519,0,0,0-26.958,0,6.543,6.543,0,0,1-6.715-1.453,7.606,7.606,0,0,1-2.434-7.268c2.336-12.927,11.856-22.309,22.628-22.309s20.282,9.383,22.628,22.309A7.606,7.606,0,0,1,85.347,122.511ZM84.33,94.845a36.15,36.15,0,0,1,10.019,19.383A13.86,13.86,0,0,1,80.87,130.493a14.332,14.332,0,0,1-4.477-.734,36.334,36.334,0,0,0-22.481,0,13.806,13.806,0,0,1-17.956-15.531A36.093,36.093,0,0,1,45.986,94.845a26.825,26.825,0,0,1,38.345,0Z" transform="translate(-14.997 -52.085)" fill="#6e5898" fill-rule="evenodd"/></svg>