<svg xmlns="http://www.w3.org/2000/svg" width="141.6" height="66.459" viewBox="0 0 141.6 66.459"><g transform="translate(0.651 -136.456)"><g transform="translate(49.173 137.106)"><path d="M13.477-7.5A20.977,20.977,0,1,1-7.5,13.477,21,21,0,0,1,13.477-7.5Zm0,37.845A16.867,16.867,0,1,0-3.39,13.477,16.886,16.886,0,0,0,13.477,30.345Z" transform="translate(7.5 7.5)" fill="#6e5898"/><path d="M13.477-8.15A21.627,21.627,0,1,1-8.15,13.477,21.652,21.652,0,0,1,13.477-8.15Zm0,41.955A20.327,20.327,0,1,0-6.85,13.477,20.35,20.35,0,0,0,13.477,33.8Zm0-37.845A17.517,17.517,0,1,1-4.04,13.477,17.537,17.537,0,0,1,13.477-4.04Zm0,33.734A16.217,16.217,0,1,0-2.74,13.477,16.235,16.235,0,0,0,13.477,29.695Z" transform="translate(7.5 7.5)" fill="#6e5898"/></g><g transform="translate(4.885 138.217)"><path d="M49.756,180.893H25.64a7.817,7.817,0,0,1-7.81-7.807V163.041a2.055,2.055,0,1,1,4.11,0v10.046a3.7,3.7,0,0,0,3.7,3.7H49.756a3.7,3.7,0,0,0,3.7-3.7V148.97a3.7,3.7,0,0,0-3.7-3.7H25.64a3.7,3.7,0,0,0-3.7,3.7v4.48a2.055,2.055,0,0,1-4.11,0v-4.48a7.818,7.818,0,0,1,7.81-7.81H49.756a7.817,7.817,0,0,1,7.807,7.81v24.117A7.816,7.816,0,0,1,49.756,180.893Z" transform="translate(-17.83 -141.16)" fill="#6e5898"/><path d="M49.756,181.543H25.64a8.468,8.468,0,0,1-8.46-8.457V163.041a2.705,2.705,0,1,1,5.41,0v10.046a3.051,3.051,0,0,0,3.049,3.047H49.756a3.05,3.05,0,0,0,3.047-3.047V148.97a3.051,3.051,0,0,0-3.047-3.049H25.64a3.053,3.053,0,0,0-3.049,3.049v4.48a2.705,2.705,0,0,1-5.41,0v-4.48a8.469,8.469,0,0,1,8.46-8.46H49.756a8.468,8.468,0,0,1,8.457,8.46v24.117A8.466,8.466,0,0,1,49.756,181.543ZM19.885,161.635a1.407,1.407,0,0,0-1.405,1.405v10.046a7.166,7.166,0,0,0,7.16,7.157H49.756a7.165,7.165,0,0,0,7.157-7.157V148.97a7.166,7.166,0,0,0-7.157-7.16H25.64a7.168,7.168,0,0,0-7.16,7.16v4.48a1.405,1.405,0,0,0,2.81,0v-4.48a4.354,4.354,0,0,1,4.349-4.349H49.756A4.353,4.353,0,0,1,54.1,148.97v24.117a4.351,4.351,0,0,1-4.347,4.347H25.64a4.353,4.353,0,0,1-4.349-4.347V163.041A1.407,1.407,0,0,0,19.885,161.635Z" transform="translate(-17.83 -141.16)" fill="#6e5898"/></g><g transform="translate(93.567 139.336)"><path d="M379.15,184.971H347.73a6.259,6.259,0,0,1-5.422-9.387l15.71-27.211a6.26,6.26,0,0,1,10.84,0l9.941,17.219a2.055,2.055,0,1,1-3.56,2.055l-9.941-17.22a2.15,2.15,0,0,0-3.722,0l-15.709,27.209a2.149,2.149,0,0,0,1.862,3.223H379.15a2.149,2.149,0,0,0,1.859-3.223l-.991-1.717a2.055,2.055,0,0,1,3.56-2.055l.992,1.718a6.259,6.259,0,0,1-5.419,9.388Z" transform="translate(-341.461 -145.245)" fill="#6e5898"/><path d="M379.15,185.621H347.73a6.909,6.909,0,0,1-5.985-10.362l15.71-27.211a6.91,6.91,0,0,1,11.966,0l9.941,17.219a2.705,2.705,0,1,1-4.686,2.705l-9.941-17.22a1.5,1.5,0,0,0-2.6,0l-15.709,27.209a1.5,1.5,0,0,0,1.3,2.247H379.15a1.5,1.5,0,0,0,1.3-2.249l-.991-1.717a2.705,2.705,0,1,1,4.685-2.705l.992,1.718a6.909,6.909,0,0,1-5.982,10.363Zm-15.708-39.726a5.563,5.563,0,0,0-4.861,2.8l-15.71,27.211a5.609,5.609,0,0,0,4.859,8.412H379.15a5.609,5.609,0,0,0,4.856-8.413l-.992-1.718a1.405,1.405,0,0,0-2.434,1.405l.991,1.717a2.8,2.8,0,0,1-2.422,4.2H347.73a2.8,2.8,0,0,1-2.425-4.2L361.014,150.1a2.8,2.8,0,0,1,4.848,0l9.941,17.22a1.405,1.405,0,1,0,2.434-1.405L368.3,148.7A5.55,5.55,0,0,0,363.442,145.895Z" transform="translate(-341.461 -145.245)" fill="#6e5898"/></g><g transform="translate(45.395 174.952)"><path d="M208.721,302.532h-6.708a2.055,2.055,0,0,1,0-4.11h6.708a2.339,2.339,0,0,0,1.843-.894A2.259,2.259,0,0,0,211,295.6a21.243,21.243,0,0,0-7.368-11.631,21.151,21.151,0,0,0-33.8,11.633,2.258,2.258,0,0,0,.437,1.928,2.339,2.339,0,0,0,1.843.894h20.305a2.055,2.055,0,1,1,0,4.11H172.117a6.427,6.427,0,0,1-5.065-2.452,6.347,6.347,0,0,1-1.216-5.423,25.265,25.265,0,0,1,49.165,0,6.347,6.347,0,0,1-1.215,5.424A6.427,6.427,0,0,1,208.721,302.532Z" transform="translate(-165.665 -275.22)" fill="#6e5898"/><path d="M208.721,303.182h-6.708a2.705,2.705,0,0,1,0-5.41h6.708a1.693,1.693,0,0,0,1.333-.647,1.613,1.613,0,0,0,.314-1.377,20.589,20.589,0,0,0-7.142-11.273,20.5,20.5,0,0,0-32.756,11.275,1.611,1.611,0,0,0,.314,1.375,1.693,1.693,0,0,0,1.333.647h20.305a2.705,2.705,0,1,1,0,5.41H172.117a7.073,7.073,0,0,1-5.575-2.7,6.993,6.993,0,0,1-1.339-5.975,25.915,25.915,0,0,1,50.43,0,7,7,0,0,1-1.338,5.977A7.073,7.073,0,0,1,208.721,303.182Zm-6.708-4.11a1.405,1.405,0,0,0,0,2.81h6.708a5.78,5.78,0,0,0,4.556-2.206,5.7,5.7,0,0,0,1.092-4.872,24.614,24.614,0,0,0-47.9,0,5.7,5.7,0,0,0,1.093,4.87,5.78,5.78,0,0,0,4.556,2.206h20.305a1.405,1.405,0,1,0,0-2.81H172.117a2.986,2.986,0,0,1-2.352-1.14,2.9,2.9,0,0,1-.56-2.48,21.8,21.8,0,0,1,42.429,0,2.906,2.906,0,0,1-.56,2.482,2.986,2.986,0,0,1-2.352,1.14Z" transform="translate(-165.665 -275.22)" fill="#6e5898"/></g><g transform="translate(-0.001 174.953)"><path d="M43.053,302.536H6.452a6.428,6.428,0,0,1-5.068-2.454,6.346,6.346,0,0,1-1.213-5.425,25.263,25.263,0,0,1,49.163,0,6.346,6.346,0,0,1-1.213,5.425A6.428,6.428,0,0,1,43.053,302.536Zm-18.3-23.2A21.058,21.058,0,0,0,4.172,295.6a2.258,2.258,0,0,0,.436,1.929,2.34,2.34,0,0,0,1.845.894h36.6a2.341,2.341,0,0,0,1.845-.894,2.259,2.259,0,0,0,.436-1.929A21.058,21.058,0,0,0,24.753,279.334Z" transform="translate(0.001 -275.224)" fill="#6e5898"/><path d="M43.053,303.186H6.452a7.075,7.075,0,0,1-5.577-2.7,6.993,6.993,0,0,1-1.336-5.977,25.913,25.913,0,0,1,50.428,0,6.993,6.993,0,0,1-1.336,5.977A7.075,7.075,0,0,1,43.053,303.186Zm-18.3-27.312A24.506,24.506,0,0,0,.8,294.807a5.7,5.7,0,0,0,1.09,4.872,5.782,5.782,0,0,0,4.558,2.207h36.6a5.782,5.782,0,0,0,4.558-2.207,5.7,5.7,0,0,0,1.09-4.872A24.506,24.506,0,0,0,24.753,275.874Zm18.3,23.2H6.452A2.987,2.987,0,0,1,4.1,297.935a2.9,2.9,0,0,1-.559-2.482,21.8,21.8,0,0,1,42.428,0,2.9,2.9,0,0,1-.559,2.482A2.987,2.987,0,0,1,43.053,299.075Zm-18.3-19.091A20.411,20.411,0,0,0,4.8,295.751a1.612,1.612,0,0,0,.313,1.377,1.694,1.694,0,0,0,1.335.648h36.6a1.694,1.694,0,0,0,1.335-.648,1.612,1.612,0,0,0,.313-1.377A20.411,20.411,0,0,0,24.753,279.984Z" transform="translate(0.001 -275.224)" fill="#6e5898"/></g><g transform="translate(90.792 174.953)"><path d="M374.387,302.536h-36.6a6.428,6.428,0,0,1-5.068-2.454,6.346,6.346,0,0,1-1.213-5.425,25.263,25.263,0,0,1,49.163,0,6.346,6.346,0,0,1-1.213,5.425A6.428,6.428,0,0,1,374.387,302.536Zm-18.3-23.2A21.058,21.058,0,0,0,335.505,295.6a2.258,2.258,0,0,0,.436,1.929,2.34,2.34,0,0,0,1.845.894h36.6a2.34,2.34,0,0,0,1.845-.894,2.258,2.258,0,0,0,.436-1.929A21.058,21.058,0,0,0,356.087,279.334Z" transform="translate(-331.333 -275.224)" fill="#6e5898"/><path d="M374.387,303.186h-36.6a7.075,7.075,0,0,1-5.577-2.7,6.992,6.992,0,0,1-1.336-5.977,25.913,25.913,0,0,1,50.428,0,6.993,6.993,0,0,1-1.336,5.977A7.075,7.075,0,0,1,374.387,303.186Zm-18.3-27.312a24.506,24.506,0,0,0-23.949,18.933,5.7,5.7,0,0,0,1.09,4.872,5.782,5.782,0,0,0,4.558,2.207h36.6a5.782,5.782,0,0,0,4.558-2.207,5.7,5.7,0,0,0,1.09-4.872A24.506,24.506,0,0,0,356.087,275.874Zm18.3,23.2h-36.6a2.987,2.987,0,0,1-2.354-1.141,2.9,2.9,0,0,1-.559-2.482,21.8,21.8,0,0,1,42.428,0,2.9,2.9,0,0,1-.559,2.482A2.987,2.987,0,0,1,374.387,299.075Zm-18.3-19.091a20.411,20.411,0,0,0-19.949,15.767,1.612,1.612,0,0,0,.313,1.377,1.694,1.694,0,0,0,1.335.648h36.6a1.694,1.694,0,0,0,1.335-.648,1.612,1.612,0,0,0,.313-1.377A20.411,20.411,0,0,0,356.087,279.984Z" transform="translate(-331.333 -275.224)" fill="#6e5898"/></g></g></svg>