<svg id="Icon_Report" data-name="Icon Report" xmlns="http://www.w3.org/2000/svg" xmlns:xlink="http://www.w3.org/1999/xlink" width="40" height="40" viewBox="0 0 40 40">
  <defs>
    <clipPath id="clip-path">
      <rect id="Rectangle_377" data-name="Rectangle 377" width="30.362" height="30" fill="#707070"/>
    </clipPath>
  </defs>
  <g id="Group_1910" data-name="Group 1910" transform="translate(14.819 5)">
    <g id="Group_1909" data-name="Group 1909" transform="translate(-10)" clip-path="url(#clip-path)">
      <path id="Path_1793" data-name="Path 1793" d="M156.064,56.7l-2.218-.787-.33-.118v-.016a1.473,1.473,0,0,0,.629-1.494l-.4-3.618a1.413,1.413,0,0,0-.763-1.164,7.215,7.215,0,0,0-1.259-.5c-.244-.079-.5-.157-.739-.252a1.521,1.521,0,0,1-.22-.173,1.716,1.716,0,0,1-.267-.614.831.831,0,0,1,.016-.2c.024-.094.126-.079.2-.063h.024l.071.016a1.807,1.807,0,0,0,.543.039.245.245,0,0,0,.2-.181.527.527,0,0,0,0-.157.243.243,0,0,1,0-.149.08.08,0,0,1,.055-.031.188.188,0,0,0,.134-.142.17.17,0,0,0-.071-.11v-.008a.233.233,0,0,0,.094-.2c-.016-.016-.1-.134-.063-.181,0,0,.283-.165.228-.291a3.783,3.783,0,0,1-.33-.378.637.637,0,0,1-.157-.307,1.108,1.108,0,0,0-.039-.48l-.11-.307a1.351,1.351,0,0,0-.338-.448,2.238,2.238,0,0,0-1.109-.385,2.9,2.9,0,0,0-1.243.181,1.588,1.588,0,0,0-.9,1.251,1.562,1.562,0,0,0,.244,1.085c.016.024.315.393.354.448.016.016.4.33.354.684,0,.016-.024.991-.59,1.156l-.212.063a6.016,6.016,0,0,0-1.683.684h-.016v.016a1.393,1.393,0,0,0-.653,1.1l-.4,3.618a1.467,1.467,0,0,0,.629,1.494v.016l-.165.055-2.391.842a1.5,1.5,0,0,0-1.03,1.683,1.44,1.44,0,0,0,1.447,1.18h.087a8.124,8.124,0,0,0,.9-.071c.33-.039.692-.087,1.133-.165.378-.063.787-.134,1.243-.212.393-.071.794-.149,1.227-.236s.763-.157,1.085-.22a2.539,2.539,0,0,1,.912.024,18.917,18.917,0,0,0,3.429.747c.094.008.181.024.267.031a2.242,2.242,0,0,0,.228.024,1.462,1.462,0,0,0,.26.031.72.72,0,0,1,.126.008,10.355,10.355,0,0,0,1.1.031h.024a1.442,1.442,0,0,0,1.463-1.164A1.494,1.494,0,0,0,156.064,56.7Z" transform="translate(-130.949 -40.539)" fill="#707070"/>
      <path id="Path_1794" data-name="Path 1794" d="M26.044,0H9.793L0,9.793v15.9A4.312,4.312,0,0,0,4.31,30H26.051a4.312,4.312,0,0,0,4.31-4.31V4.31A4.312,4.312,0,0,0,26.051,0ZM9.321,2.847V6.694A2.632,2.632,0,0,1,6.694,9.321H2.847ZM28.671,25.7a2.632,2.632,0,0,1-2.627,2.627H4.3A2.632,2.632,0,0,1,1.675,25.7V11.012H6.694A4.312,4.312,0,0,0,11,6.7V1.691H26.044a2.632,2.632,0,0,1,2.627,2.627V25.7Z" transform="translate(0 0)" fill="#707070"/>
      <path id="Path_1795" data-name="Path 1795" d="M71.714,266.3H50.6a.8.8,0,0,1,0-1.6H71.714a.8.8,0,0,1,0,1.6" transform="translate(-45.883 -243.879)" fill="#707070"/>
      <path id="Path_1796" data-name="Path 1796" d="M71.714,308.3H50.6a.8.8,0,1,1,0-1.6H71.714a.8.8,0,1,1,0,1.6" transform="translate(-45.883 -282.576)" fill="#707070"/>
    </g>
  </g>
  <g id="Rectangle_2775" data-name="Rectangle 2775" fill="none" stroke="#707070" stroke-width="1.5">
    <rect width="40" height="40" rx="7" stroke="none"/>
    <rect x="0.75" y="0.75" width="38.5" height="38.5" rx="6.25" fill="none"/>
  </g>
</svg>
