<svg id="Icon_YT_LM" data-name="Icon YT LM" xmlns="http://www.w3.org/2000/svg" width="46.755" height="46.755" viewBox="0 0 46.755 46.755">
  <g id="Group_6028" data-name="Group 6028">
    <path id="Path_4799" data-name="Path 4799" d="M0,157.136a23.378,23.378,0,1,1,23.378,23.378A23.378,23.378,0,0,1,0,157.136" transform="translate(0 -133.758)" fill="#383838"/>
  </g>
  <g id="Group_6033" data-name="Group 6033" transform="translate(10.801 14.898)">
    <path id="Path_4805" data-name="Path 4805" d="M47.184,169.977h-16.7a4.227,4.227,0,0,0-4.227,4.227v8.506a4.226,4.226,0,0,0,4.227,4.227h16.7a4.227,4.227,0,0,0,4.227-4.227V174.2a4.227,4.227,0,0,0-4.227-4.227" transform="translate(-26.257 -169.977)" fill="#fff"/>
    <path id="Path_4806" data-name="Path 4806" d="M55.487,185.432l-3.122-1.8-3.122-1.8v7.21l3.122-1.8Z" transform="translate(-39.788 -176.953)" fill="#34475c"/>
  </g>
</svg>
