<svg xmlns="http://www.w3.org/2000/svg" width="64" height="64" viewBox="0 0 64 64" fill="none">
  <!-- Gate + zodiac wheel hybrid -->
  <!-- Zodiac wheel (right half) -->
  <path d="M36 6 A26 26 0 0 1 36 58" stroke="#6E5898" stroke-width="2.5" fill="none"/>
  <path d="M36 12 A20 20 0 0 1 36 52" stroke="#6E5898" stroke-width="1.5" fill="none"/>
  <!-- Wheel tick marks -->
  <line x1="55" y1="20" x2="51" y2="22" stroke="#6E5898" stroke-width="1.5" stroke-linecap="round"/>
  <line x1="58" y1="32" x2="53" y2="32" stroke="#6E5898" stroke-width="1.5" stroke-linecap="round"/>
  <line x1="55" y1="44" x2="51" y2="42" stroke="#6E5898" stroke-width="1.5" stroke-linecap="round"/>
  <!-- I Ching hexagram (left half - gate) -->
  <line x1="6" y1="16" x2="28" y2="16" stroke="#6E5898" stroke-width="2.5" stroke-linecap="round"/>
  <line x1="6" y1="24" x2="14" y2="24" stroke="#6E5898" stroke-width="2.5" stroke-linecap="round"/>
  <line x1="20" y1="24" x2="28" y2="24" stroke="#6E5898" stroke-width="2.5" stroke-linecap="round"/>
  <line x1="6" y1="32" x2="28" y2="32" stroke="#6E5898" stroke-width="2.5" stroke-linecap="round"/>
  <line x1="6" y1="40" x2="28" y2="40" stroke="#6E5898" stroke-width="2.5" stroke-linecap="round"/>
  <line x1="6" y1="48" x2="14" y2="48" stroke="#6E5898" stroke-width="2.5" stroke-linecap="round"/>
  <line x1="20" y1="48" x2="28" y2="48" stroke="#6E5898" stroke-width="2.5" stroke-linecap="round"/>
</svg>