<svg xmlns="http://www.w3.org/2000/svg" xmlns:xlink="http://www.w3.org/1999/xlink" width="96.6" height="96.6" viewBox="0 0 96.6 96.6"><defs><clipPath id="a"><path d="M0-682.665H96.6v96.6H0Z" transform="translate(0 682.665)" fill="#6e5898" stroke="#707070" stroke-width="0.5"/></clipPath></defs><g clip-path="url(#a)"><g transform="translate(-0.336 -0.335)"><path d="M-47.708-331a2.223,2.223,0,0,1-.585-.078A44.538,44.538,0,0,1-70.77-345.6a2.223,2.223,0,0,1,.3-3.129,2.223,2.223,0,0,1,3.129.3,40.068,40.068,0,0,0,19.63,12.9,40.019,40.019,0,0,0,19.92-13.257,39.807,39.807,0,0,0,8.754-24.859v-12.923a4.224,4.224,0,0,0-3.179-4.106,107.807,107.807,0,0,1-23.5-9,4.3,4.3,0,0,0-3.987,0,107.806,107.806,0,0,1-23.5,9,4.224,4.224,0,0,0-3.18,4.106v12.923A39.6,39.6,0,0,0-74.8-362.58a2.223,2.223,0,0,1-1.514,2.755,2.223,2.223,0,0,1-2.755-1.513,44.039,44.039,0,0,1-1.759-12.305v-12.923a8.666,8.666,0,0,1,6.533-8.416,103.352,103.352,0,0,0,22.53-8.625,8.745,8.745,0,0,1,8.113,0,103.356,103.356,0,0,0,22.53,8.625,8.666,8.666,0,0,1,6.533,8.416v12.923A44.269,44.269,0,0,1-24.323-346a44.487,44.487,0,0,1-22.8,14.925A2.223,2.223,0,0,1-47.708-331Z" transform="translate(80.828 404.605)" fill="#6e5898"/><path d="M-47.708-330.746a2.475,2.475,0,0,1-.65-.087,44.79,44.79,0,0,1-22.6-14.611,2.457,2.457,0,0,1-.553-1.81,2.457,2.457,0,0,1,.889-1.671,2.477,2.477,0,0,1,1.571-.564,2.466,2.466,0,0,1,1.91.9,39.881,39.881,0,0,0,19.437,12.8,39.831,39.831,0,0,0,19.725-13.154,39.557,39.557,0,0,0,8.7-24.7v-12.923a3.975,3.975,0,0,0-2.991-3.864,108.058,108.058,0,0,1-23.555-9.017,4.063,4.063,0,0,0-1.878-.462,4.063,4.063,0,0,0-1.878.462,108.056,108.056,0,0,1-23.555,9.017,3.974,3.974,0,0,0-2.991,3.864v12.923A39.345,39.345,0,0,0-74.56-362.65a2.457,2.457,0,0,1-.207,1.881,2.457,2.457,0,0,1-1.477,1.184,2.478,2.478,0,0,1-.692.1,2.485,2.485,0,0,1-2.374-1.783,44.289,44.289,0,0,1-1.769-12.375v-12.923a8.916,8.916,0,0,1,6.722-8.658,103.1,103.1,0,0,0,22.475-8.6,9.029,9.029,0,0,1,4.173-1.026,9.028,9.028,0,0,1,4.173,1.026,103.105,103.105,0,0,0,22.475,8.6,8.916,8.916,0,0,1,6.722,8.658v12.923a44.519,44.519,0,0,1-9.79,27.8,44.739,44.739,0,0,1-22.929,15.01A2.474,2.474,0,0,1-47.708-330.746Zm-21.347-18.243a1.976,1.976,0,0,0-1.253.45,1.96,1.96,0,0,0-.71,1.333,1.96,1.96,0,0,0,.441,1.444,44.285,44.285,0,0,0,22.35,14.447,1.982,1.982,0,0,0,1.038,0,44.235,44.235,0,0,0,22.671-14.841,44.018,44.018,0,0,0,9.68-27.488v-12.923a8.416,8.416,0,0,0-6.344-8.173,103.607,103.607,0,0,1-22.585-8.646,8.527,8.527,0,0,0-3.941-.969,8.527,8.527,0,0,0-3.941.969,103.6,103.6,0,0,1-22.584,8.645,8.416,8.416,0,0,0-6.345,8.173v12.923a43.789,43.789,0,0,0,1.749,12.236,1.982,1.982,0,0,0,1.893,1.422,1.977,1.977,0,0,0,.552-.079,1.96,1.96,0,0,0,1.178-.945,1.96,1.96,0,0,0,.165-1.5,39.845,39.845,0,0,1-1.592-11.133v-12.923a4.474,4.474,0,0,1,3.368-4.348,107.554,107.554,0,0,0,23.446-8.975,4.565,4.565,0,0,1,2.11-.519,4.565,4.565,0,0,1,2.11.519,107.556,107.556,0,0,0,23.446,8.975,4.474,4.474,0,0,1,3.368,4.348v12.923a40.058,40.058,0,0,1-8.809,25.016,40.334,40.334,0,0,1-20.045,13.341l-.07.02-.07-.02A40.385,40.385,0,0,1-67.531-348.27,1.968,1.968,0,0,0-69.055-348.989Z" transform="translate(80.828 404.605)" fill="#6e5898"/></g><g transform="translate(10.151 22.986)"><path d="M-64.983-16.724a10.879,10.879,0,0,1,3.575.6,11.353,11.353,0,0,1,7.16,7.771,2.223,2.223,0,0,1-.84,2.421,11.736,11.736,0,0,1-6.86,2.267,10.879,10.879,0,0,1-3.575-.6,11.352,11.352,0,0,1-7.16-7.771,2.223,2.223,0,0,1,.84-2.421A11.736,11.736,0,0,1-64.983-16.724ZM-59.159-8.7a6.712,6.712,0,0,0-3.706-3.223,6.758,6.758,0,0,0-4.906.234,6.711,6.711,0,0,0,3.706,3.223A6.759,6.759,0,0,0-59.159-8.7Z" transform="translate(72.77 16.724)" fill="#6e5898"/><path d="M-64.983-16.974a11.128,11.128,0,0,1,3.657.616,11.6,11.6,0,0,1,7.319,7.938,2.478,2.478,0,0,1-.935,2.693,11.984,11.984,0,0,1-7.006,2.314A11.129,11.129,0,0,1-65.6-4.028a11.6,11.6,0,0,1-7.319-7.938,2.478,2.478,0,0,1,.935-2.693A11.984,11.984,0,0,1-64.983-16.974Zm3.035,13.062a11.487,11.487,0,0,0,6.714-2.22,1.977,1.977,0,0,0,.746-2.149,11.106,11.106,0,0,0-7-7.6,10.629,10.629,0,0,0-3.493-.589,11.487,11.487,0,0,0-6.714,2.22,1.977,1.977,0,0,0-.746,2.149,11.105,11.105,0,0,0,7,7.6A10.63,10.63,0,0,0-61.947-3.912Zm-3.037-8.613h0a6.7,6.7,0,0,1,2.2.368,7,7,0,0,1,3.844,3.341l.129.24-.25.108a7.223,7.223,0,0,1-2.886.608,6.7,6.7,0,0,1-2.2-.368,7,7,0,0,1-3.844-3.341l-.129-.24.25-.108A7.222,7.222,0,0,1-64.984-12.525Zm5.468,3.7a6.471,6.471,0,0,0-3.431-2.863,6.2,6.2,0,0,0-2.037-.34h0a6.686,6.686,0,0,0-2.43.461A6.469,6.469,0,0,0-63.983-8.7a6.2,6.2,0,0,0,2.037.34A6.687,6.687,0,0,0-59.516-8.822Z" transform="translate(72.77 16.724)" fill="#6e5898"/></g><g transform="translate(36.806 22.986)"><path d="M-43.168-16.724a11.745,11.745,0,0,1,6.86,2.267,2.223,2.223,0,0,1,.84,2.421,11.352,11.352,0,0,1-7.16,7.771,10.879,10.879,0,0,1-3.575.6,11.736,11.736,0,0,1-6.86-2.267A2.223,2.223,0,0,1-53.9-8.35a11.353,11.353,0,0,1,7.16-7.771A10.879,10.879,0,0,1-43.168-16.724Zm2.788,5.037a6.758,6.758,0,0,0-4.906-.234A6.712,6.712,0,0,0-48.991-8.7a6.759,6.759,0,0,0,4.906.234A6.712,6.712,0,0,0-40.379-11.687Z" transform="translate(53.99 16.724)" fill="#6e5898"/><path d="M-43.168-16.974h0a12,12,0,0,1,7.006,2.314,2.478,2.478,0,0,1,.935,2.693,11.6,11.6,0,0,1-7.319,7.938,11.128,11.128,0,0,1-3.657.617,11.985,11.985,0,0,1-7.006-2.314,2.478,2.478,0,0,1-.935-2.694,11.6,11.6,0,0,1,7.318-7.938A11.129,11.129,0,0,1-43.168-16.974ZM-46.2-3.912A10.63,10.63,0,0,0-42.71-4.5a11.105,11.105,0,0,0,7-7.6,1.977,1.977,0,0,0-.746-2.149,11.5,11.5,0,0,0-6.715-2.221,10.63,10.63,0,0,0-3.493.589,11.107,11.107,0,0,0-7,7.6,1.977,1.977,0,0,0,.746,2.149A11.488,11.488,0,0,0-46.2-3.912Zm3.037-8.613h0a7.222,7.222,0,0,1,2.886.608l.25.108-.129.24A7,7,0,0,1-44-8.228a6.7,6.7,0,0,1-2.2.368,7.223,7.223,0,0,1-2.886-.608l-.25-.108.129-.24a7,7,0,0,1,3.844-3.341A6.7,6.7,0,0,1-43.166-12.525Zm2.43.961a6.687,6.687,0,0,0-2.43-.461h0a6.2,6.2,0,0,0-2.037.34,6.47,6.47,0,0,0-3.431,2.863,6.687,6.687,0,0,0,2.43.461,6.2,6.2,0,0,0,2.037-.34A6.469,6.469,0,0,0-40.736-11.564Z" transform="translate(53.99 16.724)" fill="#6e5898"/></g><g transform="translate(21.445 42.798)"><path d="M-109.185-13.333h10.6a6.015,6.015,0,0,1,5.364,3.273,5.967,5.967,0,0,1-.437,6.218,12.578,12.578,0,0,1-10.229,5.28,12.577,12.577,0,0,1-10.229-5.28,5.966,5.966,0,0,1-.437-6.218A6.015,6.015,0,0,1-109.185-13.333Zm5.3,10.324a8.124,8.124,0,0,0,6.606-3.411,1.509,1.509,0,0,0,.108-1.6,1.555,1.555,0,0,0-1.412-.865h-10.6a1.555,1.555,0,0,0-1.412.865,1.509,1.509,0,0,0,.108,1.6A8.123,8.123,0,0,0-103.883-3.01Z" transform="translate(115.221 13.333)" fill="#6e5898"/><path d="M-109.185-13.583h10.6A6.264,6.264,0,0,1-93-10.175,6.216,6.216,0,0,1-93.451-3.7a12.828,12.828,0,0,1-10.433,5.385A12.827,12.827,0,0,1-114.316-3.7a6.215,6.215,0,0,1-.456-6.477A6.264,6.264,0,0,1-109.185-13.583Zm5.3,14.77A12.327,12.327,0,0,0-93.858-3.988a5.718,5.718,0,0,0,.418-5.958,5.766,5.766,0,0,0-5.142-3.137h-10.6a5.766,5.766,0,0,0-5.142,3.137,5.717,5.717,0,0,0,.419,5.958A12.326,12.326,0,0,0-103.883,1.186Zm-5.3-10.324h10.6a1.8,1.8,0,0,1,1.635,1,1.753,1.753,0,0,1-.127,1.862,8.374,8.374,0,0,1-6.81,3.516,8.374,8.374,0,0,1-6.81-3.516,1.753,1.753,0,0,1-.127-1.862A1.8,1.8,0,0,1-109.185-9.137Zm5.3,5.878a7.874,7.874,0,0,0,6.4-3.306,1.265,1.265,0,0,0,.09-1.343,1.311,1.311,0,0,0-1.19-.729h-10.6a1.311,1.311,0,0,0-1.19.729,1.265,1.265,0,0,0,.09,1.343A7.873,7.873,0,0,0-103.883-3.26Z" transform="translate(115.221 13.333)" fill="#6e5898"/></g><g transform="translate(6.738 50.183)"><path d="M0,0H0" fill="#6e5898"/><path fill="#6e5898"/><path fill="#6e5898"/><path fill="#6e5898"/></g><g transform="translate(30.737 24.605)"><path d="M9.518-254.5a2.223,2.223,0,0,1-1-.24,44.487,44.487,0,0,1-19.335-19.2,44.006,44.006,0,0,1-2.391-5.57,2.223,2.223,0,0,1,1.364-2.832,2.223,2.223,0,0,1,2.832,1.364,39.544,39.544,0,0,0,2.148,5.005A40.019,40.019,0,0,0,9.982-258.987,40.018,40.018,0,0,0,32.16-267.97a39.808,39.808,0,0,0,13.572-22.592l2.6-12.659a4.224,4.224,0,0,0-2.289-4.661,107.8,107.8,0,0,1-21.213-13.536,4.3,4.3,0,0,0-3.906-.8l-.347.1a2.223,2.223,0,0,1-2.745-1.532,2.223,2.223,0,0,1,1.532-2.745l.331-.095a8.744,8.744,0,0,1,7.948,1.631,103.35,103.35,0,0,0,20.337,12.977,8.666,8.666,0,0,1,4.708,9.557l-2.6,12.659a44.269,44.269,0,0,1-15.093,25.124A44.487,44.487,0,0,1,9.659-254.507Q9.589-254.5,9.518-254.5Z" transform="translate(13.337 326.833)" fill="#6e5898"/><path d="M9.518-254.252a2.485,2.485,0,0,1-1.117-.267,44.739,44.739,0,0,1-19.444-19.313,44.256,44.256,0,0,1-2.4-5.6,2.457,2.457,0,0,1,.106-1.89,2.457,2.457,0,0,1,1.411-1.261,2.468,2.468,0,0,1,.817-.139,2.476,2.476,0,0,1,2.334,1.657,39.3,39.3,0,0,0,2.135,4.973,39.83,39.83,0,0,0,16.678,16.85A39.83,39.83,0,0,0,32-268.163a39.557,39.557,0,0,0,13.487-22.45l2.6-12.659a3.975,3.975,0,0,0-2.153-4.386,108.05,108.05,0,0,1-21.262-13.568,4.058,4.058,0,0,0-2.56-.912,4.043,4.043,0,0,0-1.118.158l-.347.1a2.477,2.477,0,0,1-.677.095,2.482,2.482,0,0,1-2.378-1.8,2.457,2.457,0,0,1,.219-1.88,2.457,2.457,0,0,1,1.485-1.174l.331-.094a8.985,8.985,0,0,1,2.485-.35,9.018,9.018,0,0,1,5.69,2.028A103.1,103.1,0,0,0,48.085-312.11a8.916,8.916,0,0,1,4.844,9.832l-2.6,12.659a44.52,44.52,0,0,1-15.179,25.266A44.739,44.739,0,0,1,9.675-254.257C9.623-254.254,9.57-254.252,9.518-254.252Zm-20.631-27.971a1.969,1.969,0,0,0-.651.111,1.96,1.96,0,0,0-1.126,1.006,1.96,1.96,0,0,0-.085,1.508A43.754,43.754,0,0,0-10.6-274.06a44.235,44.235,0,0,0,19.225,19.1,1.98,1.98,0,0,0,1.017.209,44.235,44.235,0,0,0,25.191-9.981,44.018,44.018,0,0,0,15.008-24.981l2.6-12.659a8.417,8.417,0,0,0-4.572-9.282,103.6,103.6,0,0,1-20.386-13.009,8.517,8.517,0,0,0-5.373-1.915,8.487,8.487,0,0,0-2.347.331l-.332.095a1.96,1.96,0,0,0-1.185.937,1.96,1.96,0,0,0-.175,1.5,1.98,1.98,0,0,0,1.9,1.435,1.978,1.978,0,0,0,.54-.076l.346-.1a4.542,4.542,0,0,1,1.256-.177,4.559,4.559,0,0,1,2.876,1.025,107.551,107.551,0,0,0,21.164,13.5,4.474,4.474,0,0,1,2.425,4.936l-2.6,12.659a40.059,40.059,0,0,1-13.658,22.734A40.334,40.334,0,0,1,10-258.738l-.072.006-.064-.034a40.334,40.334,0,0,1-16.954-17.1A39.8,39.8,0,0,1-9.251-280.9,1.975,1.975,0,0,0-11.113-282.223Z" transform="translate(13.337 326.833)" fill="#6e5898"/></g><g transform="translate(65.95 49.215)"><path d="M-41.848-17.313a11.816,11.816,0,0,1,6.611,2.078,2.223,2.223,0,0,1,.908,2.4,11.353,11.353,0,0,1-6.939,7.97,10.874,10.874,0,0,1-3.867.707A11.8,11.8,0,0,1-51.745-6.24a2.223,2.223,0,0,1-.908-2.4,11.352,11.352,0,0,1,6.939-7.97A10.873,10.873,0,0,1-41.848-17.313Zm2.619,4.961a7,7,0,0,0-2.619-.515,6.442,6.442,0,0,0-2.291.419,6.711,6.711,0,0,0-3.614,3.325,6.761,6.761,0,0,0,4.91.1A6.711,6.711,0,0,0-39.229-12.352Z" transform="translate(52.723 17.313)" fill="#6e5898"/><path d="M-41.848-17.563h0a12.066,12.066,0,0,1,6.751,2.12,2.478,2.478,0,0,1,1.01,2.666,11.6,11.6,0,0,1-7.092,8.141,11.123,11.123,0,0,1-3.956.724,12.046,12.046,0,0,1-6.751-2.121A2.478,2.478,0,0,1-52.9-8.7,11.6,11.6,0,0,1-45.8-16.84,11.122,11.122,0,0,1-41.848-17.563ZM-45.134-4.412A10.625,10.625,0,0,0-41.355-5.1a11.106,11.106,0,0,0,6.785-7.8,1.977,1.977,0,0,0-.806-2.127,11.568,11.568,0,0,0-6.472-2.035,10.624,10.624,0,0,0-3.778.691,11.105,11.105,0,0,0-6.785,7.8A1.977,1.977,0,0,0-51.6-6.447,11.548,11.548,0,0,0-45.134-4.412Zm3.3-8.705a7.238,7.238,0,0,1,2.695.533l.253.1-.122.243a7,7,0,0,1-3.748,3.447,6.7,6.7,0,0,1-2.383.432,7.268,7.268,0,0,1-2.708-.53l-.253-.1.122-.243a7,7,0,0,1,3.748-3.447,6.691,6.691,0,0,1,2.38-.435Zm2.249.9a6.675,6.675,0,0,0-2.249-.4h-.016a6.194,6.194,0,0,0-2.2.4A6.47,6.47,0,0,0-47.4-9.257a6.731,6.731,0,0,0,2.262.4,6.2,6.2,0,0,0,2.206-.4A6.47,6.47,0,0,0-39.582-12.219Z" transform="translate(52.723 17.313)" fill="#6e5898"/></g><g transform="translate(46.285 66.778)"><path d="M-18.421-62.855a6.15,6.15,0,0,1-1.233-.126l-10.388-2.131a6.015,6.015,0,0,1-4.6-4.284,5.967,5.967,0,0,1,1.678-6,12.505,12.505,0,0,1,8.548-3.374,12.626,12.626,0,0,1,2.533.258,12.577,12.577,0,0,1,8.959,7.227,5.957,5.957,0,0,1-.458,5.678A6.009,6.009,0,0,1-18.421-62.855Zm-5.991-11.472a8.073,8.073,0,0,0-5.518,2.181,1.509,1.509,0,0,0-.428,1.548,1.555,1.555,0,0,0,1.21,1.131l10.388,2.131a1.7,1.7,0,0,0,.34.035,1.578,1.578,0,0,0,1.317-.735,1.491,1.491,0,0,0,.117-1.454,8.123,8.123,0,0,0-5.786-4.669A8.171,8.171,0,0,0-24.412-74.327Z" transform="translate(34.865 78.773)" fill="#6e5898"/><path d="M-18.421-62.6a6.4,6.4,0,0,1-1.283-.131l-10.388-2.131a6.264,6.264,0,0,1-4.787-4.461,6.216,6.216,0,0,1,1.748-6.254,12.754,12.754,0,0,1,8.718-3.441,12.877,12.877,0,0,1,2.583.263,12.827,12.827,0,0,1,9.137,7.371,6.206,6.206,0,0,1-.477,5.915A6.258,6.258,0,0,1-18.421-62.6Zm-5.991-15.918a12.256,12.256,0,0,0-8.378,3.307A5.718,5.718,0,0,0-34.4-69.464a5.765,5.765,0,0,0,4.406,4.107L-19.6-63.226a5.9,5.9,0,0,0,1.183.121,5.759,5.759,0,0,0,4.833-2.641,5.707,5.707,0,0,0,.439-5.44,12.326,12.326,0,0,0-8.78-7.084A12.376,12.376,0,0,0-24.412-78.523Zm5.991,11.472a1.946,1.946,0,0,1-.39-.041L-29.2-69.223a1.8,1.8,0,0,1-1.4-1.308,1.753,1.753,0,0,1,.5-1.8,8.323,8.323,0,0,1,5.688-2.248,8.421,8.421,0,0,1,1.69.173,8.374,8.374,0,0,1,5.964,4.813,1.734,1.734,0,0,1-.136,1.692A1.827,1.827,0,0,1-18.421-67.051Zm-5.991-7.026a7.824,7.824,0,0,0-5.347,2.114,1.265,1.265,0,0,0-.358,1.3,1.311,1.311,0,0,0,1.019.953l10.388,2.131a1.445,1.445,0,0,0,.289.03,1.329,1.329,0,0,0,1.108-.622,1.247,1.247,0,0,0,.1-1.217,7.873,7.873,0,0,0-5.607-4.525A7.92,7.92,0,0,0-24.412-74.077Z" transform="translate(34.865 78.773)" fill="#6e5898"/></g></g></svg>