<svg xmlns="http://www.w3.org/2000/svg" width="95.492" height="89.58" viewBox="0 0 95.492 89.58"><g transform="translate(39.781 13.72)"><g transform="translate(0 0)"><path d="M178.886,81.98a2.159,2.159,0,0,0-1.5-.467H169.22l7.682-8.577.72-.8.37-.467a2.583,2.583,0,0,0,.311-.583,1.946,1.946,0,0,0,.136-.7,1.459,1.459,0,0,0-.72-1.4,4.337,4.337,0,0,0-2.042-.389h-9.55a2.1,2.1,0,0,0-1.42.428,1.439,1.439,0,0,0-.506,1.148q0,.992.661,1.206a6.243,6.243,0,0,0,1.945.233h6.224q-.389.544-1.011,1.284l-1.595,1.789-2.159,2.334L165.758,79.8q-1.3,1.459-1.712,1.945a1.828,1.828,0,0,0,.175,2.509,2.645,2.645,0,0,0,1.789.525h11.358a2.216,2.216,0,0,0,1.517-.447,1.479,1.479,0,0,0,.506-1.148A1.556,1.556,0,0,0,178.886,81.98Z" transform="translate(-162.463 -67.426)" fill="#6e5898"/><path d="M166.479,86.619a3.834,3.834,0,0,1-2.294-.767l-.087-.072a2.994,2.994,0,0,1-.287-4.109c.29-.345.857-.99,1.742-1.981l2.523-2.8,2.152-2.326,1-1.123H167.5a7.4,7.4,0,0,1-2.285-.278l-.04-.012a2.193,2.193,0,0,1-1.468-2.3,2.591,2.591,0,0,1,.916-2.055l.047-.038a3.283,3.283,0,0,1,2.164-.668h9.485a5.542,5.542,0,0,1,2.558.5l.1.051a2.632,2.632,0,0,1,1.3,2.467,3.1,3.1,0,0,1-.214,1.062,3.753,3.753,0,0,1-.449.84l-.036.048-.418.524-.72.8-5.938,6.63h5.523a3.339,3.339,0,0,1,2.262.722l.058.05a2.716,2.716,0,0,1,.886,2.075,2.638,2.638,0,0,1-.9,2.017l-.06.049a3.4,3.4,0,0,1-2.051.693h0c-.071,0-.142,0-.214-.007H166.716C166.637,86.617,166.558,86.619,166.479,86.619Zm-.839-2.593a1.488,1.488,0,0,0,.95.257l.087,0,11.449,0a1.057,1.057,0,0,0,.681-.185.312.312,0,0,0,.085-.221v-.069a.389.389,0,0,0-.1-.279,1,1,0,0,0-.654-.188l-.081,0H167.276L177.4,72.051l.325-.41a1.419,1.419,0,0,0,.156-.3l.006-.016a.777.777,0,0,0,.054-.281l.005-.1a.294.294,0,0,0-.112-.26,3.192,3.192,0,0,0-1.426-.255l-.063,0-9.629,0a.941.941,0,0,0-.6.169.272.272,0,0,0-.078.2v.042c0,.055,0,.1.006.135a5.071,5.071,0,0,0,1.39.139h8.534l-1.318,1.844c-.277.388-.636.844-1.068,1.357l-.021.025-1.609,1.805-2.154,2.329-2.5,2.776c-.853.955-1.421,1.6-1.685,1.914A.659.659,0,0,0,165.639,84.026Z" transform="translate(-163.129 -68.092)" fill="#6e5898"/></g></g><g transform="translate(60.174 26.266)"><g transform="translate(0 0)"><path d="M259.591,130.977a1.711,1.711,0,0,0-1.206-.37H251.85l6.127-6.846.583-.642.37-.447a2.037,2.037,0,0,0,.253-.467,1.552,1.552,0,0,0,.117-.564,1.167,1.167,0,0,0-.564-1.128,3.462,3.462,0,0,0-1.634-.311h-7.7a1.691,1.691,0,0,0-1.128.35,1.148,1.148,0,0,0-.408.914q0,.778.525.972a4.965,4.965,0,0,0,1.556.175h4.979a11.526,11.526,0,0,1-.817,1.031l-1.284,1.439-1.673,1.945-1.945,2.217q-1.05,1.167-1.381,1.595a1.459,1.459,0,0,0,.136,1.945,2.1,2.1,0,0,0,1.42.408H258.4a1.77,1.77,0,0,0,1.206-.35,1.186,1.186,0,0,0,.389-.914A1.244,1.244,0,0,0,259.591,130.977Z" transform="translate(-246.349 -119.031)" fill="#6e5898"/><path d="M249.881,135.033a3.287,3.287,0,0,1-1.949-.645l-.061-.045-.054-.053a2.62,2.62,0,0,1-.245-3.5c.238-.308.706-.85,1.429-1.652l1.94-2.212,1.679-1.952.471-.528h-2.454a6.13,6.13,0,0,1-1.893-.217l-.093-.03a2.019,2.019,0,0,1-1.286-2.048,2.3,2.3,0,0,1,.824-1.824l.038-.03a2.871,2.871,0,0,1,1.869-.593h7.644a4.6,4.6,0,0,1,2.15.418l.056.026.053.032a2.34,2.34,0,0,1,1.132,2.2,2.708,2.708,0,0,1-.2.923,3.209,3.209,0,0,1-.392.721l-.045.059-.406.489-.583.642-4.381,4.9h3.886a2.889,2.889,0,0,1,1.975.625l.054.046a2.408,2.408,0,0,1,.792,1.815,2.349,2.349,0,0,1-.772,1.78l-.082.068a2.954,2.954,0,0,1-1.765.59h0c-.06,0-.121,0-.182-.006h-8.943C250.019,135.031,249.95,135.033,249.881,135.033Zm-.482-2.466a.94.94,0,0,0,.556.131l.092,0,9.117,0a.3.3,0,0,0,.049,0,.609.609,0,0,0,.288-.073v-.06a.079.079,0,0,0-.011-.043.548.548,0,0,0-.344-.088l-.093,0h-9.143l7.866-8.79.571-.628.323-.391a.872.872,0,0,0,.092-.176l.01-.026a.388.388,0,0,0,.029-.141l.006-.1a2.278,2.278,0,0,0-.974-.16l-.064,0-7.767,0a.526.526,0,0,0-.227.038,3.8,3.8,0,0,0,.783.045h7.212l-1.208,1.813a12.483,12.483,0,0,1-.9,1.143l-.015.017-1.276,1.431-1.667,1.938-1.962,2.237c-.843.936-1.186,1.348-1.325,1.528A.294.294,0,0,0,249.4,132.567Z" transform="translate(-247.016 -119.697)" fill="#6e5898"/></g></g><g transform="translate(77.377 12.631)"><g transform="translate(0 0)"><path d="M333.545,77.6a2.159,2.159,0,0,0-1.5-.467h-8.227l7.682-8.577.72-.8.467-.564a2.585,2.585,0,0,0,.311-.583,1.945,1.945,0,0,0,.136-.7,1.459,1.459,0,0,0-.72-1.4,4.34,4.34,0,0,0-2.042-.389h-9.647a2.1,2.1,0,0,0-1.42.428,1.439,1.439,0,0,0-.506,1.148q0,.992.661,1.206a6.242,6.242,0,0,0,1.945.233h6.224q-.389.544-1.011,1.284l-1.614,1.828-2.1,2.334L320.4,75.36q-1.3,1.459-1.712,1.945a1.828,1.828,0,0,0,.175,2.509,2.645,2.645,0,0,0,1.789.525h11.339a2.218,2.218,0,0,0,1.556-.389,1.479,1.479,0,0,0,.506-1.148A1.555,1.555,0,0,0,333.545,77.6Z" transform="translate(-317.103 -62.947)" fill="#6e5898"/><path d="M332.932,82.188h0a3.391,3.391,0,0,1-.342-.017H321.356a3.836,3.836,0,0,1-2.53-.76l-.087-.072a2.994,2.994,0,0,1-.287-4.109c.289-.345.857-.99,1.742-1.981l4.612-5.118,1.029-1.166H322.1a7.41,7.41,0,0,1-2.285-.278l-.04-.012a2.193,2.193,0,0,1-1.468-2.3,2.591,2.591,0,0,1,.916-2.055l.047-.038a3.283,3.283,0,0,1,2.164-.668h9.582a5.543,5.543,0,0,1,2.557.5l.1.051a2.632,2.632,0,0,1,1.3,2.467,3.1,3.1,0,0,1-.214,1.063,3.747,3.747,0,0,1-.449.839l-.052.067-.5.6-.72.8L327.1,76.63h5.581a3.337,3.337,0,0,1,2.262.722l.058.05a2.717,2.717,0,0,1,.886,2.075,2.638,2.638,0,0,1-.9,2.017l-.045.04-.049.035A3.366,3.366,0,0,1,332.932,82.188Zm-11.659-2.349h11.455l.073.009a1.052,1.052,0,0,0,.677-.145.312.312,0,0,0,.073-.208v-.069a.388.388,0,0,0-.1-.279,1,1,0,0,0-.654-.188l-.081,0H321.877l10.129-11.3.42-.507a1.417,1.417,0,0,0,.15-.29l.006-.016a.774.774,0,0,0,.054-.28l.005-.1a.294.294,0,0,0-.112-.259,3.194,3.194,0,0,0-1.426-.255l-.062,0-9.726,0a.938.938,0,0,0-.6.169.271.271,0,0,0-.078.2v.042c0,.055,0,.1.006.135a5.072,5.072,0,0,0,1.39.139h8.535l-1.318,1.844c-.277.388-.636.844-1.068,1.357l-.018.021-1.614,1.828-4.618,5.124c-.853.955-1.422,1.6-1.685,1.914a.659.659,0,0,0,.035.864,1.488,1.488,0,0,0,.95.257Z" transform="translate(-317.769 -63.612)" fill="#6e5898"/></g></g><g transform="translate(0 0)"><path d="M85.943,71.026a1.945,1.945,0,0,0-2.139-.447A41.31,41.31,0,0,1,30.57,14.934a1.945,1.945,0,0,0-2.509-2.626A45.239,45.239,0,1,0,86.293,73.185,1.945,1.945,0,0,0,85.943,71.026ZM45.274,95.532a41.369,41.369,0,0,1-20.13-77.505,44.593,44.593,0,0,0-2.334,14.3A45.258,45.258,0,0,0,80.458,75.85,41.524,41.524,0,0,1,45.274,95.532Z" transform="translate(1.166 -10.992)" fill="#6e5898"/><path d="M45.936,101.238h0A46.405,46.405,0,0,1,28.284,11.9a3.087,3.087,0,0,1,1.194-.238A3.111,3.111,0,0,1,32.29,16.1,40.133,40.133,0,0,0,84.023,70.168a3.1,3.1,0,0,1,1.186-.235,3.128,3.128,0,0,1,2.238.95l.008.009a3.094,3.094,0,0,1,.56,3.453,46.458,46.458,0,0,1-42.08,26.894ZM29.478,13.99a.776.776,0,0,0-.3.06A44.081,44.081,0,0,0,45.934,98.906h0A44.126,44.126,0,0,0,85.9,73.36a.775.775,0,0,0-.135-.862.793.793,0,0,0-.853-.175A42.476,42.476,0,0,1,30.18,15.107a.779.779,0,0,0-.7-1.117ZM45.944,97.364a42.535,42.535,0,0,1-20.7-79.69l2.636-1.469-.963,2.86a43.341,43.341,0,0,0-2.273,13.921A44.092,44.092,0,0,0,80.8,75.394l2.893-.823-1.582,2.558A42.69,42.69,0,0,1,45.944,97.364Zm-22.122-76.1A40.188,40.188,0,1,0,78.476,78.377,46.4,46.4,0,0,1,22.31,32.988,45.653,45.653,0,0,1,23.822,21.263Z" transform="translate(0.5 -11.658)" fill="#6e5898"/></g></svg>