<svg width="75" height="100" viewBox="0 0 75 100" fill="none" xmlns="http://www.w3.org/2000/svg">
<path d="M69.4141 0H7.93555C3.56055 0 0 3.56055 0 7.93555V88.8281C0 93.2051 3.56055 96.7637 7.93555 96.7637H12.9414V96.9141C12.9414 97.9902 13.4883 98.9707 14.4043 99.5371C15.3203 100.104 16.4414 100.152 17.4043 99.6719L20.8105 97.9688C20.8535 97.9473 20.9043 97.9473 20.9473 97.9688L24.3535 99.6719C24.793 99.8906 25.2637 100 25.7344 100C26.2949 100 26.8555 99.8457 27.3535 99.5371C28.2695 98.9707 28.8164 97.9902 28.8164 96.9141V96.7637H69.416C72.0078 96.7637 74.1172 94.6543 74.1172 92.0625V4.70117C74.1133 2.10937 72.0059 0 69.4141 0ZM71.1836 4.70117V79.1211C71.1836 80.0977 70.3887 80.8926 69.4121 80.8926H15.8711V2.92969H69.4121C70.3906 2.92969 71.1836 3.72461 71.1836 4.70117ZM7.93555 2.92969H12.9414V80.8926H7.93555C6.03906 80.8926 4.29492 81.5625 2.92969 82.6758V7.93555C2.92969 5.17578 5.17578 2.92969 7.93555 2.92969ZM7.93555 93.834C5.17578 93.834 2.92969 91.5879 2.92969 88.8281C2.92969 86.0684 5.17578 83.8223 7.93555 83.8223H69.4141C70.041 83.8223 70.6387 83.6973 71.1855 83.4746V87.3633H7.93555C7.12695 87.3633 6.4707 88.0195 6.4707 88.8281C6.4707 89.6367 7.12695 90.293 7.93555 90.293H12.9414V93.834H7.93555ZM25.8848 96.916C25.8848 96.9395 25.8848 97.002 25.8125 97.0469C25.7402 97.0918 25.6855 97.0645 25.6641 97.0527L22.2578 95.3496C21.3945 94.918 20.3633 94.918 19.5 95.3496L16.0938 97.0527C16.0723 97.0625 16.0176 97.0898 15.9453 97.0469C15.873 97.002 15.873 96.9395 15.873 96.916V90.293H25.8867V96.916H25.8848ZM69.4141 93.834H28.8145V90.293H71.1836V92.0645C71.1836 93.041 70.3906 93.834 69.4141 93.834Z" fill="#75609E"/>
<path d="M23.2688 39C24.2996 39 25.1649 38.2702 25.413 37.2797C25.5902 36.743 26.4615 34.4584 27.6695 31.3183H38.4408C39.6488 34.4584 40.5171 36.743 40.6973 37.2797C40.9454 38.2702 41.8108 39 42.8415 39C44.0643 39 45.0566 37.9696 45.0566 36.7001C45.0566 36.191 35.1093 10.435 35.1093 10.435C34.8908 9.87993 34.4684 9.41074 33.8895 9.16848C32.7554 8.69317 31.4647 9.25741 31.004 10.435C31.004 10.435 21.0566 36.0929 21.0566 36.7001C21.0537 37.9696 22.0461 39 23.2688 39ZM29.4475 26.7184C30.5905 23.7623 31.8516 20.5178 33.0566 17.4267C34.2587 20.5178 35.5198 23.7623 36.6658 26.7184H29.4475Z" fill="#75609E"/>
<path d="M47.2588 49.2936H57.9611L45.3708 69.7512C44.9627 70.4153 44.9509 71.2396 45.3444 71.9123C45.7349 72.585 46.466 73 47.2617 73H61.8545C63.0701 73 64.0566 72.0382 64.0566 70.8532C64.0566 69.6682 63.0701 68.7064 61.8545 68.7064H51.1521L63.7425 48.2488C64.1506 47.5847 64.1623 46.7604 63.7689 46.0877C63.3784 45.415 62.6473 45 61.8516 45H47.2588C46.0432 45 45.0566 45.9618 45.0566 47.1468C45.0566 48.3318 46.0432 49.2936 47.2588 49.2936Z" fill="#75609E"/>
</svg>
