<svg width="100" height="100" viewBox="0 0 100 100" fill="none" xmlns="http://www.w3.org/2000/svg">
<g clip-path="url(#clip0_184_128)">
<path d="M71.1426 58.2422H41.8008C39.2695 58.2422 37.2109 60.3008 37.2109 62.832V66.2891C37.2109 68.8203 39.2695 70.8789 41.8008 70.8789H71.1426C73.6738 70.8789 75.7324 68.8203 75.7324 66.2891V62.832C75.7324 60.3008 73.6738 58.2422 71.1426 58.2422ZM72.8027 66.2891C72.8027 67.2051 72.0586 67.9492 71.1426 67.9492H41.8008C40.8848 67.9492 40.1406 67.2051 40.1406 66.2891V62.832C40.1406 61.916 40.8848 61.1719 41.8008 61.1719H71.1426C72.0586 61.1719 72.8027 61.916 72.8027 62.832V66.2891Z" fill="#75609E"/>
<path d="M82.3574 0H20.8789C16.5039 0 12.9434 3.56055 12.9434 7.93555V88.8281C12.9434 93.2051 16.5039 96.7637 20.8789 96.7637H25.8848V96.9141C25.8848 97.9902 26.4316 98.9707 27.3477 99.5371C28.2637 100.104 29.3848 100.152 30.3477 99.6719L33.7539 97.9688C33.7969 97.9473 33.8477 97.9473 33.8906 97.9688L37.2969 99.6719C37.7363 99.8906 38.207 100 38.6777 100C39.2383 100 39.7988 99.8457 40.2969 99.5371C41.2129 98.9707 41.7598 97.9902 41.7598 96.9141V96.7637H82.3594C84.9512 96.7637 87.0605 94.6543 87.0605 92.0625V4.70117C87.0566 2.10937 84.9492 0 82.3574 0ZM84.127 4.70117V79.1211C84.127 80.0977 83.332 80.8926 82.3555 80.8926H28.8145V2.92969H82.3555C83.334 2.92969 84.127 3.72461 84.127 4.70117ZM20.8789 2.92969H25.8848V80.8926H20.8789C18.9824 80.8926 17.2383 81.5625 15.873 82.6758V7.93555C15.873 5.17578 18.1191 2.92969 20.8789 2.92969ZM20.8789 93.834C18.1191 93.834 15.873 91.5879 15.873 88.8281C15.873 86.0684 18.1191 83.8223 20.8789 83.8223H82.3574C82.9844 83.8223 83.582 83.6973 84.1289 83.4746V87.3633H20.8789C20.0703 87.3633 19.4141 88.0195 19.4141 88.8281C19.4141 89.6367 20.0703 90.293 20.8789 90.293H25.8848V93.834H20.8789ZM38.8281 96.916C38.8281 96.9395 38.8281 97.002 38.7559 97.0469C38.6836 97.0918 38.6289 97.0645 38.6074 97.0527L35.2012 95.3496C34.3379 94.918 33.3066 94.918 32.4434 95.3496L29.0371 97.0527C29.0156 97.0625 28.9609 97.0898 28.8887 97.0469C28.8164 97.002 28.8164 96.9395 28.8164 96.916V90.293H38.8301V96.916H38.8281ZM82.3574 93.834H41.7578V90.293H84.127V92.0645C84.127 93.041 83.334 93.834 82.3574 93.834Z" fill="#75609E"/>
<path d="M37.0566 32.0508C37.7383 32.0508 38.3106 31.5859 38.4746 30.9551C38.5918 30.6133 39.168 29.1582 39.9668 27.1582H47.0898C47.8887 29.1582 48.4629 30.6133 48.582 30.9551C48.7461 31.5859 49.3184 32.0508 50 32.0508C50.8086 32.0508 51.4648 31.3945 51.4648 30.5859C51.4648 30.2617 44.8867 13.8574 44.8867 13.8574C44.7422 13.5039 44.4629 13.2051 44.0801 13.0508C43.3301 12.7481 42.4766 13.1074 42.1719 13.8574C42.1719 13.8574 35.5938 30.1992 35.5938 30.5859C35.5918 31.3945 36.248 32.0508 37.0566 32.0508ZM41.1426 24.2285C41.8984 22.3457 42.7324 20.2793 43.5293 18.3106C44.3242 20.2793 45.1582 22.3457 45.916 24.2285H41.1426Z" fill="#75609E"/>
<path d="M66.1777 15.873H73.2969L64.9219 29.832C64.6504 30.2852 64.6426 30.8477 64.9043 31.3066C65.1641 31.7656 65.6504 32.0488 66.1797 32.0488H75.8867C76.6953 32.0488 77.3516 31.3926 77.3516 30.584C77.3516 29.7754 76.6953 29.1191 75.8867 29.1191H68.7676L77.1426 15.1602C77.4141 14.707 77.4219 14.1445 77.1602 13.6855C76.9004 13.2266 76.4141 12.9434 75.8848 12.9434H66.1777C65.3691 12.9434 64.7129 13.5996 64.7129 14.4082C64.7129 15.2168 65.3691 15.873 66.1777 15.873Z" fill="#75609E"/>
<path d="M53.2363 23.9609H59.707C60.5156 23.9609 61.1719 23.3047 61.1719 22.4961C61.1719 21.6875 60.5156 21.0312 59.707 21.0312H53.2363C52.4277 21.0312 51.7715 21.6875 51.7715 22.4961C51.7715 23.3047 52.4258 23.9609 53.2363 23.9609Z" fill="#75609E"/>
</g>
<defs>
<clipPath id="clip0_184_128">
<rect width="100" height="100" fill="white"/>
</clipPath>
</defs>
</svg>
