<svg width="100" height="96" viewBox="0 0 100 96" fill="none" xmlns="http://www.w3.org/2000/svg">
<path d="M79.1117 60.6211L98.3965 41.7468C99.106 41.0522 99.6078 40.1723 99.8453 39.2065C100.083 38.2407 100.046 37.2275 99.7401 36.2813C99.4339 35.3352 98.8702 34.4939 98.1127 33.8525C97.3551 33.2111 96.434 32.7952 95.4533 32.6518L68.7881 28.7617C68.3396 28.6962 67.9137 28.5219 67.5472 28.2541C67.1808 27.9862 66.8849 27.6328 66.6851 27.2244L54.7625 2.97643C54.3249 2.08325 53.6468 1.33098 52.805 0.804912C51.9633 0.278839 50.9915 0 49.9999 0C49.0083 0 48.0366 0.278839 47.1948 0.804912C46.353 1.33098 45.6749 2.08325 45.2373 2.97643L33.3191 27.2201C33.1186 27.6305 32.8214 27.9855 32.4532 28.2543C32.085 28.5232 31.657 28.6977 31.2064 28.7628L4.54013 32.6528C3.56033 32.7974 2.64028 33.214 1.88383 33.8556C1.12738 34.4972 0.564638 35.3382 0.259124 36.2838C-0.0463897 37.2294 -0.0825148 38.2419 0.154824 39.207C0.392163 40.1721 0.893518 41.0514 1.60231 41.7457L20.8978 60.6308C21.2247 60.9468 21.4689 61.3389 21.6086 61.7724C21.7482 62.2059 21.7791 62.6673 21.6983 63.1156L17.1508 89.7668C16.9793 90.7467 17.0852 91.7552 17.4566 92.6776C17.828 93.6 18.4499 94.3991 19.2516 94.9842C20.0532 95.5692 21.0024 95.9166 21.991 95.9868C22.9797 96.0569 23.9681 95.8471 24.8438 95.3811L48.6857 82.8032C49.0911 82.5905 49.5419 82.4794 49.9994 82.4794C50.4569 82.4794 50.9076 82.5905 51.3131 82.8032L75.1518 95.3822C76.0278 95.8452 77.0154 96.0528 78.0029 95.9816C78.9903 95.9103 79.9382 95.563 80.7392 94.979C81.5402 94.395 82.1623 93.5976 82.5352 92.677C82.9081 91.7564 83.0168 90.7494 82.849 89.77L78.3015 63.107C78.2224 62.6599 78.2542 62.2 78.3942 61.7681C78.5342 61.3362 78.778 60.9456 79.1042 60.6308L79.1117 60.6211ZM46.9454 79.4729L31.4269 87.6569V80.8577C31.4314 76.9718 32.9716 73.2465 35.7095 70.4993C38.4473 67.752 42.1592 66.2074 46.0304 66.2042H53.9716C57.8419 66.2088 61.5524 67.7541 64.2891 70.5012C67.0258 73.2482 68.5652 76.9727 68.5698 80.8577V87.658L53.0512 79.4707C52.1088 78.9765 51.0613 78.7186 49.9981 78.719C48.9348 78.7194 47.8875 78.978 46.9454 79.4729ZM50.001 62.4442C47.5477 62.4442 45.1495 61.7139 43.1096 60.3458C41.0698 58.9777 39.4799 57.0331 38.541 54.7579C37.6022 52.4828 37.3566 49.9793 37.8352 47.564C38.3138 45.1487 39.4952 42.9301 41.2299 41.1888C42.9647 39.4475 45.1749 38.2616 47.5811 37.7812C49.9872 37.3008 52.4813 37.5474 54.7479 38.4897C57.0144 39.4321 58.9517 41.028 60.3147 43.0756C61.6777 45.1232 62.4051 47.5305 62.4051 49.9931C62.4023 53.2944 61.0945 56.4598 58.7689 58.7942C56.4433 61.1286 53.2899 62.4414 50.001 62.4442ZM76.5024 57.9246C75.7366 58.666 75.1641 59.585 74.8352 60.6008C74.5064 61.6165 74.4313 62.6978 74.6167 63.7495L79.1652 90.4039C79.2157 90.6923 79.1843 90.9892 79.0748 91.2606C78.9652 91.532 78.7818 91.767 78.5456 91.9388C78.3094 92.1107 78.0298 92.2124 77.7387 92.2324C77.4476 92.2523 77.1569 92.1898 76.8995 92.0518L72.3156 89.6325V80.8577C72.3098 76.9069 71.0402 73.0625 68.6938 69.8907C66.3474 66.7188 63.0482 64.3871 59.2822 63.2392C62.0915 61.2589 64.1991 58.4317 65.2992 55.1677C66.3993 51.9037 66.4347 48.3727 65.4002 45.0871C64.3658 41.8015 62.3153 38.9323 59.5462 36.8957C56.7772 34.8592 53.4338 33.7612 50.001 33.7612C46.5682 33.7612 43.2248 34.8592 40.4557 36.8957C37.6867 38.9323 35.6362 41.8015 34.6017 45.0871C33.5673 48.3727 33.6027 51.9037 34.7028 55.1677C35.8029 58.4317 37.9105 61.2589 40.7198 63.2392C36.9538 64.3871 33.6546 66.7188 31.3082 69.8907C28.9618 73.0625 27.6922 76.9069 27.6864 80.8577V89.6336L23.0982 92.0518C22.8409 92.1874 22.5509 92.2479 22.2611 92.2265C21.9713 92.2051 21.6932 92.1027 21.4584 91.9308C21.2236 91.759 21.0414 91.5245 20.9325 91.2541C20.8236 90.9837 20.7923 90.688 20.8421 90.4006L25.3853 63.7581C25.5715 62.7057 25.4969 61.6235 25.168 60.607C24.8391 59.5904 24.2661 58.6707 23.4995 57.9289L4.21692 39.0524C4.00475 38.8517 3.85452 38.594 3.78412 38.3101C3.71372 38.0261 3.72613 37.7278 3.81986 37.4507C3.90861 37.1702 4.07441 36.9206 4.2982 36.7306C4.52199 36.5405 4.79467 36.4178 5.08489 36.3764L31.734 32.4885C32.7866 32.3372 33.7865 31.9306 34.6472 31.3038C35.5079 30.6771 36.2033 29.8491 36.6732 28.8917L48.599 4.64052C48.7275 4.3773 48.9271 4.15555 49.1749 4.00047C49.4227 3.84538 49.7089 3.76316 50.001 3.76316C50.293 3.76316 50.5792 3.84538 50.8271 4.00047C51.0749 4.15555 51.2744 4.3773 51.403 4.64052L63.3288 28.8917C63.7976 29.8477 64.4915 30.6745 65.3505 31.3005C66.2095 31.9265 67.2076 32.3328 68.2583 32.4842L94.9075 36.3721C95.1985 36.4129 95.4722 36.5354 95.6969 36.7254C95.9217 36.9155 96.0884 37.1654 96.1779 37.4464C96.2715 37.7237 96.2838 38.0223 96.2132 38.3065C96.1427 38.5906 95.9922 38.8485 95.7797 39.0492L76.5024 57.9246Z" fill="#75609E"/>
</svg>
