<svg width="100" height="100" viewBox="0 0 100 100" fill="none" xmlns="http://www.w3.org/2000/svg">
<path d="M17.6297 19.8865L29.2152 31.4727C25.1465 36.0394 22.5665 41.9384 22.2061 48.4351H16.397C15.6596 44.6262 12.3081 41.7385 8.28623 41.7385C3.72593 41.7385 0.0164404 45.448 0.0164404 50.0073C0.0164404 54.5676 3.72593 58.2771 8.28623 58.2771C12.304 58.2771 15.6538 55.3954 16.3959 51.5918H22.2086C22.5803 58.0861 25.1707 63.9804 29.2474 68.5405L17.6624 80.1262C13.3394 76.8926 7.18456 77.1955 3.25531 81.1238C-1.05428 85.4334 -1.05428 92.4444 3.25531 96.753C7.56314 101.061 14.5771 101.06 18.8845 96.753C22.666 92.9752 23.3227 86.9218 19.8976 82.3547L31.4796 70.7718C36.0443 74.8481 41.9429 77.4331 48.4391 77.7939V83.5938C44.6311 84.3313 41.7435 87.6827 41.7435 91.7036C41.7435 96.2639 45.453 99.9734 50.0113 99.9734C54.5716 99.9734 58.2811 96.2639 58.2811 91.7036C58.2811 87.6867 55.3994 84.337 51.5958 83.595V77.7913C58.091 77.4188 63.986 74.8249 68.5463 70.7434L80.1334 82.3315C76.7135 86.8905 77.3543 92.9607 81.136 96.7407C85.4317 101.036 92.4507 101.053 96.7631 96.7407C101.103 92.4051 101.055 85.4032 96.7631 81.1115C93.0004 77.3469 86.9496 76.6621 82.3656 80.0999L70.7766 68.51C74.8494 63.9442 77.4332 58.046 77.7954 51.5496H83.5987C84.3361 55.3593 87.6875 58.2473 91.7076 58.2473C96.2679 58.2473 99.9774 54.5378 99.9774 49.9775C99.9774 45.4182 96.2679 41.7087 91.7076 41.7087C87.6917 41.7087 84.3421 44.5901 83.6 48.393H77.7938C77.4235 41.8971 74.8313 36.0011 70.7513 31.4397L82.3259 19.8659C86.8093 23.2303 92.8936 22.7068 96.7364 18.864C101.044 14.5555 101.044 7.54445 96.7364 3.23487C92.4266 -1.07498 85.4237 -1.0816 81.1073 3.23487C77.322 7.01823 76.6721 13.0701 80.0945 17.6335L68.5184 29.2088C63.9524 25.1333 58.0526 22.5473 51.5547 22.1842V16.3921C55.3643 15.6547 58.2523 12.3032 58.2523 8.28121C58.2523 3.72193 54.5428 0.0124411 49.9825 0.0124411C45.4222 0.0124411 41.7127 3.72193 41.7127 8.28121C41.7127 12.299 44.5944 15.6488 48.398 16.3908V22.1857C41.9009 22.5562 36.0042 25.1519 31.4442 29.238L19.8621 17.655C21.2842 15.7594 22.0912 13.4867 22.0946 11.071C22.0987 8.11371 20.9499 5.3352 18.8598 3.24617C14.5574 -1.05621 7.53418 -1.0595 3.23064 3.24617C-1.07688 7.55472 -1.07688 14.5658 3.23064 18.8743C7.01641 22.6582 13.0659 23.3083 17.6297 19.8865ZM8.28623 55.1204C5.46661 55.1204 3.1731 52.8269 3.1731 50.0073C3.1731 47.1887 5.46661 44.8952 8.28623 44.8952C11.1059 44.8952 13.3994 47.1887 13.3994 50.0073C13.3994 52.8269 11.1059 55.1204 8.28623 55.1204ZM16.6526 94.5211C13.5761 97.5956 8.56778 97.5976 5.48716 94.5211C2.4086 91.4436 2.4086 86.4342 5.48716 83.3557C8.56226 80.2826 13.5568 80.2831 16.6348 83.341C16.6425 83.3491 16.6447 83.36 16.6526 83.368C16.6592 83.3746 16.6683 83.3765 16.675 83.3829C19.7445 86.4813 19.7381 91.4336 16.6526 94.5211ZM55.1244 91.7036C55.1244 94.5232 52.8309 96.8167 50.0113 96.8167C47.1937 96.8167 44.9002 94.5232 44.9002 91.7036C44.9002 88.885 47.1937 86.5915 50.0113 86.5915C52.8309 86.5915 55.1244 88.885 55.1244 91.7036ZM94.5313 83.3433C97.5955 86.4054 97.631 91.4091 94.5313 94.5088C91.5637 97.4764 86.3355 97.4764 83.3679 94.5088C80.2679 91.4088 80.304 86.4052 83.3679 83.3433C86.4593 80.2519 91.4395 80.2516 94.5313 83.3433ZM91.7076 44.8654C94.5272 44.8654 96.8207 47.1589 96.8207 49.9775C96.8207 52.7971 94.5272 55.0906 91.7076 55.0906C88.89 55.0906 86.5965 52.7971 86.5965 49.9775C86.5965 47.1589 88.89 44.8654 91.7076 44.8654ZM49.9907 74.716C36.3674 74.716 25.2841 63.6235 25.2841 49.9888C25.2841 36.369 36.3439 25.2879 49.9467 25.2638C49.9571 25.2641 49.9658 25.2698 49.9763 25.2698C49.9889 25.2698 49.9993 25.2629 50.0118 25.2626C63.6358 25.2742 74.7179 36.3612 74.7179 49.9888C74.7179 63.6235 63.6244 74.716 49.9907 74.716ZM83.3391 5.46672C86.4089 2.3948 91.4151 2.37942 94.5046 5.46672C97.5811 8.54529 97.5811 13.5546 94.5046 16.6322C91.42 19.7146 86.4141 19.7093 83.3391 16.6322C80.245 13.5359 80.2473 8.56062 83.3391 5.46672ZM44.8694 8.28121C44.8694 5.46261 47.1629 3.1691 49.9825 3.1691C52.8021 3.1691 55.0956 5.46261 55.0956 8.28121C55.0956 11.1008 52.8021 13.3943 49.9825 13.3943C47.1629 13.3943 44.8694 11.1008 44.8694 8.28121ZM5.4625 5.47803C8.52702 2.41351 13.5517 2.40175 16.628 5.47803C18.12 6.97004 18.94 8.95426 18.9379 11.0669C18.9359 13.1523 18.1284 15.1086 16.6714 16.5898C16.6518 16.6075 16.6263 16.6133 16.6074 16.6322C16.5903 16.6493 16.5852 16.6724 16.569 16.69C13.5706 19.6251 8.43048 19.6115 5.4625 16.6425C2.38599 13.5649 2.38599 8.55556 5.4625 5.47803Z" fill="#75609E"/>
<path d="M48.8686 36.7877L31.3446 43.1247C29.7139 43.7914 29.7138 46.1047 31.3446 46.7715L36.6181 48.9236V57.4899C36.6181 59.1083 37.5778 60.5736 39.0657 61.2231C46.1725 64.3205 53.5371 63.9358 60.7246 61.1984C62.3009 60.5983 63.3593 59.0693 63.3593 57.3923V48.9309L68.6512 46.7715C68.6533 46.7715 68.6533 46.7704 68.6553 46.7704C70.2491 46.1148 70.3377 43.8111 68.5916 43.101L51.1889 36.8124C50.4182 36.4969 49.5756 36.4979 48.8686 36.7877ZM60.2026 57.3923C60.2026 57.7674 59.9622 58.1106 59.6025 58.2483C52.7096 60.8727 46.2299 60.9014 40.3276 58.3295C39.9926 58.1825 39.7747 57.8537 39.7747 57.4899V50.2117L48.809 53.8986C49.5735 54.211 50.4202 54.211 51.1848 53.8986L60.2026 50.2189V57.3923ZM50.001 50.9762C49.5282 50.7833 35.0503 44.8743 35.4035 45.0185L50.0524 39.7574L64.6026 45.0154C63.2635 45.562 49.1597 51.3197 50.001 50.9762Z" fill="#75609E"/>
</svg>
