<?xml version="1.0" encoding="UTF-8"?>
<svg id="Layer_2" data-name="Layer 2" xmlns="http://www.w3.org/2000/svg" viewBox="0 0 196.03 183.5">
  <defs>
    <style>
      .cls-1 {
        fill: #6c5898;
      }
    </style>
  </defs>
  <g id="_Ñëîé_1" data-name="Ñëîé 1">
    <path class="cls-1" d="M187.05,101.55c-6.85-7.72-15.52-10.23-20.07-11.03-13.08-2.31-23.69,3.26-28.86,6.79-.05.04-.1.08-.16.11l-.4-70.65c0-.66-.07-1.32-.2-1.97-.67-3.32-3.75-14.63-15.02-20.74-10.78-5.84-21.05-2.71-24.42-1.68-9.7,2.96-15.18,9.25-17.81,12.27-9.27,10.65-11.68,22.43-12.48,26.3-1.03,5-2.31,12.2-3.76,21.33l-2.88-20.68c0-.05-.02-.1-.02-.16-1.11-7.2-4.23-17.73-12.75-26.99-2.31-2.52-7.73-8.41-17.05-11.87C21.97-.84,13.58-.24,8.15.86,2.64,1.99-.91,7.36.21,12.87c1.12,5.51,6.5,9.07,12.01,7.95,2.82-.57,7.17-.89,11.87.85,4.72,1.75,7.49,4.76,9.14,6.56,5.03,5.47,6.91,11.84,7.61,16.25l13.09,94.16c.71,5.09,5.07,8.78,10.07,8.78.07,0,.14-.01.21-.01,5.27.16,9.85-3.77,10.41-9.1,4.86-45.93,10.02-78.95,12.95-93.27.53-2.57,2.13-10.41,7.89-17.02,1.8-2.07,4.27-4.91,8.38-6.16,2.85-.87,5.89-1.47,8.78.1,2.91,1.58,4.14,4.64,4.57,6.1l.64,113.2c-.11,1.88-.5,4.66-1.76,7.78-.16.39-1.97,4.77-4.89,7.63-6.09,5.96-11.86,6.91-24.19,6.42-5.59-.22-10.34,4.19-10.54,9.82-.2,5.62,4.19,10.34,9.82,10.54,1.06.04,2.11.06,3.14.06,14.92,0,26.84-3.94,35.44-11.74,4.98-4.51,8.2-9.72,10.39-15.08,3.53,1.94,7.64,3.6,12.34,4.59,6.16,1.29,27.29,4.23,40.39-11.97,11.07-13.69,10.66-34.67-.95-47.75ZM172.16,136.49c-5.84,7.23-17.08,5.53-20.39,4.84-4.93-1.03-8.75-3.48-11.42-5.79,1.72-10.55,3.24-17.3,9.27-21.42,2.09-1.43,7.64-4.64,13.82-3.55,1.57.28,5.52,1.27,8.38,4.49,4.93,5.55,5.09,15.57.35,21.43Z"/>
  </g>
</svg>