<?xml version="1.0" encoding="UTF-8"?>
<svg id="Layer_2" data-name="Layer 2" xmlns="http://www.w3.org/2000/svg" viewBox="0 0 185.25 171.55">
  <defs>
    <style>
      .cls-1 {
        fill: #6c5898;
      }
    </style>
  </defs>
  <g id="_Ñëîé_1" data-name="Ñëîé 1">
    <g>
      <path class="cls-1" d="M185.18,43.01c-.13-1.2-3.53-29.48-27.84-39.69-3.94-1.66-14.39-5.18-26.24-2.08-19.21,5.02-33.2,24.81-34.89,49.29l-3.59,28.75-3.59-28.75c-1.69-24.49-15.68-44.27-34.89-49.29-11.85-3.1-22.3.42-26.24,2.08C3.59,13.53.2,41.81.06,43.01c-.62,5.58,3.4,10.57,8.97,11.21,5.57.63,10.62-3.38,11.27-8.95.02-.18,2.23-17.6,15.49-23.17,1.58-.67,7.22-2.72,13.2-1.15,10.61,2.77,18.73,15.61,19.74,31.21.01.2.03.41.06.61l13.73,109.92c0,.08.03.15.04.23.03.19.06.37.09.55.03.14.06.28.1.43.04.17.08.33.13.49.05.16.1.32.16.48.05.14.1.27.15.4.07.18.16.36.24.54.05.11.1.21.15.31.1.2.21.39.33.57.05.08.09.16.15.24.13.2.27.39.41.58.05.06.09.13.14.19.16.2.32.39.5.58.04.05.08.1.13.15.22.23.44.44.68.65.1.08.2.16.3.24.14.11.28.23.43.34.13.1.27.18.4.27.13.08.25.17.38.25.14.08.28.15.42.23.14.08.28.15.43.22.13.06.27.12.4.18.17.07.34.14.51.2.12.04.24.08.37.12.2.06.4.12.6.17.11.03.22.05.33.08.23.05.45.09.69.12.06,0,2.85.07,2.91.06.23-.03.45-.1.68-.15.11-.02.22-.07.33-.09.2-.05.4-.11.59-.17.13-.04.25-.09.38-.13.17-.06.33-.13.49-.2.14-.06.28-.12.42-.18.14-.07.27-.14.41-.21.15-.08.3-.15.44-.24.12-.07.24-.15.35-.23.15-.09.29-.19.43-.29.13-.09.25-.19.37-.29.12-.1.25-.19.37-.3.23-.2.45-.41.66-.64.05-.06.1-.12.15-.18.16-.18.32-.36.47-.55.05-.07.1-.14.15-.21.14-.18.27-.37.4-.57.05-.08.1-.17.15-.25.11-.19.22-.37.32-.56.05-.11.1-.21.15-.32.08-.17.16-.35.24-.53.05-.13.1-.27.15-.41.06-.16.11-.31.16-.48.05-.16.09-.33.13-.49.03-.14.07-.28.1-.42.04-.18.07-.37.1-.55.01-.08.03-.15.04-.23l13.73-109.92c.03-.2.04-.4.06-.61,1.01-15.61,9.12-28.44,19.74-31.21,5.99-1.56,11.62.49,13.2,1.15,13.21,5.55,15.45,22.87,15.49,23.17.63,5.58,5.66,9.6,11.24,8.99,5.59-.62,9.62-5.65,9-11.24Z"/>
      <path class="cls-1" d="M102.69,162.9c2.18-14.93,4.22-30.13,6.09-45.6.71-5.86,1.38-11.68,2.03-17.48.38-3.42,3.17-28.79,8.67-55.49,1.04-5.06,2.98-13.87,10-18.22,2.33-1.44,4.63-2.05,6.19-2.45,7.81-1.99,14.55-.31,18.12.9-1.92-1.32-5.42-3.37-10.24-4.26,0,0-6.85-1.64-12.67.75-11.16,4.57-14.52,19.41-16.57,29.76-7.88,39.94-10.59,87.06-11.62,112.08Z"/>
      <path class="cls-1" d="M81.96,162.9c-2.18-14.93-4.22-30.13-6.09-45.6-.71-5.86-1.38-11.68-2.03-17.48-.38-3.42-3.17-28.79-8.67-55.49-1.04-5.06-2.98-13.87-10-18.22-2.39-1.48-4.74-2.09-6.19-2.45-8.04-1.98-14.94.19-18.32,1.54,1.74-1.39,5.29-3.85,10.45-4.9,0,0,6.74-1.68,12.67.75,11.16,4.57,14.52,19.41,16.57,29.76,7.88,39.94,10.59,87.06,11.62,112.08Z"/>
    </g>
  </g>
</svg>