<?xml version="1.0" encoding="UTF-8"?>
<svg id="Layer_2" data-name="Layer 2" xmlns="http://www.w3.org/2000/svg" viewBox="0 0 214.41 170.34">
  <defs>
    <style>
      .cls-1 {
        fill: #6c5898;
      }
    </style>
  </defs>
  <g id="_Ñëîé_1" data-name="Ñëîé 1">
    <g>
      <path class="cls-1" d="M210.61,34.96c-17.88-13.79-37.6-23.65-58.62-29.28C133.97.85,110.35-2.85,80.59,3c-9.74,1.92-24.76,5.18-41.26,15.16-8.74,5.29-17.27,10.46-24.58,21.01-3.09,4.45-10.75,15.85-10.74,32.12,0,4.85.17,16.12,7.59,27.04,13.45,19.8,38.09,19.86,39.3,19.84,18.38-.26,30.18-11.31,32.47-13.54,2.09-2.04,14.54-14.55,14.42-33.35-.12-18.62-12.52-36.04-31.44-44.26,21.34-7.52,50.75-10.45,80.58-2.46,18.51,4.96,35.91,13.67,51.74,25.88,4.28,3.3,10.42,2.51,13.72-1.77,3.3-4.28,2.51-10.42-1.77-13.72ZM78.23,71.29c0,15.07-12.26,27.33-27.33,27.33s-27.32-12.25-27.33-27.32c.02-2.17.3-5.41,1.6-9.09,1.37-3.86,3.31-6.65,4.71-8.37,5.02-6.03,12.57-9.88,21.01-9.88,15.07,0,27.33,12.26,27.33,27.33Z"/>
      <path class="cls-1" d="M163.51,52.34c-4.54-.08-18.79.34-31.17,11.08-.97.84-16.18,14.48-15.72,35.81.4,18.76,12.75,36.07,31.44,44.26-21.34,7.52-50.75,10.45-80.58,2.46-18.5-4.96-35.91-13.67-51.73-25.88-4.28-3.3-10.42-2.51-13.72,1.77-3.3,4.28-2.51,10.42,1.77,13.72,17.88,13.8,37.6,23.65,58.62,29.28,14.45,3.87,28.48,5.5,41.64,5.5s42.88-.42,71.02-17.98c16.76-10.46,23.89-21.21,25.64-23.95,3.95-6.2,9.84-15.72,9.68-29.17-.17-14.35-7.13-24.45-9.68-27.81-1.52-2.01-14.64-18.68-37.21-19.08ZM136.19,99.23c0-15.07,12.26-27.33,27.33-27.33s27.32,12.26,27.33,27.32c-.17,2.38-.66,5.64-2,9.3-1.29,3.53-2.95,6.26-4.32,8.16-5.02,6.03-12.57,9.88-21.01,9.88-15.07,0-27.33-12.26-27.33-27.33Z"/>
    </g>
  </g>
</svg>