<?xml version="1.0" encoding="UTF-8"?>
<svg id="Layer_2" data-name="Layer 2" xmlns="http://www.w3.org/2000/svg" viewBox="0 0 211.75 111.52">
  <defs>
    <style>
      .cls-1 {
        fill: #6c5898;
      }
    </style>
  </defs>
  <g id="_Ñëîé_1" data-name="Ñëîé 1">
    <g>
      <path class="cls-1" d="M198.65,111.52c-2.51,0-5.02-.92-6.99-2.78l-24.34-23-24.64,22.37c-3.94,3.58-9.97,3.52-13.84-.14l-24.34-23-24.64,22.37c-3.94,3.58-9.97,3.52-13.84-.14l-24.34-23-24.64,22.37c-4.16,3.78-10.6,3.47-14.39-.7-3.78-4.16-3.47-10.61.7-14.39l31.63-28.71c3.94-3.58,9.97-3.52,13.84.14l24.34,23,24.64-22.37c3.94-3.58,9.97-3.52,13.84.14l24.34,23,24.64-22.37c3.94-3.58,9.97-3.52,13.84.14l31.2,29.48c4.09,3.86,4.27,10.31.41,14.4-2,2.12-4.7,3.19-7.4,3.19Z"/>
      <path class="cls-1" d="M201.56,51.39c-2.51,0-5.02-.92-6.99-2.78l-24.34-23-24.64,22.37c-3.94,3.58-9.97,3.52-13.84-.14l-24.34-23-24.64,22.37c-3.94,3.58-9.97,3.52-13.84-.14l-24.34-23-24.64,22.37c-4.16,3.78-10.6,3.47-14.39-.7-3.78-4.16-3.47-10.61.7-14.39L37.88,2.64c3.94-3.58,9.97-3.52,13.84.14l24.34,23L100.7,3.41c3.94-3.58,9.97-3.52,13.84.14l24.34,23,24.64-22.37c3.94-3.58,9.97-3.52,13.84.14l31.2,29.48c4.09,3.86,4.27,10.31.41,14.4-2,2.12-4.7,3.19-7.4,3.19Z"/>
    </g>
  </g>
</svg>