<?xml version="1.0" encoding="UTF-8"?>
<svg id="Layer_2" data-name="Layer 2" xmlns="http://www.w3.org/2000/svg" viewBox="0 0 164.46 195.79">
  <defs>
    <style>
      .cls-1 {
        fill: #6c5898;
      }
    </style>
  </defs>
  <g id="_Ñëîé_1" data-name="Ñëîé 1">
    <path class="cls-1" d="M158.71,163.15c-5.06-2.45-11.15-.33-13.6,4.73-.65,1.34-3.12,5.8-7.79,7.15-6.76,1.96-13.2-4.33-13.27-4.4-4.08-4.06-5.6-9.55-6.42-12.5-4.89-17.67,2.79-36.43,6.07-44.44,1.58-3.85,2.72-5.93,3.93-8.14,1.72-3.12,3.49-6.35,5.93-13.16,2.56-7.15,6.43-17.96,7.05-30.75,0-.11.04-.77.06-1.4.75-22.9-5.07-39.66-17.31-49.81-17.38-14.42-45.45-13.82-62.59,1.33-12.25,10.83-17.18,26.97-14.64,47.97.26,2.18.66,4.36,1.16,6.51-.95-.06-1.91-.1-2.88-.1C19.93,66.15,0,86.07,0,110.57s19.93,44.42,44.42,44.42,44.42-19.93,44.42-44.42c0-6-1.58-11.76-1.58-11.76-2.46-8.73-6.49-12.11-11.77-20.89-4.14-6.89-7.79-12.95-9.13-20.62-.57-3.26-3.52-20.16,7.91-30.28,10.31-9.11,27.55-8,36.09-.92,4.91,4.07,10.62,13.19,9.96,33.47-.02.47-.04.97-.05,1.07-.47,9.78-3.6,18.51-5.88,24.89-1.89,5.28-3.09,7.46-4.6,10.21-1.37,2.49-2.92,5.31-4.93,10.23-3.72,9.08-13.6,33.21-6.86,57.59,1.13,4.08,3.78,13.65,11.69,21.51,1.28,1.27,11.24,10.71,24.93,10.71,2.66,0,5.46-.36,8.36-1.2,12.41-3.59,18.44-13.68,20.46-17.84,2.45-5.06.33-11.15-4.73-13.6ZM44.42,134.62c-13.26,0-24.05-10.79-24.05-24.05s10.79-24.05,24.05-24.05c5.69,0,10.93,1.99,15.05,5.31,1.54,1.18,3.79,3.2,5.67,6.3,0,0,3.46,5.69,3.33,12.44-.19,9.87-9.01,24.05-24.05,24.05Z"/>
  </g>
</svg>