<?xml version="1.0" encoding="UTF-8"?>
<svg id="Layer_2" data-name="Layer 2" xmlns="http://www.w3.org/2000/svg" viewBox="0 0 221.29 165.93">
  <defs>
    <style>
      .cls-1 {
        fill: #6c5898;
      }
    </style>
  </defs>
  <g id="_Ñëîé_1" data-name="Ñëîé 1">
    <g>
      <path class="cls-1" d="M150.94,117.68c-4.14,0-7.86-2.68-9.43-6.51-1.57-3.83-.66-8.32,2.29-11.21,3.56-3.49,15.1-16.43,14.28-35.74-.01-.22-1.31-23.14-19.21-35.77-2.74-1.94-12.79-8.25-26.86-8.12-10.8.1-20.5,3.39-28.05,9.54-18.79,15.3-15.57,44.61-15.54,44.9,1.5,11.69,6.79,20.68,10.97,26.16,2.35,3.08,2.74,7.42,1.02,10.89-1.72,3.47-5.25,5.86-9.13,5.86H10.18c-5.62,0-10.18-4.38-10.18-10s4.56-10,10.18-10h43.43c-2.71-7-4.53-13.27-5.4-19.97-.05-.41-4.86-40.86,22.88-63.45C82.28,5.17,96.36.19,111.83.05c.2,0,.41-.05.61-.05,19.3,0,33.1,8.23,38.17,11.81,26.1,18.41,27.76,50.16,27.82,51.5.58,13.63-3.1,25.38-7.6,34.01l40.27.35h0c5.62,0,10.18,4.18,10.18,9.8,0,5.62-4.55,10.18-10.18,10.18l-60.16.02h0Z"/>
      <path class="cls-1" d="M211.11,165.93c-.06,0-.12,0-.18,0H12.06c-5.62,0-10.1-4.55-10.01-10.18.09-5.57,4.64-10.09,10.18-10.18.06,0,.12,0,.18,0h198.88c5.62,0,10.1,4.55,10.01,10.18-.09,5.57-4.64,10.09-10.18,10.18Z"/>
    </g>
  </g>
</svg>