<?xml version="1.0" encoding="UTF-8"?>
<svg id="Layer_2" data-name="Layer 2" xmlns="http://www.w3.org/2000/svg" viewBox="0 0 159.54 194.43">
  <defs>
    <style>
      .cls-1 {
        fill: #6c5898;
      }
    </style>
  </defs>
  <g id="_Ñëîé_1" data-name="Ñëîé 1">
    <path class="cls-1" d="M155.7,176.55c-11.52-8.95-20.7-19.36-27.3-31.87-6.28-11.91-9.39-24.27-10.6-34.27h22.48c5.48,0,9.93-5.02,9.93-10.5s-4.44-10.5-9.93-10.5h-22.79c1.28-16,5.98-28.71,6.95-31.03,8.24-19.79,21.57-33.01,31.3-40.65,4.31-3.39,5.06-9.6,1.68-13.91-3.39-4.31-9.63-5.05-13.94-1.66-16.62,13.05-29.54,29.79-37.37,48.59-1.19,2.85-7.08,18.67-8.43,38.67h-35.81c-1.35-20-7.25-35.81-8.43-38.66C45.6,31.95,32.68,15.17,16.06,2.11,11.75-1.28,5.51-.5,2.12,3.81c-3.39,4.31-2.64,10.56,1.68,13.95,9.73,7.64,23.06,20.81,31.3,40.61.97,2.33,5.68,15.04,6.95,31.04h-23.74c-5.48,0-9.93,5.02-9.93,10.5s4.44,10.5,9.93,10.5h23.42c-1.21,10-4.32,22.36-10.6,34.27-6.6,12.51-15.78,23.16-27.3,32.11-4.33,3.36-5.11,9.48-1.75,13.81,1.96,2.52,4.89,3.78,7.85,3.78,2.13,0,4.27-.71,6.08-2.12,13.77-10.69,24.76-23.28,32.69-38.31,7.98-15.13,11.68-30.54,12.93-43.54h36.28c1.25,13,4.95,28.39,12.93,43.53,7.93,15.03,18.92,27.84,32.69,38.53,1.81,1.41,3.95,1.97,6.08,1.97,2.96,0,5.89-1.38,7.85-3.9,3.36-4.33,2.58-10.63-1.75-13.99Z"/>
  </g>
</svg>