<?xml version="1.0" encoding="UTF-8"?>
<svg id="Layer_2" data-name="Layer 2" xmlns="http://www.w3.org/2000/svg" viewBox="0 0 175.83 167.07">
  <defs>
    <style>
      .cls-1 {
        fill: #6c5898;
      }
    </style>
  </defs>
  <g id="_Ñëîé_1" data-name="Ñëîé 1">
    <path class="cls-1" d="M173.25,3.83c-1.07-1.05-3.2-2.83-6.36-3.54-1.06-.24-2.04-.31-2.87-.3l-73.44,2.57c-5.62.2-10.02,4.91-9.82,10.53.19,5.5,4.71,9.83,10.17,9.83.12,0,.24,0,.36,0l47.56-1.66L59.76,96.02,26.56,61.26c-3.88-4.07-10.33-4.21-14.4-.33-4.07,3.88-4.22,10.33-.33,14.4l33.13,34.68L3.19,149.49c-4.09,3.86-4.27,10.31-.41,14.4,2,2.12,4.7,3.19,7.4,3.19,2.51,0,5.03-.92,6.99-2.78l41.85-39.56,33.09,34.64c2,2.1,4.68,3.15,7.37,3.15,2.53,0,5.06-.94,7.03-2.82,4.07-3.88,4.22-10.33.33-14.4l-33.01-34.57,79.66-75.3-3.96,48.49c-.46,5.61,3.72,10.52,9.32,10.98.28.02.56.03.84.03,5.25,0,9.7-4.03,10.14-9.36l5.98-73.24c.04-.82.01-1.78-.17-2.85-.44-2.62-1.59-4.55-2.4-5.68Z"/>
  </g>
</svg>