<?xml version="1.0" encoding="UTF-8"?>
<svg id="Layer_2" data-name="Layer 2" xmlns="http://www.w3.org/2000/svg" viewBox="0 0 196.55 179.3">
  <defs>
    <style>
      .cls-1 {
        fill: #6c5898;
      }
    </style>
  </defs>
  <g id="_Ñëîé_1" data-name="Ñëîé 1">
    <path class="cls-1" d="M193.83,146.83l-15.49-16.4c-2.23-2.36-5.94-2.46-8.3-.24-2.36,2.23-2.46,5.94-.24,8.3l6.76,7.16c-3.07,1.13-10.72,3.21-18.62-.41-5.64-2.58-8.94-6.93-10.61-9.78l.37-37.08c.08-5.04.15-10.07.21-15.08.57-47.83.04-64.93-14.17-75.96C124.76.37,112.7-1.85,103.03,1.69c-4.85,1.77-9.08,4.92-12.49,9.07-1.13-1.21-2.38-2.34-3.76-3.42C77.73.3,65.64-1.9,55.99,1.72c-5.73,2.15-10.53,6.21-14.11,11.57-4.73-4.64-9.72-7.22-12.62-8.45C22.39,1.94,14.74,1.09,7.69,2.45,2.55,3.44-.82,8.42.17,13.56c.99,5.14,5.97,8.51,11.11,7.51,1.97-.38,5.95-.72,10.59,1.24,1.94.82,5.63,2.76,8.56,6.58,2.42,3.15,3.21,6.03,4.21,10.41.08.33.84,10.74.71,15.87l-.03,1.26c-.17,6.7-.32,13.76-.44,20.95l-1,57.17c-.09,5.24,4.08,9.56,9.32,9.65.06,0,.11,0,.17,0,5.16,0,9.39-4.14,9.48-9.32l1-57.17c.12-7.14.27-14.14.44-20.78l.03-1.26c.18-7.04.36-14.09.55-21.13.07-1.98.48-5.8,2.92-9.67,1.28-2.03,3.09-4.9,6.4-5.89,5.21-1.55,10.22,2.71,10.96,3.35,0,0,6.05,5.69,6.19,17.31,0,.42,0,.83.02,1.25.02.55.1,1.09.2,1.62.62,9.07.64,21.96.43,40.58-.21,17.69-.54,35.64-.98,53.34-.13,5.24,4.01,9.59,9.25,9.72.08,0,.16,0,.24,0,5.13,0,9.35-4.09,9.48-9.25.28-11.4.96-28.46.98-53.59,0-8.24.46-12.16.59-31.24.04-6.14.03-11.18.01-14.49-.21-2.79-.12-7.86,2.83-12.76,1.11-1.84,2.52-4.19,5.16-5.31,4.09-1.73,9.31.29,12.57,2.82,5.58,4.33,6.98,14.01,6.96,43.53,0,.1-.02.2-.02.3l-.31,31.92c-.2,12.8-.45,25.65-.77,38.35-.03,1.4.24,2.74.76,3.95.14.49.31.98.53,1.44,2.51,5.32,8.56,15.07,20.79,20.67,6.13,2.81,12.09,3.76,17.35,3.76,4.34,0,8.21-.65,11.32-1.44l-2.82,6.18c-1.35,2.95-.05,6.43,2.9,7.78.79.36,1.62.53,2.43.53,2.23,0,4.36-1.28,5.35-3.44l9.37-20.53c.24-.55,1-2.46.35-4.8-.58-2.11-1.97-3.32-2.46-3.71Z"/>
  </g>
</svg>