<?xml version="1.0" encoding="UTF-8"?>
<svg id="Layer_2" data-name="Layer 2" xmlns="http://www.w3.org/2000/svg" viewBox="0 0 177.9 185.63">
  <defs>
    <style>
      .cls-1 {
        fill: #6c5898;
      }
    </style>
  </defs>
  <g id="_Ñëîé_1" data-name="Ñëîé 1">
    <path class="cls-1" d="M168.43.13c-11.36-.8-22.02,2.24-30.01,8.55-5.57,4.4-8.68,9.42-10.01,11.57-3.68,5.95-4.87,10.76-5.83,14.64-.81,3.27-1.39,5.64-3.4,8.98,0,0-2.24,3.77-5.21,6.48-4.29,3.92-10.31,4.94-14.92,5.71-7.3,1.23-12.79.62-18.61-.02-7.64-.84-12.72-1.63-16.53-4.84-2.66-2.24-4.26-4.9-5.21-6.48-2.01-3.35-2.59-5.71-3.4-8.98-.95-3.87-2.14-8.69-5.83-14.64-1.33-2.15-4.44-7.17-10.01-11.57C31.49,3.22,20.84.18,9.47.98,3.86,1.37-.37,6.24.03,11.85c.39,5.61,5.25,9.85,10.87,9.44,4.45-.32,10.83.16,15.96,4.22,2.76,2.18,4.36,4.77,5.32,6.31,1.99,3.22,2.57,5.55,3.37,8.79.95,3.84,2.12,8.61,5.71,14.58,1.39,2.32,4.3,7.16,9.56,11.59.34.28.68.54,1.02.81-16.51,11.82-27.3,31.14-27.3,52.95,0,35.89,29.2,65.09,65.09,65.09s65.09-29.2,65.09-65.09c0-22.36-11.34-42.12-28.56-53.85.32-.25.64-.49.95-.76,5.27-4.43,8.17-9.27,9.56-11.59,3.58-5.97,4.76-10.75,5.71-14.58.8-3.23,1.37-5.57,3.37-8.79.96-1.54,2.56-4.13,5.32-6.31,5.13-4.05,11.5-4.53,15.96-4.22,5.62.39,10.48-3.83,10.87-9.44.39-5.61-3.83-10.48-9.44-10.87ZM89.61,165.26c-24.66,0-44.72-20.06-44.72-44.72s20.06-44.72,44.72-44.72,44.72,20.06,44.72,44.72-20.06,44.72-44.72,44.72Z"/>
  </g>
</svg>