<?xml version="1.0" encoding="UTF-8"?>
<svg id="Layer_2" data-name="Layer 2" xmlns="http://www.w3.org/2000/svg" viewBox="0 0 198.14 186.51">
  <defs>
    <style>
      .cls-1 {
        fill: #6c5898;
      }
    </style>
  </defs>
  <g id="_Ñëîé_1" data-name="Ñëîé 1">
    <path class="cls-1" d="M185.32,166.41c-4.59-1.08-8.97-2.91-13.03-5.43-3.66-2.27-6.67-4.87-9.12-7.47,9.42-7.05,19.24-16.34,25.93-29.77,6.08-12.21,9.37-27.36,9.03-41.56-.4-16.39-5.51-28.34-14.39-33.65-5.7-3.4-13.24-4.11-21.21-1.98-1.44.38-2.77.88-4.03,1.42-1.14-21.44-4.76-32.23-14.83-40.15C134.33.48,121.46-1.95,110.87,1.63c-5.49,1.85-10.14,5.23-13.76,9.73-1.17-1.25-2.46-2.42-3.88-3.54C83.91.48,71.04-1.95,60.44,1.63c-6.51,2.2-11.83,6.53-15.66,12.36-5.02-4.87-10.29-7.59-13.37-8.89C24.05,1.98,15.82,1.06,8.26,2.53,2.73,3.59-.88,8.93.19,14.45c1.07,5.52,6.42,9.14,11.93,8.07,2.11-.41,6.39-.77,11.37,1.33,2.08.88,6.04,2.97,9.19,7.06,2.6,3.38,3.44,6.48,4.52,11.18,1.08,4.7,1,7.81.76,17.04l-.03,1.36c-.19,7.2-.34,14.77-.47,22.49l-1.08,61.38c-.1,5.62,4.38,10.26,10,10.36.06,0,.12,0,.18,0,5.54,0,10.08-4.44,10.18-10l1.08-61.39c.13-7.67.29-15.18.47-22.32l.03-1.35c.13-4.93.22-8.65.09-12.02l.3-8.69c-.09-2.3.06-6.53,2.3-11.03,1.1-2.21,2.76-5.54,5.96-7,5.58-2.53,12.56,2.03,13.68,2.9,4.78,3.76,5.47,9.86,5.84,12.71,2.46,19.06,1.66,38.19,1.55,52.58-.02,2.91.02,6.94.01,15.26-.01,14.18-.09,17.44-.16,19.89-.16,5.26-.29,9.73-.52,13.25-.14,2.04-.18,4.09-.31,6.14-.09,1.45-.13,1.9-.07,2.71.21,2.77,1.24,4.7,1.49,5.18.44.82,1.15,2.11,2.61,3.26,0,0,2.56,2.01,5.82,2.01,0,0,.15,0,.27,0,5.5,0,10.03-4.39,10.18-9.92.5-19.1.85-38.47,1.05-57.57.17-16.33.23-29.31-.26-39.82.21-4.65.42-9.3.63-13.95.17-1.72.64-4.36,2.07-7.22.78-1.55,2.88-5.81,6.54-7.42,4.85-2.13,10.46.22,13.67,2.9,4.61,3.86,5.31,9.28,5.45,10.64,1.08,17.37,1.77,35.61,1.95,54.65.18,19.97-.21,39.08-1.05,57.23-7.21,4.49-14.95,8.28-23.06,11.27-5.28,1.95-7.97,7.81-6.02,13.08,1.95,5.28,7.81,7.97,13.08,6.02,8.61-3.18,16.87-7.14,24.64-11.79,3.88,4.55,8.96,9.3,15.48,13.35,5.94,3.69,12.37,6.36,19.11,7.95.79.19,1.57.27,2.34.27,4.62,0,8.8-3.16,9.9-7.85,1.29-5.47-2.1-10.96-7.58-12.25ZM158.85,130.63l2.03-58c.87-1.92,2.94-5.35,6.88-6.4,3.31-.88,5.14-.44,5.52-.21,4.6,2.75,8.07,27.57-2.43,48.64-3.18,6.38-7.37,11.55-12.01,15.97Z"/>
  </g>
</svg>