<svg xmlns="http://www.w3.org/2000/svg" width="27.989" height="31.05" viewBox="0 0 27.989 31.05">
  <g id="Icon_Talking_chart_Nav" data-name="Icon Talking chart Nav" transform="translate(-5.484 -9.862)">
    <g id="Component_174_5" data-name="Component 174 – 5" transform="translate(6.284 10.112)">
      <g id="GM_Icon_Talking_Chart" data-name="GM Icon Talking Chart">
        <g id="icon_3">
          <g id="Group_607" transform="translate(16.522)">
            <path id="Path_667" d="M29.746,9.619A.515.515,0,0,0,29,9.642a.524.524,0,0,0,.023.746h0a11.733,11.733,0,0,1,.579,16.486,7.412,7.412,0,0,1-.6.606.524.524,0,0,0-.023.746.475.475,0,0,0,.394.163.47.47,0,0,0,.347-.14A12.752,12.752,0,0,0,30.394,10.3c-.208-.233-.44-.443-.648-.676Z" transform="translate(-23.351 -9.473)" fill="#707070" stroke="#707070" stroke-width="0.5"/>
            <path id="Path_668" d="M41.739,17.957A.516.516,0,0,0,41,18a.525.525,0,0,0,.046.746h0a8.89,8.89,0,0,1,.718,12.475c-.232.257-.463.49-.718.723a.546.546,0,0,0-.046.746.529.529,0,0,0,.394.187.47.47,0,0,0,.347-.14,9.939,9.939,0,0,0,.81-13.968c-.278-.3-.533-.56-.81-.816Z" transform="translate(-37.085 -15.893)" fill="#707070" stroke="#707070" stroke-width="0.5"/>
            <path id="Path_669" d="M51.5,24.391a.517.517,0,0,0-.741.07.525.525,0,0,0,.069.746h0a6.619,6.619,0,0,1,.857,9.281,8.343,8.343,0,0,1-.9.909.526.526,0,0,0,.324.933.551.551,0,0,0,.324-.117A7.66,7.66,0,0,0,52.542,25.44,5.57,5.57,0,0,0,51.5,24.391Z" transform="translate(-48.88 -20.817)" fill="#707070" stroke="#707070" stroke-width="0.5"/>
            <path id="Path_670" d="M61.815,31.491a.517.517,0,0,0-.741.07.525.525,0,0,0,.069.746l.046.047a4.216,4.216,0,0,1-.046,6.786.55.55,0,0,0-.116.746.494.494,0,0,0,.417.21.654.654,0,0,0,.3-.093,5.285,5.285,0,0,0,1.181-7.345,4.812,4.812,0,0,0-1.112-1.166Z" transform="translate(-60.932 -26.261)" fill="#707070" stroke="#707070" stroke-width="0.5"/>
          </g>
          <path id="Path_671" d="M61.274,31.274a.9.9,0,0,1,.75-.6L63.3,30.5a3.931,3.931,0,0,0,2.25-1.152,2.762,2.762,0,0,0,.525-2.511,13.868,13.868,0,0,0-.956-2.077,5.136,5.136,0,0,1-.619-2.285,3.322,3.322,0,0,1,.469-1.964,4.017,4.017,0,0,1,1.8-1.6,4.927,4.927,0,0,1,3.938.132,3.359,3.359,0,0,1,1.275,1.341,4.653,4.653,0,0,1,.525,2.058c-.394.472-.281.717-.281.717l.581,1.4a.145.145,0,0,1-.037.17c-.394.264-.506,1.548-.469,2.077-.15.548-.806.453-.806.453a3.768,3.768,0,0,0-.488-.076c-.45-.019-.375.548-.375.548a2.986,2.986,0,0,0,.713,1.586,6.029,6.029,0,0,0,3.113,1.246,1.561,1.561,0,0,1,1.106.755l4.181,10.234v.906a2.939,2.939,0,0,1-2.906,2.964H62.305A2.923,2.923,0,0,1,59.4,42.47h0v-.906Z" transform="translate(-59.399 -15.416)" fill="none" stroke="#707070" stroke-linejoin="round" stroke-width="1.6"/>
        </g>
      </g>
    </g>
  </g>
</svg>
