<svg xmlns="http://www.w3.org/2000/svg" width="36.334" height="30.289" viewBox="0 0 36.334 30.289">
  <g id="icon_cart" data-name="icon cart" transform="translate(-1196.805 -22)">
    <text id="_3" data-name="3" transform="translate(1213 41)" fill="#5b9728" font-size="19" font-family="Bilo-Bold, Bilo" font-weight="700"><tspan x="0" y="0">3</tspan></text>
    <g id="Cart_Header" data-name="Cart Header" transform="translate(100.192 -95.134)">
      <g id="Group_6213" data-name="Group 6213" transform="translate(1109.379 141.823)">
        <path id="Ellipse_205" data-name="Ellipse 205" d="M1.55-1A2.55,2.55,0,1,1-1,1.55,2.553,2.553,0,0,1,1.55-1Z" transform="translate(1 1)" fill="#777"/>
        <path id="Ellipse_205_-_Outline" data-name="Ellipse 205 - Outline" d="M1.55-1.5A3.05,3.05,0,1,1-1.5,1.55,3.053,3.053,0,0,1,1.55-1.5Zm0,5.1A2.05,2.05,0,1,0-.5,1.55,2.052,2.052,0,0,0,1.55,3.6Z" transform="translate(1 1)" fill="#777"/>
        <path id="Ellipse_206" data-name="Ellipse 206" d="M1.55-1A2.55,2.55,0,1,1-1,1.55,2.553,2.553,0,0,1,1.55-1Z" transform="translate(15.025 1)" fill="#777"/>
        <path id="Ellipse_206_-_Outline" data-name="Ellipse 206 - Outline" d="M1.55-1.5A3.05,3.05,0,1,1-1.5,1.55,3.053,3.053,0,0,1,1.55-1.5Zm0,5.1A2.05,2.05,0,1,0-.5,1.55,2.052,2.052,0,0,0,1.55,3.6Z" transform="translate(15.025 1)" fill="#777"/>
      </g>
      <g id="Group_6216" data-name="Group 6216" transform="translate(1096.773 119.356)">
        <path id="Path_6418" data-name="Path 6418" d="M31.491,22.4H14.555a1.5,1.5,0,0,1-1.4-.959L6.406,4H2.5a1.5,1.5,0,0,1,0-3H7.434a1.5,1.5,0,0,1,1.4.959L15.583,19.4h14.9l3.962-9.737a1.5,1.5,0,1,1,2.779,1.131L32.88,21.467A1.5,1.5,0,0,1,31.491,22.4Z" transform="translate(-1.16 -1.16)" fill="#777"/>
      </g>
    </g>
  </g>
</svg>
