<svg xmlns="http://www.w3.org/2000/svg" xmlns:xlink="http://www.w3.org/1999/xlink" width="257.804" height="52.017" viewBox="0 0 257.804 52.017">
  <defs>
    <clipPath id="clip-path">
      <rect id="Rectangle_3317" data-name="Rectangle 3317" width="257.804" height="52.017" fill="none"/>
    </clipPath>
  </defs>
  <g id="gm_logo" data-name="gm logo" clip-path="url(#clip-path)">
    <g id="Group_6041" data-name="Group 6041">
      <path id="Path_4772" data-name="Path 4772" d="M172.445,50.034A9.124,9.124,0,0,1,181.559,41a9.02,9.02,0,0,1,6.414,2.559l-1.929,1.932a5.955,5.955,0,0,0-4.485-1.932,6.476,6.476,0,0,0,0,12.941,6.142,6.142,0,0,0,5.739-3.96h-5.739V50.034h9.066a9.146,9.146,0,0,1-9.066,9.03c-5.353,0-9.114-3.67-9.114-9.03" transform="translate(-135.397 -32.131)" fill="#656464"/>
      <path id="Path_4773" data-name="Path 4773" d="M267.164,42.119H282.6V44.63H270.009v5.022H282.4v2.511H270.009v5.022H282.6V59.7H267.164Z" transform="translate(-209.768 -33.005)" fill="#656464"/>
      <path id="Path_4774" data-name="Path 4774" d="M352.9,42.119h2.411L367.951,55.5V42.119H370.8V59.7h-2.411L355.75,46.32V59.7H352.9Z" transform="translate(-277.088 -33.005)" fill="#656464"/>
      <path id="Path_4775" data-name="Path 4775" d="M451.44,42.119h15.432V44.63H454.285v5.022h12.394v2.511H454.285v5.022h12.586V59.7H451.44Z" transform="translate(-354.454 -33.005)" fill="#656464"/>
      <path id="Path_4776" data-name="Path 4776" d="M539.379,44.63h-6.462V42.119h15.721V44.63h-6.462V59.7h-2.8Z" transform="translate(-418.427 -33.005)" fill="#656464"/>
      <rect id="Rectangle_3315" data-name="Rectangle 3315" width="2.845" height="17.577" transform="translate(132.573 9.114)" fill="#656464"/>
      <path id="Path_4777" data-name="Path 4777" d="M643.8,50.034A9.124,9.124,0,0,1,652.91,41a9.021,9.021,0,0,1,6.414,2.559L657.4,45.495a5.956,5.956,0,0,0-4.485-1.932,6.476,6.476,0,0,0,0,12.941,6.074,6.074,0,0,0,4.485-1.98l1.881,1.883a9,9,0,0,1-6.366,2.656c-5.353,0-9.114-3.67-9.114-9.03" transform="translate(-505.485 -32.131)" fill="#656464"/>
      <path id="Path_4778" data-name="Path 4778" d="M758.717,42.119h1.929l6.992,7,7.041-7h1.881V59.7h-2.8V46.755l-6.124,5.891-6.124-5.891V59.7h-2.8Z" transform="translate(-595.717 -33.005)" fill="#656464"/>
      <path id="Path_4779" data-name="Path 4779" d="M858.268,42.119h2.508L868.3,59.7h-2.8l-1.061-2.511H854.6L853.59,59.7h-2.845Zm5.112,12.555L859.522,45.4l-3.858,9.271Z" transform="translate(-667.974 -33.005)" fill="#656464"/>
      <path id="Path_4780" data-name="Path 4780" d="M932.4,44.63h-6.462V42.119h15.721V44.63H935.2V59.7h-2.8Z" transform="translate(-727.013 -33.005)" fill="#656464"/>
      <path id="Path_4781" data-name="Path 4781" d="M1010.108,42.12h10.32a4.907,4.907,0,0,1,5.064,5.022,4.972,4.972,0,0,1-3.231,4.732l3.231,7.823h-2.942l-3.135-7.533h-6.462V59.7h-2.845Zm10.031,7.533a2.511,2.511,0,0,0,0-5.022h-7.185v5.022Z" transform="translate(-793.101 -33.006)" fill="#656464"/>
      <rect id="Rectangle_3316" data-name="Rectangle 3316" width="2.845" height="17.577" transform="translate(235.042 9.114)" fill="#656464"/>
      <path id="Path_4782" data-name="Path 4782" d="M1123.6,50.908l-7.282-8.788h3.423l5.546,6.76,5.642-6.76h3.328l-7.282,8.74,7.282,8.837h-3.424l-5.594-6.76L1119.6,59.7h-3.328Z" transform="translate(-876.457 -33.005)" fill="#656464"/>
    </g>
    <path id="Path_4783" data-name="Path 4783" d="M758.828,151.04a.879.879,0,0,1,.932-.939.868.868,0,0,1,.932.939v7.684l8.842-8.36a.9.9,0,0,1,.606-.24.93.93,0,0,1,.91.9.909.909,0,0,1-.325.655l-4.7,4.475c3.316,1.441,1.994,7.465,4.963,7.465a.84.84,0,0,1,.824.895.822.822,0,0,1-.824.873c-5.114,0-2.969-7.661-6.5-7.793l-3.792,3.6v3.252a.9.9,0,0,1-.932.939.89.89,0,0,1-.932-.939Z" transform="translate(-595.804 -117.62)" fill="#656464"/>
    <path id="Path_4784" data-name="Path 4784" d="M835.7,181.921c0-2.03-1.019-2.968-2.687-2.968s-2.687.939-2.687,2.968v3.929a.844.844,0,0,1-.91.873.816.816,0,0,1-.889-.873v-3.929c0-3.165,1.8-4.584,4.486-4.584s4.486,1.419,4.486,4.584v3.929a.816.816,0,0,1-.888.873.832.832,0,0,1-.91-.873Z" transform="translate(-650.53 -138.962)" fill="#656464"/>
    <path id="Path_4785" data-name="Path 4785" d="M887.824,186.94a4.807,4.807,0,1,1,5.028-4.78c0,2.838-2.015,4.78-5.028,4.78m0-8.054a3.254,3.254,0,1,0,3.164,3.274,3.061,3.061,0,0,0-3.164-3.274" transform="translate(-693.14 -138.961)" fill="#656464"/>
    <path id="Path_4786" data-name="Path 4786" d="M953.55,179.2a.8.8,0,0,1,.888-.851.817.817,0,0,1,.91.851v4.213c0,3.209-1.734,4.1-3.532,4.1a3.055,3.055,0,0,1-3.1-1.921,2.982,2.982,0,0,1-3.077,1.921c-1.777,0-3.532-.873-3.532-4.1V179.2a.8.8,0,0,1,.888-.851.817.817,0,0,1,.91.851v4.3c0,1.877.975,2.445,1.951,2.445s1.95-.568,1.95-2.445v-4.3a.817.817,0,0,1,.91-.851.8.8,0,0,1,.889.851v4.3c0,1.877,1.018,2.445,1.994,2.445.954,0,1.95-.568,1.95-2.445Z" transform="translate(-739.709 -139.752)" fill="#656464"/>
    <path id="Path_4787" data-name="Path 4787" d="M1046.388,191.769a10.687,10.687,0,0,1-3.554-.546.76.76,0,0,1-.563-.764.732.732,0,0,1,1-.742,10.325,10.325,0,0,0,3.056.48c1.82,0,3.272-.742,3.272-2.969v-1.615c-.108,1.113-1.279,2.117-3.12,2.117-2.492,0-4.1-1.31-4.1-4.584V179.2a.9.9,0,0,1,1.8,0V183.1c0,2.117,1.17,2.9,2.708,2.9,1.561,0,2.666-.83,2.709-2.838V179.2a.819.819,0,0,1,.888-.851.843.843,0,0,1,.889.851v8.033c0,3.405-2.276,4.54-4.984,4.54" transform="translate(-818.352 -139.752)" fill="#656464"/>
    <path id="Path_4788" data-name="Path 4788" d="M1102.272,186.94a4.807,4.807,0,1,1,5.027-4.78c0,2.838-2.015,4.78-5.027,4.78m0-8.054a3.254,3.254,0,1,0,3.164,3.274,3.061,3.061,0,0,0-3.164-3.274" transform="translate(-861.516 -138.961)" fill="#656464"/>
    <path id="Path_4789" data-name="Path 4789" d="M1163.727,179.2a.9.9,0,0,1,1.8,0v3.951c0,3.165-1.885,4.584-4.486,4.584s-4.486-1.419-4.486-4.584V179.2a.808.808,0,0,1,.888-.851.836.836,0,0,1,.91.851v3.885c0,1.943.932,2.969,2.688,2.969s2.687-1.026,2.687-2.969Z" transform="translate(-908.084 -139.752)" fill="#656464"/>
    <path id="Path_4790" data-name="Path 4790" d="M48.3,8.544A9.11,9.11,0,0,1,51.45,9.1L54.575,3.65,48.3,0,42.027,3.649,45.152,9.1A9.11,9.11,0,0,1,48.3,8.544" transform="translate(-32.998 -0.001)" fill="#518322"/>
    <path id="Path_4791" data-name="Path 4791" d="M101.849,35.211H108.1v-7.3l-6.274-3.649L98.7,29.721a9.258,9.258,0,0,1,3.147,5.49" transform="translate(-77.497 -19.014)" fill="#fa9a00"/>
    <path id="Path_4792" data-name="Path 4792" d="M9.4,29.721,6.274,24.265,0,27.914v7.3H6.254A9.259,9.259,0,0,1,9.4,29.721" transform="translate(0 -19.014)" fill="#dc0b17"/>
    <path id="Path_4793" data-name="Path 4793" d="M98.7,95.144l3.127,5.456,6.274-3.649v-7.3h-6.254a9.259,9.259,0,0,1-3.147,5.49" transform="translate(-77.497 -70.253)" fill="#c09969"/>
    <path id="Path_4794" data-name="Path 4794" d="M48.3,123a9.11,9.11,0,0,1-3.149-.558L42.027,127.9l6.274,3.648,6.274-3.649-3.125-5.453A9.111,9.111,0,0,1,48.3,123" transform="translate(-32.998 -95.947)" fill="#e44c66"/>
    <path id="Path_4795" data-name="Path 4795" d="M6.255,89.654H0v7.3L6.274,100.6,9.4,95.144a9.257,9.257,0,0,1-3.147-5.49" transform="translate(0 -70.253)" fill="#c09969"/>
  </g>
</svg>
