<svg xmlns="http://www.w3.org/2000/svg" width="295.211" height="59.138" viewBox="0 0 295.211 59.138">
  <g id="GM-RGB-logo_Know_you-SVG" data-name="GM-RGB-logo Know you-SVG" transform="translate(-71.24 -82.31)">
    <g id="Group_1640" data-name="Group 1640" transform="translate(113.661 92.396)">
      <g id="Group_1638" data-name="Group 1638" transform="translate(0 0)">
        <path id="Path_1499" data-name="Path 1499" d="M243.682,133.576a10.518,10.518,0,0,1,17.779-7.356l-2.209,2.2a6.843,6.843,0,0,0-5.137-2.2,7.359,7.359,0,0,0,0,14.711,7.029,7.029,0,0,0,6.571-4.5h-6.571v-2.854H264.5a10.435,10.435,0,0,1-10.381,10.266c-6.131,0-10.436-4.172-10.436-10.266Z" transform="translate(-243.68 -123.31)" fill="#444"/>
        <path id="Path_1500" data-name="Path 1500" d="M338.41,124.43h17.671v2.854H341.667v5.71h14.192v2.854H341.667v5.71h14.414v2.854H338.41Z" transform="translate(-315.106 -124.154)" fill="#444"/>
        <path id="Path_1501" data-name="Path 1501" d="M424.16,124.43h2.76l14.468,15.206V124.43h3.257v19.983h-2.76l-14.468-15.206v15.206H424.16Z" transform="translate(-379.761 -124.154)" fill="#444"/>
        <path id="Path_1502" data-name="Path 1502" d="M522.69,124.43h17.671v2.854H525.947v5.71h14.192v2.854H525.947v5.71h14.414v2.854H522.69Z" transform="translate(-454.051 -124.154)" fill="#444"/>
        <path id="Path_1503" data-name="Path 1503" d="M611.57,127.284h-7.4V124.43h18v2.854h-7.4v17.127h-3.2Z" transform="translate(-515.487 -124.154)" fill="#444"/>
        <path id="Path_1504" data-name="Path 1504" d="M688.34,124.43H691.6v19.983H688.34Z" transform="translate(-578.95 -124.154)" fill="#444"/>
        <path id="Path_1505" data-name="Path 1505" d="M715.042,133.576a10.518,10.518,0,0,1,17.779-7.356l-2.209,2.2a6.844,6.844,0,0,0-5.137-2.2,7.359,7.359,0,0,0,0,14.711,6.981,6.981,0,0,0,5.137-2.251l2.152,2.14a10.341,10.341,0,0,1-7.289,3.019c-6.13,0-10.436-4.172-10.436-10.266Z" transform="translate(-599.082 -123.31)" fill="#444"/>
        <path id="Path_1506" data-name="Path 1506" d="M829.962,124.43h2.209l8.008,7.961,8.062-7.961h2.153v19.983h-3.2V129.7l-7.014,6.7-7.014-6.7v14.711h-3.2V124.43Z" transform="translate(-685.731 -124.154)" fill="#444"/>
        <path id="Path_1507" data-name="Path 1507" d="M930.613,124.43h2.871l8.615,19.983h-3.2l-1.215-2.854H926.416l-1.159,2.854H922l8.615-19.983Zm5.852,14.273-4.418-10.539L927.629,138.7h8.834Z" transform="translate(-755.128 -124.154)" fill="#444"/>
        <path id="Path_1508" data-name="Path 1508" d="M1004.59,127.284h-7.4V124.43h18v2.854h-7.4v17.127h-3.2Z" transform="translate(-811.821 -124.154)" fill="#444"/>
        <path id="Path_1509" data-name="Path 1509" d="M1081.36,124.43h11.818a5.731,5.731,0,0,1,2.1,11.09l3.7,8.893h-3.368l-3.589-8.564h-7.4v8.564h-3.257V124.43Zm11.486,8.564a2.854,2.854,0,1,0,0-5.707h-8.229V133h8.229Z" transform="translate(-875.284 -124.154)" fill="#444"/>
        <path id="Path_1510" data-name="Path 1510" d="M1165.3,124.43h3.257v19.983H1165.3Z" transform="translate(-938.575 -124.154)" fill="#444"/>
        <path id="Path_1511" data-name="Path 1511" d="M1195.914,134.42l-8.337-9.99h3.921l6.349,7.685,6.46-7.685h3.811l-8.34,9.936,8.34,10.047H1204.2l-6.406-7.685-6.46,7.685h-3.811l8.394-9.99Z" transform="translate(-955.329 -124.154)" fill="#444"/>
      </g>
      <g id="Group_1639" data-name="Group 1639" transform="translate(144.259 26.839)">
        <path id="Path_1512" data-name="Path 1512" d="M830.08,233.478a1.068,1.068,0,1,1,2.135,0v8.736l10.126-9.5a1.033,1.033,0,0,1,.694-.273,1.062,1.062,0,0,1,1.043,1.018,1.029,1.029,0,0,1-.371.745l-5.385,5.087c3.8,1.638,2.283,8.487,5.683,8.487a.958.958,0,0,1,.942,1.018.937.937,0,0,1-.942.994c-5.857,0-3.4-8.711-7.444-8.859l-4.342,4.094v3.7a1.068,1.068,0,1,1-2.135,0V233.485Z" transform="translate(-830.08 -232.41)" fill="#444"/>
        <path id="Path_1513" data-name="Path 1513" d="M907.987,264.86c0-2.307-1.166-3.375-3.078-3.375s-3.078,1.068-3.078,3.375v4.468a.965.965,0,0,1-1.043.994.932.932,0,0,1-1.018-.994V264.86c0-3.6,2.059-5.21,5.137-5.21s5.137,1.614,5.137,5.21v4.468a.933.933,0,0,1-1.019.994.951.951,0,0,1-1.043-.994V264.86Z" transform="translate(-882.626 -252.949)" fill="#444"/>
        <path id="Path_1514" data-name="Path 1514" d="M959.807,270.568c-3.449,0-5.757-2.234-5.757-5.459s2.308-5.459,5.757-5.459,5.757,2.234,5.757,5.483S963.256,270.568,959.807,270.568Zm0-9.156a3.491,3.491,0,0,0-3.624,3.722,3.624,3.624,0,1,0,7.247,0A3.5,3.5,0,0,0,959.807,261.411Z" transform="translate(-923.552 -252.949)" fill="#444"/>
        <path id="Path_1515" data-name="Path 1515" d="M1026.477,261.627a.913.913,0,0,1,1.018-.967.932.932,0,0,1,1.043.967v4.79c0,3.648-1.985,4.664-4.044,4.664a3.5,3.5,0,0,1-3.547-2.185,3.416,3.416,0,0,1-3.523,2.185c-2.035,0-4.044-.994-4.044-4.664v-4.79a.913.913,0,0,1,1.019-.967.932.932,0,0,1,1.043.967v4.888c0,2.133,1.117,2.78,2.234,2.78s2.234-.645,2.234-2.78v-4.888a.933.933,0,0,1,1.043-.967.914.914,0,0,1,1.018.967v4.888c0,2.133,1.166,2.78,2.283,2.78s2.234-.645,2.234-2.78v-4.888Z" transform="translate(-968.287 -253.71)" fill="#444"/>
        <path id="Path_1516" data-name="Path 1516" d="M1118.243,275.92a12.319,12.319,0,0,1-4.069-.62.865.865,0,0,1-.645-.868.836.836,0,0,1,1.141-.844,11.9,11.9,0,0,0,3.5.546c2.084,0,3.747-.844,3.747-3.375v-1.835c-.123,1.267-1.464,2.406-3.574,2.406-2.854,0-4.689-1.488-4.689-5.21v-4.492a1.033,1.033,0,0,1,2.061,0v4.443c0,2.406,1.341,3.3,3.1,3.3s3.053-.942,3.1-3.225v-4.517a.936.936,0,0,1,1.018-.967.95.95,0,0,1,1.019.967v9.132c0,3.872-2.605,5.161-5.707,5.161Z" transform="translate(-1043.799 -253.71)" fill="#444"/>
        <path id="Path_1517" data-name="Path 1517" d="M1174.257,270.568c-3.449,0-5.757-2.234-5.757-5.459s2.307-5.459,5.757-5.459,5.757,2.234,5.757,5.483S1177.706,270.568,1174.257,270.568Zm0-9.156a3.491,3.491,0,0,0-3.624,3.722,3.624,3.624,0,1,0,7.247,0A3.5,3.5,0,0,0,1174.257,261.411Z" transform="translate(-1085.246 -252.949)" fill="#444"/>
        <path id="Path_1518" data-name="Path 1518" d="M1236.022,261.627a1.033,1.033,0,0,1,2.062,0v4.492c0,3.6-2.16,5.21-5.137,5.21s-5.137-1.614-5.137-5.21v-4.492a.923.923,0,0,1,1.019-.967.955.955,0,0,1,1.043.967v4.416c0,2.209,1.068,3.375,3.078,3.375s3.078-1.166,3.078-3.375v-4.416Z" transform="translate(-1129.966 -253.71)" fill="#444"/>
      </g>
    </g>
    <g id="Group_1641" data-name="Group 1641" transform="translate(71.24 82.31)">
      <path id="Path_1519" data-name="Path 1519" d="M120.471,92.022a10.5,10.5,0,0,1,3.606.635l3.579-6.2-7.183-4.148-7.183,4.148,3.579,6.2a10.489,10.489,0,0,1,3.606-.635Z" transform="translate(-102.945 -82.31)" fill="#54931e"/>
      <path id="Path_1520" data-name="Path 1520" d="M173.554,119.023h7.161v-8.3l-7.183-4.148-3.582,6.2A10.5,10.5,0,0,1,173.554,119.023Z" transform="translate(-145.667 -100.609)" fill="#f7ac08"/>
      <path id="Path_1521" data-name="Path 1521" d="M82.008,112.782l-3.582-6.2-7.186,4.148v8.3H78.4a10.5,10.5,0,0,1,3.6-6.241Z" transform="translate(-71.24 -100.609)" fill="#fc0b0b"/>
      <path id="Path_1522" data-name="Path 1522" d="M169.95,178.2l3.582,6.2,7.183-4.148v-8.3h-7.161A10.5,10.5,0,0,1,169.95,178.2Z" transform="translate(-145.667 -149.905)" fill="#c9a97d"/>
      <path id="Path_1523" data-name="Path 1523" d="M120.456,205.385a10.5,10.5,0,0,1-3.606-.635l-3.579,6.2,7.183,4.148,7.183-4.148-3.579-6.2a10.489,10.489,0,0,1-3.606.635Z" transform="translate(-102.93 -174.629)" fill="#f66378"/>
      <path id="Path_1524" data-name="Path 1524" d="M78.411,171.96H71.25v8.3l7.186,4.148,3.582-6.2a10.5,10.5,0,0,1-3.6-6.241Z" transform="translate(-71.248 -149.905)" fill="#c9a97d"/>
    </g>
  </g>
</svg>
