<svg id="Icon_Insta_LM" data-name="Icon Insta LM" xmlns="http://www.w3.org/2000/svg" width="46.755" height="46.755" viewBox="0 0 46.755 46.755">
  <path id="Path_4801" data-name="Path 4801" d="M0,417.516a23.378,23.378,0,1,1,23.378,23.378A23.378,23.378,0,0,1,0,417.516" transform="translate(0 -394.138)" fill="#383838"/>
  <g id="Group_6030" data-name="Group 6030" transform="translate(11.676 11.676)">
    <path id="Path_4807" data-name="Path 4807" d="M48.2,436.311a6.03,6.03,0,1,0,6.031,6.03,6.037,6.037,0,0,0-6.031-6.03m0,9.984a3.954,3.954,0,1,1,3.955-3.954,3.958,3.958,0,0,1-3.955,3.954" transform="translate(-36.501 -430.639)" fill="#fff"/>
    <path id="Path_4808" data-name="Path 4808" d="M69.931,432.03a1.523,1.523,0,1,0,1.076.446,1.526,1.526,0,0,0-1.076-.446" transform="translate(-51.945 -428.119)" fill="#fff"/>
    <path id="Path_4809" data-name="Path 4809" d="M45.331,422.523H34.844a6.466,6.466,0,0,0-6.459,6.458v10.487a6.466,6.466,0,0,0,6.459,6.458H45.331a6.465,6.465,0,0,0,6.458-6.458V428.981a6.465,6.465,0,0,0-6.458-6.458m4.382,16.946a4.387,4.387,0,0,1-4.382,4.382H34.844a4.387,4.387,0,0,1-4.382-4.382V428.981a4.387,4.387,0,0,1,4.382-4.382H45.331a4.387,4.387,0,0,1,4.382,4.382Z" transform="translate(-28.385 -422.523)" fill="#fff"/>
  </g>
</svg>
